<svg id="Layer_1" data-name="Layer 1" xmlns="http://www.w3.org/2000/svg"
     xmlns:xlink="http://www.w3.org/1999/xlink" viewBox="0 0 400 300">
    <defs>
        <linearGradient id="linear-gradient" x1="274.42" y1="197.65" x2="291.62" y2="184.57"
                        gradientUnits="userSpaceOnUse">
            <stop offset="0" stop-color="#acf4e6"/>
            <stop offset="1" stop-color="#8ecdc6"/>
        </linearGradient>
        <linearGradient id="linear-gradient-2" x1="145.65" y1="256.8" x2="185.96" y2="233.19"
                        xlink:href="#linear-gradient"/>
        <linearGradient id="linear-gradient-3" x1="122.66" y1="227.34" x2="157.79" y2="200.62"
                        xlink:href="#linear-gradient"/>
    </defs>
    <title>-</title>
    <path
            d="M235.66,90.93l131,75.5a5.32,5.32,0,0,1,0,9.22L181.85,281.74a14.88,14.88,0,0,1-14.52.16L39.89,212.48a5.32,5.32,0,0,1-.12-9.28L237.46,88.8"
            fill="#acf4e6"/>
    <path d="M295.47,182.17l-42.59,15.21s-3.77,7.15,17.65,19.88l34.09-31.44"
          fill="url(#linear-gradient)"/>
    <polyline points="200.92 213.28 123.74 254.5 150.57 269.05 223.99 223.1"
              fill="url(#linear-gradient-2)"/>
    <path d="M157.86,190.2l-80.61,44s14,1.49,35.44,14.21l74.06-42" fill="url(#linear-gradient-3)"/>
    <path
            d="M188.52,173.18l29.85,11.2s1.25.81.45,2.75c-.46,1.11-2.93,2.71-2.93,2.71l-25.77,15a14.86,14.86,0,0,1-4.44,1.2c-2.06.12-5.51-1.55-5.51-1.55l-24-13.9Z"
            fill="#34323d"/>
    <path
            d="M188.94,171.79l28.52,11.66s2,1.09,1.47,2.57a6.16,6.16,0,0,1-2.55,2.59l-25.84,14.85a14.86,14.86,0,0,1-4.44,1.2c-2.06.12-5.51-1.55-5.51-1.55L157.86,190.2Z"
            fill="#435950"/>
    <path
            d="M121.49,211a2.75,2.75,0,0,1-3.19-.77s-.56-.11-.56-2.56V94a7,7,0,0,1,2.49-5.14,82.23,82.23,0,0,1,8.7-5.32L255.28,10.61l1.42-.72a2.23,2.23,0,0,1,2.82.72,4.54,4.54,0,0,1,.62,2.07c.05,1.19,0,12.68,0,12.68v102.3a7.07,7.07,0,0,1-2.3,5.22Z"
            fill="#334c42"/>
    <path
            d="M120.06,193.82V95.71c0-3.26.45-5.08,3-6.44L256.31,12.07a1.76,1.76,0,0,1,2.81,1.42l-.33,100.88Z"
            fill="#9a6cff"/>
    <path
            d="M148.83,243.59a11.19,11.19,0,0,0,4.29,2.59c2.81,1,12.11,4.64,12.11,4.64s6.58,2.69,8.28,2.28-19.37-9.51-19.37-9.51Z"
            fill="#34323d"/>
    <path
            d="M170.2,252.19a11.53,11.53,0,0,0,1.65.64,8.07,8.07,0,0,0,5.81-.66c4.22-2.14,4.67-4.87,3.73-7.11s-11.93-7.26-16.75-8a19.27,19.27,0,0,0-8.82.77,17.31,17.31,0,0,0-4.28,2.06c-.88.6-3.64,2.25-2.72,3.65a1.52,1.52,0,0,0,.91.51c3.6,1,7.19,2.13,10.7,3.45,2,.76,4,1.64,5.92,2.6C167.63,250.78,168.89,251.58,170.2,252.19Z"
            fill="#334c42"/>
    <path
            d="M171,230.67,171,232.8s0,.33.81.71,20,8,20,8a1.87,1.87,0,0,0,1.63,0c.81-.43,77-44.46,77-44.46s.37-.23.09-1.16l-1.19-.47"
            fill="#2f2e36"/>
    <path
            d="M171.54,230.12s-.75.36-.44.75,7.32,3.64,7.32,3.64l13.23,6a1.83,1.83,0,0,0,1.6.19c.86-.33,77-44.24,77-44.24a.62.62,0,0,0,.17-.58s0-.18-.38-.35-19.92-9.58-19.92-9.58a1.78,1.78,0,0,0-1.37-.07C248.19,186.18,171.54,230.12,171.54,230.12Z"
            fill="#334c42"/>
    <path
            d="M77.25,95.06v30.57a4.3,4.3,0,0,0,6.36,3.78L124.73,107a4.3,4.3,0,0,0,2.24-3.78V71.32a4.3,4.3,0,0,0-6.45-3.73L79.4,91.34A4.3,4.3,0,0,0,77.25,95.06Z"
            fill="#68e1fd"/>
    <polyline points="126.97 95.36 126.97 116 118.19 108.1" fill="#68e1fd"/>
    <ellipse cx="245.61" cy="35.65" rx="5.79" ry="5.07"
             transform="translate(114.94 246.64) rotate(-66.49)" fill="#ffe427"/>
    <polygon points="144.55 124.91 144.55 161.71 152.18 157.25 152.25 120.46 144.55 124.91"
             fill="#ffe427"/>
    <polygon points="157.37 111.32 157.23 154.57 165.23 149.93 165.23 106.88 157.37 111.32"
             fill="#ffe427"/>
    <polygon points="170.28 99.62 170.15 147.35 177.28 143.21 177.28 95.36 170.28 99.62"
             fill="#ffe427"/>
    <ellipse cx="245.61" cy="50.86" rx="5.79" ry="5.07"
             transform="translate(101 255.79) rotate(-66.49)" fill="#ffe427"/>
    <ellipse cx="245.61" cy="65.58" rx="5.79" ry="5.07"
             transform="translate(54.5 233.22) rotate(-56.21)" fill="#ffe427"/>
    <path
            d="M206.43,117.45a17.49,17.49,0,0,1-5.31-.82c-6.07-1.93-10.63-7-12.85-14.18a37.46,37.46,0,0,1,.56-22c5.23-16.47,18.81-26.36,30.93-22.51S237.27,77.65,232,94.12h0a37.46,37.46,0,0,1-12.26,18.33A22,22,0,0,1,206.43,117.45Zm8.05-51.63c-6.66,0-14.13,7.18-17.32,17.22a28.69,28.69,0,0,0-.53,16.84c1.35,4.39,3.88,7.38,7.14,8.41s7,.05,10.68-2.76a28.68,28.68,0,0,0,9.27-14.06c3.62-11.4.59-23-6.6-25.25A8.68,8.68,0,0,0,214.48,65.82Z"
            fill="#68e1fd"/>
    <path
            d="M145.22,166.22v0a1.76,1.76,0,0,0,2.63,1.52l32.78-18.72a1.76,1.76,0,0,0,.88-1.52h0a1.76,1.76,0,0,0-2.62-1.53L146.11,164.7A1.76,1.76,0,0,0,145.22,166.22Z"
            fill="#ffe427"/>
    <path
            d="M138.08,94.39v13.27a1.86,1.86,0,0,0,2.79,1.61l36.08-20.84a1.86,1.86,0,0,0,.93-1.61V73.56a1.86,1.86,0,0,0-2.79-1.61L139,92.77A1.86,1.86,0,0,0,138.08,94.39Z"
            fill="#ffe427"/>
    <ellipse cx="146.15" cy="97.72" rx="5.88" ry="4.7"
             transform="translate(8.8 207.47) rotate(-72.39)" fill="#fff"/>
    <path d="M152.63,90.85,173.72,79a.75.75,0,0,0-.76-1.3L151.87,89.55a.75.75,0,0,0,.76,1.3Z"
          fill="#7f47dd"/>
    <path d="M153.42,96l13.11-7.34a.75.75,0,0,0-.76-1.3l-13.11,7.34a.75.75,0,0,0,.76,1.3Z"
          fill="#7f47dd"/>
    <polygon points="222.68 100.54 231.34 94.97 226.13 80.1 217.29 85.65 221.63 97.16 222.68 100.54"
             fill="#ffe427"/>
    <path
            d="M224.1,101.89l-.56-2.49a4.32,4.32,0,0,0-1.11-4.76,11.42,11.42,0,0,0,.65-3.26.47.47,0,0,0-.18-.41.56.56,0,0,0-1,.08c-.25.78-.46,1.57-.66,2.37a14.28,14.28,0,0,0-.51,1.8c-.13-.52-.27-1-.42-1.55v0a.5.5,0,0,0-.07-.19l-.13-.42q-.35-1.43-.83-2.82l0-.06a.4.4,0,0,0-.18-.21,46.72,46.72,0,0,0,.82,8.38,26.74,26.74,0,0,0,1.35,3.31.47.47,0,0,0,.17.18c.1.31.2.61.33.91l0,.06.08.28a.55.55,0,0,0,1,0c.37.24,1,0,.84-.48A.54.54,0,0,0,224.1,101.89Z"
            fill="#fcbf81"/>
    <path
            d="M237.59,87.61c.28-.17-3.43-3.1-3.75-3.38a69.23,69.23,0,0,1-5.31-5.32.47.47,0,0,0-.2-.13,11.82,11.82,0,0,0-1-1,.56.56,0,0,0-.93.54,6.52,6.52,0,0,0,1.85,3.29c-.18.36-.38.76-.53,1.16a.23.23,0,0,1,.15.22,1.69,1.69,0,0,1-.13.57,1.21,1.21,0,0,1-.16.36.27.27,0,0,1-.13.1,1.75,1.75,0,0,0,.75,1.32,2.23,2.23,0,0,0,.33,1.57l.06.05.09,0a16.32,16.32,0,0,1,2.28.78.25.25,0,0,1,0,.41,14.62,14.62,0,0,0,1.75.19.47.47,0,0,0,.36-.12l.26.14a.57.57,0,0,0,.84-.48.65.65,0,0,0,0-.2l.25.16a.64.64,0,0,0,.78.62.65.65,0,0,0,.55-.69.76.76,0,0,0-.06-.25l.59.51a.15.15,0,0,0,.26-.12.13.13,0,0,0,0-.07,8.71,8.71,0,0,1,.88,1C241.32,92.16,237.7,87.73,237.59,87.61Zm-2.41.56a.35.35,0,0,1-.42-.22.58.58,0,0,0,.43-.22h0a.15.15,0,0,0,.21-.08l0,0A.35.35,0,0,1,235.18,88.16Z"
            fill="#fcbf81"/>
    <path
            d="M236.84,87.72a6.07,6.07,0,0,1-1.91-1.23,1.17,1.17,0,0,0-1.68,0,6.84,6.84,0,0,1-.32-.88,1.23,1.23,0,0,0-2.37.65,6,6,0,0,0,1.87,3.12,10,10,0,0,0,3.22,1.54,1.26,1.26,0,0,0,1.54-1.42l.08-.11A1.24,1.24,0,0,0,236.84,87.72Z"
            fill="#fcbf81"/>
    <path
            d="M233.39,89.4a4.31,4.31,0,0,1-3.12-4.09.14.14,0,0,0,0-.11l0,0L229,84c-.18-.18-.37-.35-.53-.54s-.89-1.72.33-1.41c.37.09,1,.8,1.33,1.06s.84.72,1.25,1.09c.15.13.36-.08.22-.22q-1.13-1-2.34-2c-.38-.29-.76-.6-1.2-.22a1,1,0,0,0-.26,1.16c-.09.4-.4.78-.34,1.21a2.1,2.1,0,0,0,.69,1.07l.19.19a.15.15,0,0,0,0,.08c0,.5-.21,1.09.26,1.43a2.29,2.29,0,0,0,.65.28l1.12.37a.14.14,0,0,0,.18-.1,5,5,0,0,0,2.8,2.23C233.5,89.76,233.58,89.46,233.39,89.4Zm-5.31-4.72a.93.93,0,0,1-.23-1c0-.12.09-.24.14-.35a11.66,11.66,0,0,0,2,2s0,.07,0,.1a.14.14,0,0,0-.16,0C229.27,86,228.41,85.08,228.08,84.68Zm1,2.14a.64.64,0,0,1-.5-.56,3.38,3.38,0,0,1,0-.64c.43.32,1,.53,1.39.14a4.29,4.29,0,0,0,.43,1.52C230,87.12,229.5,87,229.06,86.82Z"
            fill="#34323d"/>
    <path
            d="M250.61,97.15c-.43-.78-15.69-11.42-16.57-12.68a8.31,8.31,0,0,0-1.23,9.29s8.22,11,12.8,12.23"
            fill="#22b68e"/>
    <path
            d="M219.22,104.51s2.35-4.27,6.77-5.34c0,0,4.55,10.47,7.82,9.62s3.63-9.82,11.09-12,2.08,24-7.64,24.12S221.88,113.56,219.22,104.51Z"
            fill="#22b68e"/>
    <path
            d="M248.13,197.24l-3.48,1.57a2,2,0,0,1-1.34,1.44.8.8,0,0,1-.48.32,9.42,9.42,0,0,1-4.31-.35c-1.76-.4-8.66-2.43-6.42,2.24,1.29.76,2.72,1.39,4,2.05.74.37,1.48.74,2.23,1.08a4.25,4.25,0,0,0,1.3.48c1,.07,3.25-.84,3.33-.6s.44,2.07.44,2.07,6.29,1.84,6.22-2.27C249.65,204.73,248.13,197.24,248.13,197.24Z"
            fill="#e55600"/>
    <path
            d="M251.29,191.4s-6.25-2.2-7.71-2.19-3.85.7-1.51,3.2c0,0,6.68,3.64,7.53,3.7s2.83-.73,2.9-.52.39,1.8.39,1.8,5.47,1.6,5.41-2c0-.47-1.33-7-1.33-7"
            fill="#e55600"/>
    <path
            d="M250.22,160.17c-.22-12.11-.78-24.27.81-36.32-.14-3.09,2-1.28,1.78-2.49-1.88-9.83-15.38,3.13-15.38,3.13-.55.52-.37,3.57-.43,4.27q-.52,5.79-.76,11.6c-.83,19.55,1.6,38.74,4.13,58.08,3.32,2.89,5.4,3.66,10.19,1.24,0-12.79-.12-25.58-.33-38.36Q250.23,160.74,250.22,160.17Z"
            fill="#ffe427"/>
    <path
            d="M258.24,181.49c-.31-4.81-.9-9.61-1.31-14.37-.63-7.3-.45-14.61-.54-21.92-.91-9.06-1.83-20.58-1.83-20.58l-7.5,2.09s-4.87,63.16,2.61,65.84,8.63-2.19,8.63-2.19S258.29,186.65,258.24,181.49Z"
            fill="#ffe427"/>
    <path
            d="M255.17,124.19a20.15,20.15,0,0,0-.48-3.77,44.91,44.91,0,0,1,0-12.1c.46-3.88.49-7.89-1.9-11.2-3.45-2-8.25-.21-11.16,1.93-3.93,2.9-5.25,22.59-5.2,28.68,0,.86,5.22,1.3,5.8,1.34a24.53,24.53,0,0,0,8.08-.6c1.88-.51,4.22-1.44,4.75-3.54A3.92,3.92,0,0,0,255.17,124.19Z"
            fill="#22b68e"/>
    <path
            d="M250.3,129.87a.55.55,0,0,0-1,.34c3.56,10.9-2.34,22.17-1.2,33.28.6,5.85,1.64,11.62,2,17.51a140.44,140.44,0,0,1-.19,18.77c-.05.7,1,.64,1.09-.05a140.44,140.44,0,0,0,.19-18.77c-.36-6.21-1.57-12.3-2.07-18.48C248.18,151.54,253.82,140.65,250.3,129.87Z"
            fill="#34323d"/>
    <path
            d="M243.44,112.82a9.22,9.22,0,0,1-6.78,8.1c0,.37-.12,2.67-.15,3,4.36-1,7.57-6.51,8-11.14C244.6,112.12,243.51,112.12,243.44,112.82Z"
            fill="#06825e"/>
    <path d="M246.07,86c-.33.07-3.32,6.26-2.4,10.13s7.58.2,9.33-2.65S252.28,84.63,246.07,86Z"
          fill="#fcbf81"/>
    <path
            d="M246.12,86.85a3,3,0,0,0,1.71,2.83c1.8.74,3.29,1.26,3.15,2.1s-3.29-.25-3.37,1.67a14.37,14.37,0,0,0,.36,3.86c.16,1,5.74-1.72,7.74-6.58s-2.45-6.35-2.67-6.4a4.58,4.58,0,0,0-2.76-2c-2.19-.57-2.85.26-2.85.26a2.68,2.68,0,0,0-3.24.22,3.41,3.41,0,0,0,.55,5.8Z"
            fill="#34323d"/>
    <path
            d="M283.55,135.38a8.38,8.38,0,0,1,4.08.8,6.63,6.63,0,0,1,2.88,3.28c.63,1.32.9,3.2,2.21,4a3.83,3.83,0,0,1,1.29,1.12,3.36,3.36,0,0,1,.4,3.13c-.58,1.16-3,1.87-4.09,1.66"
            fill="#8fdb5e"/>
    <path
            d="M282.48,135.52a7.87,7.87,0,0,0-6.95,6,10.39,10.39,0,0,0-.05,4.91c.31,1.3,1.08,3.56,2.67,3.66,2.15.13,2.84-1.88,3.52-3.53s1.39-3.47,3.11-4.12a4.63,4.63,0,0,1,5,1.12Z"
            fill="#1e8c0e"/>
    <path
            d="M292.31,144.25c-1.3-1.68-2.38-3.51-3.63-5.22a15.55,15.55,0,0,0-2.52-3c-3-1.45-6.75-.12-9,2.42.3.09.72.11,1,.19a8.51,8.51,0,0,1,3.42,2.42c1.32,1.46,2.35,3.25,3.52,4.81,1.9,2.52,4.42,4.6,7.67,3.09C294.85,147.95,293.22,145.43,292.31,144.25Z"
            fill="#8fdb5e"/>
    <path d="M302.85,122.64s6.73-.53,6.6,10.12-10.18,3.64-8-2.77" fill="#1e8c0e"/>
    <path
            d="M301.88,133.12c-.07-3.24,3.57-5.6,6.64-6a6.22,6.22,0,0,0-6.09-4.76c-4.61.12-8.06,4.8-8.84,10.32a10.56,10.56,0,0,0,3.39,9l2.22,1.9C303.3,142,301.78,136.07,301.88,133.12Z"
            fill="#8fdb5e"/>
    <path
            d="M320.21,140.73a14.06,14.06,0,0,0-1.56-5.78,6.37,6.37,0,0,0-4.38-3.39l-3.79,7.3s5.65-9.88,3.34-2.27,5.3,16.13,6.34,4.79C320.18,141.16,320.19,140.95,320.21,140.73Z"
            fill="#1e8c0e"/>
    <path
            d="M293.43,159.73s-5.06,3.3-3.66,11a42.32,42.32,0,0,0,2.25,7.82c1,2.51,1.7,5.74,4.23,7.16a9,9,0,0,0,8.37.11c2.17-1.33,2.95-4.34,3.74-6.58a40.85,40.85,0,0,0,1.94-8.51C312.7,152.1,293.43,159.73,293.43,159.73Z"
            fill="#68e1fd"/>
    <ellipse cx="300.25" cy="160.86" rx="7.39" ry="2.67" fill="#34323d"/>
    <path
            d="M300.85,146.62c-1-2.49-3-4.58-3.57-7.25a9.49,9.49,0,0,1,3.78-9.69c.56-.41,0-1.36-.55-.94-4.72,3.43-5.64,9.29-2.88,14.28a26,26,0,0,1,2.49,4.73c.68,2.22-.08,3.83-1.12,5.5a6.33,6.33,0,0,0-1.64-4.48c-1.23-1.14-3-1.33-4.56-1.84-2.94-1-5.53-2.67-6-6-.11-.69-1.16-.4-1.05.29a7.88,7.88,0,0,0,4.54,5.82,31.64,31.64,0,0,0,4.38,1.52,5.1,5.1,0,0,1,2.89,2.83c.7,1.61.22,2.71-.17,4.27-.51,2-1.32,3.76.07,5.68.41.56,1.36,0,.94-.55-2.21-3.05,1.32-6,2.52-8.58A6.75,6.75,0,0,0,300.85,146.62Z"
            fill="#1e8c0e"/>
    <path
            d="M314.48,139.93c-4.67-.82-7.85,2.79-7.57,7.31a17.14,17.14,0,0,0,.63,3.35,8.76,8.76,0,0,1,.62,2.9,4.41,4.41,0,0,1-2.67,3.12,6.36,6.36,0,0,0-3.94,4.33.55.55,0,0,0,1.05.29c1.08-4,6.6-3.38,6.64-7.74,0-2.13-1.11-4.12-1.24-6.25-.23-3.72,2.2-7,6.19-6.26C314.87,141.1,315.17,140.05,314.48,139.93Z"
            fill="#1e8c0e"/>
    <path
            d="M318.65,135c-1.81-3.34-5.1-4.12-8.32-3.13a10.61,10.61,0,0,0-1.3.63c-8.11,6-2.35,19.57-1.1,19.46,4.13-.34,3.7-2.77,5.09-9.57a6.42,6.42,0,0,1,6.45-5.44A12,12,0,0,0,318.65,135Z"
            fill="#8fdb5e"/>
    <path
            d="M316.87,132.74A6.76,6.76,0,0,0,310,136c-3,5-2.28,10.73-1.89,16.2.05.7,1.14.7,1.09,0-.29-4-.84-7.87.23-11.75.53-1.9,1.16-4,2.68-5.38a5.6,5.6,0,0,1,6.1-.87l-.41-.56C317.46,133.37,317.17,133.06,316.87,132.74Z"
            fill="#1e8c0e"/>
</svg>
