<?xml version="1.0" encoding="utf-8"?>
<!-- Generator: Adobe Illustrator 19.0.0, SVG Export Plug-In . SVG Version: 6.00 Build 0)  -->
<svg version="1.1" xmlns="http://www.w3.org/2000/svg" xmlns:xlink="http://www.w3.org/1999/xlink"
     x="0px" y="0px"
     viewBox="0 0 600 600" enable-background="new 0 0 600 600" xml:space="preserve">
<g id="LEFT_ARM_1">
	<g id="XMLID_46_">
		<path id="XMLID_290_" fill="#FFB96C" d="M294.4,485.5c-1.2,0.3-2.4,0.4-3.6,0.4c-0.2,0-0.4,0-0.6,0c-8.4-0.3-16.2-6.9-21-15.7
			c-21.3-39.2-27.1-63.4-34.8-89.9c-1.9-6.6-1.4-13.3,1.4-18.1c2.2-3.7,5.7-6.4,10.5-6.9c0.6-0.1,1.1-0.1,1.7-0.1
			c8.5,0,17.4,6.8,20.9,15.6l36.5,89.4C310,471.5,305,483.1,294.4,485.5z"/>
        <path id="XMLID_280_" fill="#FCAF63" d="M290.2,485.9c-8.4-0.3-16.2-6.9-21-15.7c-21.3-39.2-27.1-63.4-34.8-89.9
			c-1.9-6.6-1.4-13.3,1.4-18.1c9.5,23,40.7,98.5,50.3,116.1C287.6,481.1,289,483.6,290.2,485.9z"/>
	</g>
</g>
    <g id="LEFT_ARM_2">
	<g id="XMLID_10_">
		<g id="XMLID_42_">
			<path id="XMLID_293_" fill="#FFB96C" d="M340.2,472c-0.9,2.3-2.1,4.1-3.3,5c-7.2,5.7-14.3,7-26.2,9.6c-11.9,2.6-24.2,2-29.9-3.4
				c-1.9-1.8-3.3-3.8-4.1-5.9c-2.5-6-0.3-12.3,6.8-15c4.2-1.6,42.4-10.6,48.7-9.4C343.1,455,342.9,465.3,340.2,472z"/>
            <path id="XMLID_279_" fill="#FCAF63" d="M340.2,472c-0.9,2.3-2.1,4.1-3.3,5c-7.2,5.7-14.3,7-26.2,9.6c-11.9,2.6-24.2,2-29.9-3.4
				c-1.9-1.8-3.3-3.8-4.1-5.9c3.2,0.9,9.6,2.1,20.5,0.9C306.4,477.2,325.3,474.3,340.2,472z"/>
		</g>
        <g id="XMLID_41_">
			<path id="XMLID_49_" fill="#FEA691" d="M330.2,453.6c-11.9,4-10.6,11.9-8.8,19.6c1.8,7.7,16.6,27.5,21.1,28.5s4.8-0.8,3.6-4.5
				c-1.2-3.7-9.7-16.6-9.7-16.6s9.4,12.8,13.3,16.6c3.9,3.8,7.2,3.5,7.1-0.7c-0.2-4.2-9.5-18.3-9.5-18.3s8.2,10.8,11.6,14.5
				s7.9,3.1,6.3-1.9c-1.5-5-8.3-15.9-8.3-15.9s6.6,11,11,12.1c4.4,1.1,1.7-5.5-3-13.9C360.3,464.5,345,448.6,330.2,453.6z"/>
            <path id="XMLID_50_" fill="#FEA691" d="M320.2,464.6c0,0-2.5,9.8-0.9,18.4s4.3,10.3,6.1,10.7s2.4-1.9,1.5-5.6
				c-0.9-3.7,1.5-11,1.5-11S325.8,462.4,320.2,464.6z"/>
		</g>
	</g>
</g>
    <g id="BODY">
	<g id="XMLID_70_">
		<path id="XMLID_45_" fill="#FEC272" d="M273.1,496H172.2c0,0-13.9-97.2-5.1-121.1c2.5-6.8,5.8-12.3,9.6-16.9
			c9.5-11.6,21.7-16.9,30-19c10.9-2.8,20.4-2.9,28.6-0.9c21.8,5.2,33.9,25.1,37.8,46.8C278.5,414.8,273.1,496,273.1,496z"/>
        <path id="XMLID_43_" fill="#F9B35F" d="M207.6,358.5c-13.2,3.4-25.3,3-31-0.5c9.5-11.6,21.7-16.9,30-19
			c10.9-2.8,20.4-2.9,28.6-0.9C237,344.9,224.6,354.1,207.6,358.5z"/>
	</g>
</g>
    <g id="RIGHT_ARM_1">
	<g id="XMLID_16_">
		<path id="XMLID_278_" fill="#FFCD92" d="M199,381.3c0,1.6-0.1,3.2-0.4,4.7c-4.1,26.6-27.7,90.6-27.7,90.6c-1.7,5.1-5.3,8.9-9.7,11
			c-4.4,2-9.5,2.4-14.4,0.5c-7.6-3-11.2-10.2-11.2-18.1c0-1.7,0.2-3.4,0.5-5.1c6.9-37.3,19.2-68.2,29.3-90
			c4.4-9.6,15.2-15.6,24.7-10.8c2.9,1.4,4.9,3.7,6.4,6.3C198.3,373.6,199,377.4,199,381.3z"/>
        <path id="XMLID_273_" fill="#FCB765" d="M199,381.3c0,1.6-0.1,3.2-0.4,4.7c-4.1,26.6-27.7,90.6-27.7,90.6c-1.7,5.1-5.3,8.9-9.7,11
			l35.2-117.3C198.3,373.6,199,377.4,199,381.3z"/>
	</g>
</g>
    <g id="RIGHT_ARM_2">
	<g id="XMLID_17_">
		<g id="XMLID_20_">
			<path id="XMLID_285_" fill="#FFCD92" d="M230.5,487.4c-2.2,5.4-9.4,5.6-9.4,5.6s-20.2,1.2-37.7,1.2c-17.5,0-34.7,0-41.7-7.9
				c-1.4-1.6-2.5-3.4-3.1-5.3c-2.6-7.3,0.7-16,11.1-20.4c7.5-3.2,16.1-2.1,25.5-1.2c9.4,0.9,27.5,5.1,38,7.9
				c10.6,2.7,16.9,5.4,17.8,15.4C231.3,484.6,231,486.1,230.5,487.4z"/>
            <path id="XMLID_284_" fill="#FCB765" d="M230.5,487.4c-2.2,5.4-9.4,5.6-9.4,5.6s-20.2,1.2-37.7,1.2c-17.5,0-34.7,0-41.7-7.9
				c-1.4-1.6-2.5-3.4-3.1-5.3c7.8,2.4,18.3,5.2,26.7,5.9C189,488.9,220.4,487.9,230.5,487.4z"/>
		</g>
        <g id="XMLID_2_">
			<g id="XMLID_18_">
				<path id="XMLID_47_" fill="#FEA691" d="M251.6,471.3c0,1.6-0.2,3.3-0.6,5.1c-2.1,8.6-13.2,15.2-30.1,16.1
					c-7.5,0.4-12.6,0.4-16-0.4c-4.4-1.1-6.1-3.7-6.5-9.1c-0.5-6.9,4.7-13.2,8.6-15.9c11.7-7.9,22.6-8.5,32.1-7.6
					C247.6,460.4,251.5,465.1,251.6,471.3z"/>
                <path id="XMLID_44_" fill="#FC8172" d="M251.6,471.3c0,1.6-0.2,3.3-0.6,5.1c-2.1,8.6-13.2,15.2-30.1,16.1
					c-7.5,0.4-12.6,0.4-16-0.4c-0.4-1-0.7-2.2-0.8-3.7c-0.5-5.9,4.4-11.4,8.2-13.7c11.1-6.8,21.5-7.4,30.5-6.5
					C246.8,468.5,249.7,469.6,251.6,471.3z"/>
			</g>
            <g id="XMLID_19_">
				<path id="XMLID_48_" fill="#C7DCF9" d="M264.7,488.7c0,1.1-0.2,2.1-0.5,3.2h-55c-0.3-1-0.5-2.1-0.5-3.2c0-9.6,12.5-17.4,28-17.4
					C252.2,471.3,264.7,479.1,264.7,488.7z"/>
                <path id="XMLID_254_" opacity="0.55" fill="#C7DCF9" d="M263.5,490.2c0,0.6-0.1,1.1-0.4,1.7h-50.3c-0.3-0.6-0.4-1.1-0.4-1.7
					c0-5.1,11.4-9.3,25.5-9.3C252.1,480.9,263.5,485.1,263.5,490.2z"/>
			</g>
            <g id="XMLID_37_">
				<path id="XMLID_28_" fill="#FEA691" d="M252.6,456.6c3.6,0.4,6.1,2.7,7.5,7.5c1.4,4.8,1.7,11.9,0.2,14.4
					c-1.5,2.5-4.3,3.6-7.4,1.1c-3.1-2.5-4.8-9.5-5.8-13C245.9,462,244.5,455.8,252.6,456.6z"/>
                <g id="XMLID_4_">
					<path id="XMLID_38_" fill="#FEA691" d="M239.2,454.3c3.9,0.4,5.5,3.7,7,8.7c1.5,5,1.8,12.6,0.2,15.3c-1.6,2.6-4.6,3.8-7.9,1.2
						c-3.3-2.6-5.2-10.1-6.2-13.8C231,460.8,230.4,453.5,239.2,454.3z"/>
                    <path id="XMLID_79_" fill="#FF8D76" d="M243.1,480.8c-1.4,0.3-3,0-4.6-1.4c-3.3-2.6-5.1-10.1-6.2-13.8c-1.1-4-1.7-9.7,3-11.1
						c-0.9,2.7-0.4,6.4,0.3,9.2c1,4.3,2.9,13,6.2,16C242.3,480.2,242.7,480.6,243.1,480.8z"/>
				</g>
                <path id="XMLID_39_" fill="#FEA691" d="M224.6,456.6c3.9,0.4,6.5,2.9,8,7.9s1.8,12.6,0.2,15.3c-1.6,2.6-4.6,3.8-7.9,1.2
					c-3.3-2.6-5.2-10.1-6.2-13.8C217.4,462.3,215.9,455.7,224.6,456.6z"/>
                <path id="XMLID_81_" fill="#FF8D76" d="M228.5,482.4c-1.1,0-2.3-0.5-3.5-1.5c-3.3-2.6-5.1-10.1-6.2-13.8
					c-1-3.8-2.2-8.6,1.5-10.2c-0.3,2.5,0.4,5.7,1.1,8.3c1.2,4.5,3.3,13.7,7,17C228.4,482.4,228.4,482.4,228.5,482.4z"/>
                <path id="XMLID_40_" fill="#FEA691" d="M211.5,459.4c3.4-1,6,2.7,7.3,7.3c1.3,4.6,1.7,11.6,0.2,14c-1.4,2.4-4.2,3.5-7.2,1.1
					c-3-2.4-3.8-7-4.7-10.4C205.9,467,204.9,461.4,211.5,459.4z"/>
                <path id="XMLID_82_" fill="#FF8D76" d="M215.2,483.2c-1.1,0-2.2-0.4-3.4-1.4c-3-2.4-3.8-7-4.7-10.4c-1.1-3.8-1.9-8.5,2.1-11
					c-0.3,2.7,0.2,5.6,0.7,8.2c0.9,4.6,1.6,10.9,5,14.3C215,483,215.1,483.1,215.2,483.2z"/>
                <path id="XMLID_78_" fill="#FF8D76" d="M256.8,480.9c-1.2,0.1-2.5-0.3-3.8-1.4c-3.1-2.5-4.8-9.5-5.8-13c-1-3.7-2.2-8.5,1.8-9.7
					c0,2.2,0.5,4.7,1,6.9c1,4.5,2.9,13.5,6.1,16.7C256.4,480.6,256.6,480.8,256.8,480.9z"/>
			</g>
		</g>
	</g>
</g>
    <g id="HEAD">
	<g id="XMLID_89_">
		<path id="XMLID_6_" fill="#FF8D76"
              d="M208.8,235c0,0,9.3-3.8,15.6,8.8c6.3,12.7-0.5,20.8-0.5,20.8S217.7,246.3,208.8,235z"/>
        <path id="XMLID_173_" fill="#FEA691" d="M215.2,350.9c-8.8,4.1-14.9-1.6-14.9-1.6l-5.5-11.9l-9.9-21.4c14.9-3.2,27.9-5.7,27.9-5.7
			l2.3,9.5l4.3,17.7C219.2,337.6,224,346.9,215.2,350.9z"/>
        <path id="XMLID_171_" fill="#FF8D76" d="M215,319.9c-1.3,1.9-2.7,3.9-4.4,5.8c-4.3,5.1-10.5,9-15.9,11.7l-9.9-21.4
			c14.9-3.2,27.9-5.7,27.9-5.7L215,319.9z"/>

        <ellipse id="XMLID_3_" transform="matrix(0.8545 -0.5194 0.5194 0.8545 -114.0092 131.008)"
                 fill="#FEA691" cx="176.9" cy="269" rx="47.2" ry="57.7"/>
        <path id="XMLID_12_" fill="#FF8D76" d="M217.4,308.8c-2.9,3.7-6.5,6.9-10.6,9.5c-22.3,13.5-53.7,2.4-70.3-24.8
			c-16.4-26.9-12-59.6,9.7-73.4c-12.6,16.2-13.2,42.2,0.3,64.3c16.5,27.2,48,38.3,70.3,24.8C217,309.1,217.2,309,217.4,308.8z"/>
        <path id="XMLID_5_" fill="#283575" d="M157.2,309.5c0,0-17-13.4-21.3-37.4s0.5-33.7,20.2-45.3c19.7-11.5,34.4-7.4,34.4-7.4
			s-14-10.5-36.9-6.6c-22.9,3.8-46.2,25.6-41.4,58.4C117.2,306.2,138,316.5,157.2,309.5z"/>
        <path id="XMLID_11_" fill="#F76F59" d="M177.8,246.8c-2.7,1.9,1.1,12,9.3,19.5c8.2,7.5,16.1,3.6,16.3-3.8
			C203.6,254.9,187.1,240.2,177.8,246.8z"/>
        <path id="XMLID_7_" fill="#FF8D76"
              d="M137.5,291.4c0,0-16,15.7-1.6,29.4c13.8,13.1,31.2-4.5,31.2-4.5S142.7,303.2,137.5,291.4z"
        />
        <path id="XMLID_250_" fill="#F76F59"
              d="M139.4,300.5c0,0-9,8.8-0.9,16.6c7.8,7.4,17.6-2.5,17.6-2.5S142.3,307.2,139.4,300.5z"/>
	</g>
</g>
    <g id="HAIR">
	<g id="XMLID_84_">
		<path id="XMLID_8_" fill="#283575" d="M188.5,218.1c0,0,1.7-30.2-15.5-42.5c-19.4-13.8-30.3,6.1-23.9,22.4
			c2.8,7.3,5.8,11.7,8.2,14.3c2.2,2.4,5.2,3.8,8.4,4L188.5,218.1z"/>
        <path id="XMLID_9_" fill="#283575" d="M122.7,192.6c-15.3,12.2-2.1,29.7,4.2,34.4c2.7,2,5.6,3.6,8.1,4.8c3.4,1.6,7.4,1.4,10.6-0.6
			l21.6-13.7C167.2,217.6,143,176.5,122.7,192.6z"/>
        <path id="XMLID_51_" fill="#3C4E8E"
              d="M159,172.3c-4.8,0.6,0.5,9.8,7.5,11S171.3,170.8,159,172.3z"/>
        <path id="XMLID_61_" fill="#3C4E8E"
              d="M128.7,192.8c-2.8,3.2,4.5,7.3,10.4,5.3C145.1,196.2,134.9,185.8,128.7,192.8z"/>
	</g>
</g>
    <g id="MOUTH">
	<g id="XMLID_83_">
		<path id="XMLID_177_" fill="#F76F59" d="M217.7,285c-0.5,1-1.2,1.9-2.2,2.7c-3.7,2.9-6.5,7.1-8.5,11.5c-1.8,3.9-6.4,8.5-10.7,5.2
			c-0.5-0.4-1-0.8-1.4-1.4c-4.5-5.7-2.8-20.4,4.2-26.9c5.4-5,12.1-3.7,15.5-0.9C217.9,277.7,219.3,281.7,217.7,285z"/>
        <path id="XMLID_175_" fill="#FF6EA9" d="M217.7,285c-0.5,1-1.2,1.9-2.2,2.7c-3.7,2.9-6.5,7.1-8.5,11.5c-1.8,3.9-6.4,8.5-10.7,5.2
			c0-6.3,2.3-13.7,6.7-17.7C208.1,282.1,214.1,282.7,217.7,285z"/>
	</g>
</g>
    <g id="EYE_1">
	<g id="XMLID_14_">
		<path id="XMLID_86_" fill="#1C3177" d="M155.8,267.7c-3.2,0-5.7-1-5.9-1.1c-1.3-0.5-1.9-2-1.4-3.3c0.5-1.3,2-1.9,3.3-1.4
			c0.1,0,5.6,2.2,8.6-1.1c3.9-4.1-0.2-9.4-0.3-9.6c-0.9-1.1-0.7-2.7,0.4-3.6c1.1-0.9,2.7-0.7,3.6,0.4c2.4,3.1,5.5,10.4,0,16.2
			C161.6,266.9,158.5,267.7,155.8,267.7z"/>
	</g>
</g>
    <g id="EYE_2">
	<g id="XMLID_15_">
		<path id="XMLID_85_" fill="#1C3177" d="M193,242.6c-5.1,0-9.4-3.8-9.7-4c-1.1-0.9-1.1-2.6-0.2-3.6c0.9-1,2.5-1.1,3.6-0.2
			c0,0,4.6,3.9,8,2.4c1.5-0.7,0.4-3.8,0.3-3.9c-0.5-1.3,0.1-2.8,1.5-3.3c1.3-0.5,2.8,0.1,3.3,1.4c1.5,3.7,1.1,8.6-3,10.4
			C195.5,242.4,194.2,242.6,193,242.6z"/>
	</g>
</g>
    <g id="EYEBROW_1">
	<g id="XMLID_1_">
		<path id="XMLID_88_" fill="#1C3177" d="M142.4,261.7c-0.1,0-0.2,0-0.3,0c-1.4-0.2-2.4-1.4-2.3-2.8c0-0.3,0.7-6.3,4.9-12.4
			c4.1-6.1,8.3-8.2,8.5-8.3c1.3-0.6,2.8-0.1,3.4,1.2c0.6,1.3,0.1,2.8-1.2,3.4c0,0-3.2,1.7-6.5,6.5c-3.4,5-4,10-4,10.1
			C144.8,260.7,143.7,261.7,142.4,261.7z"/>
	</g>
</g>
    <g id="EYEBROW_2">
	<g id="XMLID_13_">
		<path id="XMLID_87_" fill="#1C3177" d="M179,232.1c-0.7,0-1.5-0.3-2-0.9c-0.9-1.1-0.7-2.7,0.4-3.6c0.3-0.2,2.6-2.1,6.7-3.3
			c4.1-1.2,7.5-1.1,7.6-1.1c1.4,0,2.5,1.2,2.5,2.6c0,1.4-1.3,2.5-2.6,2.5c0,0-2.7-0.1-6,0.9c-3.2,1-5,2.4-5,2.4
			C180.1,231.9,179.6,232.1,179,232.1z"/>
	</g>
</g>
    <g id="TABLE">
	<g id="XMLID_248_">
		<path id="XMLID_22_" fill="#99ADF9" d="M505.9,506.3H98.3c-4,0-7.2-3.2-7.2-7.2l0,0c0-4,3.2-7.2,7.2-7.2h407.6
			c4,0,7.2,3.2,7.2,7.2l0,0C513.1,503,509.9,506.3,505.9,506.3z"/>
        <path id="XMLID_198_" fill="#789FEF" d="M505.2,506.3H157.1c-4,0-7.2-3.2-7.2-7.2l0,0c0-4,3.2-7.2,7.2-7.2h348.1
			c4,0,7.2,3.2,7.2,7.2l0,0C512.5,503,509.2,506.3,505.2,506.3z"/>
	</g>
</g>
    <g id="DESKTOP">
	<g id="XMLID_186_">
		<g id="XMLID_182_">
			<path id="XMLID_25_" fill="#E1ECFF" d="M457.6,444.7h-186c-3.3,0-5.9-3-5.3-6.3l19.8-118.7c0.4-2.6,2.7-4.5,5.3-4.5h186
				c3.3,0,5.9,3,5.3,6.3L463,440.2C462.5,442.8,460.3,444.7,457.6,444.7z"/>
            <path id="XMLID_29_" fill="#C7DCF9" d="M461.6,444.7H278c-3.3,0-5.9-3-5.3-6.3l19.8-118.7c0.4-2.6,2.7-4.5,5.3-4.5h183.6
				c3.3,0,5.9,3,5.3,6.3l-19.8,118.7C466.5,442.8,464.2,444.7,461.6,444.7z"/>
            <path id="XMLID_31_" fill="#B7D4F7" d="M442.2,432H302c-2.6,0-4.5-2.3-4.1-4.8l15.1-90.6c0.3-2,2.1-3.5,4.1-3.5h140.1
				c2.6,0,4.5,2.3,4.1,4.8l-15.1,90.6C445.9,430.5,444.2,432,442.2,432z"/>
		</g>
        <g id="XMLID_183_">
			<path id="XMLID_24_" fill="#E1ECFF" d="M382.3,484.5h-25.5c-2.4,0-4.2-2-4-4.4l6.7-66.5c0.2-2,1.9-3.6,4-3.6H389
				c2.4,0,4.2,2,4,4.4l-6.7,66.5C386.1,483,384.4,484.5,382.3,484.5z"/>
            <path id="XMLID_26_" fill="#C7DCF9" d="M384.1,484.5h-23.4c-1.5,0-2.7-1.3-2.6-2.8l7-69.4c0.1-1.3,1.2-2.3,2.6-2.3h23.4
				c1.5,0,2.7,1.3,2.6,2.8l-7,69.4C386.5,483.5,385.4,484.5,384.1,484.5z"/>
		</g>
        <g id="XMLID_185_">
			<path id="XMLID_27_" fill="#E1ECFF" d="M424.7,491.8H318.5c-2.2,0-4-1.8-4-4V479c0-2.2,1.8-4,4-4h106.2c2.2,0,4,1.8,4,4v8.8
				C428.7,490,426.9,491.8,424.7,491.8z"/>
            <path id="XMLID_30_" fill="#C7DCF9" d="M426.9,491.8H327c-2.3,0-4.2-1.9-4.2-4.2v-8.4c0-2.3,1.9-4.2,4.2-4.2h99.9
				c2.3,0,4.2,1.9,4.2,4.2v8.4C431,489.9,429.2,491.8,426.9,491.8z"/>
		</g>
	</g>
</g>
    <g id="SIGN">
	<g id="XMLID_21_">
		<path id="XMLID_77_" fill="#FF97C9" d="M501.5,298.7c-1,0.7-2.3,1.2-3.7,1.2H402c-4.8,0-7.8-5-5.6-9.3l34.8-66.9l12.8-24.6
			c2.4-4.5,8.8-4.5,11.2,0l48.2,91.5C505,293.6,503.9,297,501.5,298.7z"/>
        <path id="XMLID_74_" fill="#FC72BB" d="M501.5,298.7c-1,0.7-2.3,1.2-3.7,1.2H402c-4.8,0-7.8-5-5.6-9.3l34.8-66.9L420.6,280
			c-0.9,4.8,2.4,9.3,7.3,9.9L501.5,298.7z"/>
        <g id="XMLID_32_">
			<g id="XMLID_34_">
				<path id="XMLID_35_" fill="#FFFFFF" d="M445.2,264.1l-5-35.8c-0.2-1.2,0.8-2.3,2-2.3h14.2c1.2,0,2.1,1.1,2,2.3l-5,35.8
					c-0.1,1-1,1.7-2,1.7h-4.3C446.1,265.9,445.3,265.1,445.2,264.1z"/>
			</g>
            <circle id="XMLID_33_" fill="#FFFFFF" cx="449.3" cy="279.1" r="7.1"/>
		</g>
	</g>
</g>
    <g id="STAR">
	<path id="XMLID_195_" fill="#FEC272" d="M189.7,141.2l1.8,3.7c0.2,0.5,0.7,0.8,1.2,0.8l4,0.6c1.3,0.2,1.8,1.7,0.8,2.6l-2.9,2.8
		c-0.4,0.4-0.5,0.9-0.4,1.4l0.7,4c0.2,1.2-1.1,2.2-2.2,1.6l-3.6-1.9c-0.4-0.2-1-0.2-1.4,0l-3.6,1.9c-1.1,0.6-2.4-0.4-2.2-1.6l0.7-4
		c0.1-0.5-0.1-1-0.4-1.4l-2.9-2.8c-0.9-0.9-0.4-2.4,0.8-2.6l4-0.6c0.5-0.1,0.9-0.4,1.2-0.8l1.8-3.7
		C187.5,140.1,189.1,140.1,189.7,141.2"/>
</g>
    <g id="BUBBLE_1">
	<path id="XMLID_23_" fill="#F0F6FF" d="M384.3,170.2c0,13.8-4,26.6-10.9,37.5c0,0,0,0,0,0c-2.5,5.8-15.1,30.3-57.9,49.9
		c-44.9,20.6-84.7,5.9-84.7,5.9s24.5-16.1,19.9-43c-3.6-21.2-6.1-36.4-5.9-49.2c0-0.4,0-0.7,0-1.1c0-38.5,31.2-69.7,69.7-69.7
		S384.3,131.7,384.3,170.2z"/>
</g>
    <g id="BUBBLE_2">
	<path id="XMLID_187_" fill="#C7DCF9" d="M238.1,216.5c-3.7-9.5-7.4-9.1-9.9-7.3c-2.3,1.7-2.8,7.6,0,13.2s5.6,5.2,8.4,3.7
		S239.8,220.9,238.1,216.5z"/>
</g>
    <g id="BUBBLE_3">
	<path id="XMLID_249_" fill="#C7DCF9" d="M361.6,237.5c-15.4,8.2-14,14.5-10.4,18.3c3.4,3.6,13.5,3.2,22.4-2.6s7.8-10.5,4.7-15
		C375.2,233.7,368.7,233.6,361.6,237.5z"/>
</g>
    <g id="Layer_23">
	<g id="XMLID_75_">
		<g id="XMLID_73_">
			<path id="XMLID_274_" fill="#99ADF9" d="M364.6,191.8c0,3.8-1.8,7.6-5.2,9.9c-7.4,5.2-19.2,12.9-32.2,19.7
				c-8.3,4.4-15.5,7.8-21.3,10.3c-4.8,2.1-10.1,1.7-14.4-0.7c-2.9-1.6-5.3-4.1-6.8-7.3c-1-2.2-1.6-4.6-1.6-7c0-2,0.4-4,1.1-6
				l0.4-1.1l17.2-43.6l-23,12.4c-6.4,3.4-14.3,1.2-18-5.1c-0.1-0.2-0.2-0.4-0.3-0.6c-1-2-1.5-4.1-1.5-6.2c0-4.4,2.2-8.8,6.2-11.3
				c7.3-4.7,17.9-11.1,30.5-17.8c24.2-12.9,36.2-11.3,39.6-4.8c3.4,6.6-16.1,61.8-16.1,61.8s26.1-13.1,28.9-14.1
				c6-2.3,12.7,0.5,15.4,6.3c0.6,1.3,0.9,2.7,1,4.1C364.6,191.2,364.6,191.5,364.6,191.8z"/>
            <path id="XMLID_267_" fill="#7D9AF9" d="M309.1,158.8c-5.8,14.3-19.5,47.2-24.3,50.9l17.2-43.6l-23,12.4
				c-6.4,3.5-14.5,1.2-18.1-5.2c0.2-0.2,0,0,0.2-0.2c2.3,1.1,6.4,2.1,12.5-0.9c11.4-5.4,24.4-12.5,31.9-16.6
				C307.6,154.5,310,156.6,309.1,158.8z"/>
            <path id="XMLID_264_" fill="#7D9AF9" d="M364.6,191.8c0,3.8-1.8,7.6-5.2,9.9c-7.4,5.2-19.2,12.9-32.2,19.7
				c-8.3,4.4-15.5,7.8-21.3,10.3c-4.8,2.1-10.1,1.7-14.4-0.7c0.9-0.2,1.8-0.4,2.6-0.7c4.5-1.5,24.8-12.2,44.7-22.9
				c13-7,21.8-12.6,25.7-16.4C364.6,191.2,364.6,191.5,364.6,191.8z"/>
		</g>
        <path id="XMLID_76_" opacity="0.49" fill="#FFFFFF" d="M314.2,131.6c-9,3-13.6,8.6-2.8,8s16.5-6.1,14.6-7.9
			C324.1,130,318.3,130.2,314.2,131.6z"/>
        <path id="XMLID_80_" opacity="0.49" fill="#FFFFFF" d="M348.7,182.6c-5.7,1.9-8.7,5.5-1.8,5.1c6.9-0.4,10.5-3.9,9.3-5
			C354.9,181.6,351.3,181.7,348.7,182.6z"/>
	</g>
</g>
</svg>
