<svg xmlns="http://www.w3.org/2000/svg" xmlns:xlink="http://www.w3.org/1999/xlink" viewBox="0 0 456.01 262.12">
    <defs>
        <style>
            .cls-1,.cls-2,.cls-28,.cls-3,.cls-4,.cls-5,.cls-6{fill:none;stroke-miterlimit:10;}.cls-1,.cls-2,.cls-3,.cls-4,.cls-5,.cls-6{stroke-width:2px;}.cls-1{stroke:url(#未命名的渐变_26);}.cls-2{stroke:url(#未命名的渐变_26-2);}.cls-3{stroke:url(#未命名的渐变_26-3);}.cls-4{stroke:url(#未命名的渐变_26-4);}.cls-5{stroke:url(#未命名的渐变_26-5);}.cls-6{stroke:url(#未命名的渐变_26-6);}.cls-10,.cls-11,.cls-12,.cls-7,.cls-9{opacity:0.4;}.cls-7{fill:url(#未命名的渐变_26-7);}.cls-8{opacity:0.7;}.cls-9{fill:url(#未命名的渐变_26-8);}.cls-10{fill:url(#未命名的渐变_26-9);}.cls-11{fill:url(#未命名的渐变_26-10);}.cls-12{fill:url(#未命名的渐变_26-11);}.cls-13{fill:#3ba7f5;}.cls-14{fill:#53bef5;}.cls-15{fill:#2d8ce9;}.cls-16{fill:#7798b9;}.cls-17{fill:#728cb9;}.cls-18{fill:#a4c0d9;}.cls-19{fill:#ffb056;}.cls-20{fill:#ebfcff;}.cls-21{fill:#257fba;}.cls-22{fill:#398eed;}.cls-23{fill:#e49056;}.cls-24{fill:#ffbf76;}.cls-25{fill:#f0dabc;}.cls-26{fill:#ffeed2;}.cls-27{fill:#fae6d2;}.cls-28{stroke:#4986d9;stroke-width:0.12px;}.cls-29{fill:#e55c5c;opacity:0.2;}
        </style>
        <linearGradient id="未命名的渐变_26" x1="1" y1="91.35" x2="1" y2="181.12" gradientUnits="userSpaceOnUse">
            <stop offset="0" stop-color="#81cfff"/>
            <stop offset="1" stop-color="#5ecfff" stop-opacity="0"/>
        </linearGradient>
        <linearGradient id="未命名的渐变_26-2" x1="455.01" y1="72.11" x2="455.01" y2="161.88" xlink:href="#未命名的渐变_26"/>
        <linearGradient id="未命名的渐变_26-3" x1="40.9" y1="143.88" x2="40.9" y2="199.51" xlink:href="#未命名的渐变_26"/>
        <linearGradient id="未命名的渐变_26-4" x1="64.97" y1="95.36" x2="64.97" y2="123.17" xlink:href="#未命名的渐变_26"/>
        <linearGradient id="未命名的渐变_26-5" x1="397.23" y1="104.2" x2="397.23" y2="132.02" xlink:href="#未命名的渐变_26"/>
        <linearGradient id="未命名的渐变_26-6" x1="424.75" y1="133.49" x2="424.75" y2="189.13" xlink:href="#未命名的渐变_26"/>
        <linearGradient id="未命名的渐变_26-7" x1="232.75" y1="224.43" x2="232.75" y2="262.12" xlink:href="#未命名的渐变_26"/>
        <linearGradient id="未命名的渐变_26-8" x1="349.36" y1="26.68" x2="349.36" y2="204.03" xlink:href="#未命名的渐变_26"/>
        <linearGradient id="未命名的渐变_26-9" x1="201.45" y1="55.61" x2="201.45" y2="204.03" xlink:href="#未命名的渐变_26"/>
        <linearGradient id="未命名的渐变_26-10" x1="122.98" y1="26.68" x2="122.98" y2="204.03" xlink:href="#未命名的渐变_26"/>
        <linearGradient id="未命名的渐变_26-11" x1="273.51" y1="0" x2="273.51" y2="209.54" xlink:href="#未命名的渐变_26"/>
    </defs>
    <title>开发中</title>
    <g id="图层_2" data-name="图层 2">
        <g id="图层_1-2" data-name="图层 1">
            <line class="cls-1" x1="1" y1="91.35" x2="1" y2="181.12"/>
            <line class="cls-2" x1="455.01" y1="72.11" x2="455.01" y2="161.88"/>
            <line class="cls-3" x1="40.9" y1="143.88" x2="40.9" y2="199.51"/>
            <line class="cls-4" x1="64.97" y1="95.36" x2="64.97" y2="123.17"/>
            <line class="cls-5" x1="397.23" y1="104.2" x2="397.23" y2="132.02"/>
            <line class="cls-6" x1="424.75" y1="133.49" x2="424.75" y2="189.13"/>
            <path class="cls-7" d="M412.28,262.12c-23-23-61-37.69-179.53-37.69S76.24,239.1,53.21,262.12Z"/>
            <g class="cls-8">
                <path class="cls-9"
                      d="M380.66,26.68H318.07a2.71,2.71,0,0,0-2.82,2.59V201.44a2.71,2.71,0,0,0,2.82,2.59h62.59a2.72,2.72,0,0,0,2.82-2.59V29.27A2.72,2.72,0,0,0,380.66,26.68ZM328.3,147a.9.9,0,0,1-.95.87h-3.6a.9.9,0,0,1-.95-.87V127.27a.91.91,0,0,1,.95-.87h3.6a.91.91,0,0,1,.95.87Zm0-30.23a.91.91,0,0,1-.95.87h-3.6a.91.91,0,0,1-.95-.87V97a.91.91,0,0,1,.95-.87h3.6a.91.91,0,0,1,.95.87Zm0-30.24a.91.91,0,0,1-.95.87h-3.6a.91.91,0,0,1-.95-.87V66.8a.91.91,0,0,1,.95-.87h3.6a.91.91,0,0,1,.95.87Zm0-30.24a.91.91,0,0,1-.95.87h-3.6a.91.91,0,0,1-.95-.87V36.56a.91.91,0,0,1,.95-.87h3.6a.91.91,0,0,1,.95.87ZM340,147a.9.9,0,0,1-.94.87h-3.61a.91.91,0,0,1-.95-.87V127.27a.92.92,0,0,1,.95-.87h3.61a.91.91,0,0,1,.94.87Zm0-30.23a.91.91,0,0,1-.94.87h-3.61a.92.92,0,0,1-.95-.87V97a.92.92,0,0,1,.95-.87h3.61A.91.91,0,0,1,340,97Zm0-30.24a.91.91,0,0,1-.94.87h-3.61a.92.92,0,0,1-.95-.87V66.8a.92.92,0,0,1,.95-.87h3.61a.91.91,0,0,1,.94.87Zm0-30.24a.91.91,0,0,1-.94.87h-3.61a.92.92,0,0,1-.95-.87V36.56a.92.92,0,0,1,.95-.87h3.61a.91.91,0,0,1,.94.87ZM351.7,147a.9.9,0,0,1-.94.87h-3.61a.9.9,0,0,1-.94-.87V127.27a.91.91,0,0,1,.94-.87h3.61a.91.91,0,0,1,.94.87Zm0-30.23a.91.91,0,0,1-.94.87h-3.61a.91.91,0,0,1-.94-.87V97a.91.91,0,0,1,.94-.87h3.61a.91.91,0,0,1,.94.87Zm0-30.24a.91.91,0,0,1-.94.87h-3.61a.91.91,0,0,1-.94-.87V66.8a.91.91,0,0,1,.94-.87h3.61a.91.91,0,0,1,.94.87Zm0-30.24a.91.91,0,0,1-.94.87h-3.61a.91.91,0,0,1-.94-.87V36.56a.91.91,0,0,1,.94-.87h3.61a.91.91,0,0,1,.94.87ZM363.4,147a.9.9,0,0,1-.94.87h-3.61a.9.9,0,0,1-.94-.87V127.27a.91.91,0,0,1,.94-.87h3.61a.91.91,0,0,1,.94.87Zm0-30.23a.91.91,0,0,1-.94.87h-3.61a.91.91,0,0,1-.94-.87V97a.91.91,0,0,1,.94-.87h3.61a.91.91,0,0,1,.94.87Zm0-30.24a.91.91,0,0,1-.94.87h-3.61a.91.91,0,0,1-.94-.87V66.8a.91.91,0,0,1,.94-.87h3.61a.91.91,0,0,1,.94.87Zm0-30.24a.91.91,0,0,1-.94.87h-3.61a.91.91,0,0,1-.94-.87V36.56a.91.91,0,0,1,.94-.87h3.61a.91.91,0,0,1,.94.87ZM375.11,147a.91.91,0,0,1-.95.87h-3.61a.9.9,0,0,1-.94-.87V127.27a.91.91,0,0,1,.94-.87h3.61a.92.92,0,0,1,.95.87Zm0-30.23a.92.92,0,0,1-.95.87h-3.61a.91.91,0,0,1-.94-.87V97a.91.91,0,0,1,.94-.87h3.61a.92.92,0,0,1,.95.87Zm0-30.24a.92.92,0,0,1-.95.87h-3.61a.91.91,0,0,1-.94-.87V66.8a.91.91,0,0,1,.94-.87h3.61a.92.92,0,0,1,.95.87Zm0-30.24a.92.92,0,0,1-.95.87h-3.61a.91.91,0,0,1-.94-.87V36.56a.91.91,0,0,1,.94-.87h3.61a.92.92,0,0,1,.95.87Z"/>
                <path class="cls-10"
                      d="M231.1,55.61H171.8A2.71,2.71,0,0,0,169,58.2V201.44A2.71,2.71,0,0,0,171.8,204h59.3a2.71,2.71,0,0,0,2.82-2.59V58.2A2.71,2.71,0,0,0,231.1,55.61ZM182.47,159.37a1.16,1.16,0,0,1-1.2,1.11h-5.4a1.16,1.16,0,0,1-1.2-1.11v-5.22a1.15,1.15,0,0,1,1.2-1.1h5.4a1.15,1.15,0,0,1,1.2,1.1Zm0-12.88a1.15,1.15,0,0,1-1.2,1.1h-5.4a1.15,1.15,0,0,1-1.2-1.1v-5.22a1.16,1.16,0,0,1,1.2-1.11h5.4a1.16,1.16,0,0,1,1.2,1.11Zm0-12.89a1.16,1.16,0,0,1-1.2,1.11h-5.4a1.16,1.16,0,0,1-1.2-1.11v-5.22a1.15,1.15,0,0,1,1.2-1.1h5.4a1.15,1.15,0,0,1,1.2,1.1Zm0-12.88a1.15,1.15,0,0,1-1.2,1.1h-5.4a1.15,1.15,0,0,1-1.2-1.1V115.5a1.16,1.16,0,0,1,1.2-1.11h5.4a1.16,1.16,0,0,1,1.2,1.11Zm0-12.89a1.16,1.16,0,0,1-1.2,1.11h-5.4a1.16,1.16,0,0,1-1.2-1.11v-5.21a1.15,1.15,0,0,1,1.2-1.11h5.4a1.15,1.15,0,0,1,1.2,1.11Zm0-12.88a1.15,1.15,0,0,1-1.2,1.1h-5.4a1.15,1.15,0,0,1-1.2-1.1V89.73a1.16,1.16,0,0,1,1.2-1.11h5.4a1.16,1.16,0,0,1,1.2,1.11Zm0-12.89a1.16,1.16,0,0,1-1.2,1.11h-5.4a1.16,1.16,0,0,1-1.2-1.11V76.85a1.15,1.15,0,0,1,1.2-1.11h5.4a1.15,1.15,0,0,1,1.2,1.11Zm0-12.88a1.15,1.15,0,0,1-1.2,1.1h-5.4a1.15,1.15,0,0,1-1.2-1.1V64a1.16,1.16,0,0,1,1.2-1.11h5.4a1.16,1.16,0,0,1,1.2,1.11Zm10.08,90.19a1.16,1.16,0,0,1-1.2,1.11H186a1.16,1.16,0,0,1-1.21-1.11v-5.22a1.16,1.16,0,0,1,1.21-1.1h5.4a1.15,1.15,0,0,1,1.2,1.1Zm0-12.88a1.15,1.15,0,0,1-1.2,1.1H186a1.16,1.16,0,0,1-1.21-1.1v-5.22a1.16,1.16,0,0,1,1.21-1.11h5.4a1.16,1.16,0,0,1,1.2,1.11Zm0-12.89a1.16,1.16,0,0,1-1.2,1.11H186a1.16,1.16,0,0,1-1.21-1.11v-5.22a1.16,1.16,0,0,1,1.21-1.1h5.4a1.15,1.15,0,0,1,1.2,1.1Zm0-12.88a1.15,1.15,0,0,1-1.2,1.1H186a1.16,1.16,0,0,1-1.21-1.1V115.5a1.16,1.16,0,0,1,1.21-1.11h5.4a1.16,1.16,0,0,1,1.2,1.11Zm0-12.89a1.16,1.16,0,0,1-1.2,1.11H186a1.16,1.16,0,0,1-1.21-1.11v-5.21a1.16,1.16,0,0,1,1.21-1.11h5.4a1.15,1.15,0,0,1,1.2,1.11Zm0-12.88a1.15,1.15,0,0,1-1.2,1.1H186a1.16,1.16,0,0,1-1.21-1.1V89.73A1.16,1.16,0,0,1,186,88.62h5.4a1.16,1.16,0,0,1,1.2,1.11Zm0-12.89a1.16,1.16,0,0,1-1.2,1.11H186a1.16,1.16,0,0,1-1.21-1.11V76.85A1.16,1.16,0,0,1,186,75.74h5.4a1.15,1.15,0,0,1,1.2,1.11Zm0-12.88a1.15,1.15,0,0,1-1.2,1.1H186a1.16,1.16,0,0,1-1.21-1.1V64A1.16,1.16,0,0,1,186,62.85h5.4a1.16,1.16,0,0,1,1.2,1.11Zm10.08,90.19a1.16,1.16,0,0,1-1.21,1.11H196a1.16,1.16,0,0,1-1.2-1.11v-5.22a1.15,1.15,0,0,1,1.2-1.1h5.4a1.16,1.16,0,0,1,1.21,1.1Zm0-12.88a1.16,1.16,0,0,1-1.21,1.1H196a1.15,1.15,0,0,1-1.2-1.1v-5.22a1.16,1.16,0,0,1,1.2-1.11h5.4a1.16,1.16,0,0,1,1.21,1.11Zm0-12.89a1.16,1.16,0,0,1-1.21,1.11H196a1.16,1.16,0,0,1-1.2-1.11v-5.22a1.15,1.15,0,0,1,1.2-1.1h5.4a1.16,1.16,0,0,1,1.21,1.1Zm0-12.88a1.16,1.16,0,0,1-1.21,1.1H196a1.15,1.15,0,0,1-1.2-1.1V115.5a1.16,1.16,0,0,1,1.2-1.11h5.4a1.16,1.16,0,0,1,1.21,1.11Zm0-12.89a1.16,1.16,0,0,1-1.21,1.11H196a1.16,1.16,0,0,1-1.2-1.11v-5.21a1.15,1.15,0,0,1,1.2-1.11h5.4a1.16,1.16,0,0,1,1.21,1.11Zm0-12.88a1.16,1.16,0,0,1-1.21,1.1H196a1.15,1.15,0,0,1-1.2-1.1V89.73a1.16,1.16,0,0,1,1.2-1.11h5.4a1.16,1.16,0,0,1,1.21,1.11Zm0-12.89a1.16,1.16,0,0,1-1.21,1.11H196a1.16,1.16,0,0,1-1.2-1.11V76.85a1.15,1.15,0,0,1,1.2-1.11h5.4a1.16,1.16,0,0,1,1.21,1.11Zm0-12.88a1.16,1.16,0,0,1-1.21,1.1H196a1.15,1.15,0,0,1-1.2-1.1V64a1.16,1.16,0,0,1,1.2-1.11h5.4A1.16,1.16,0,0,1,202.63,64Zm25.21,90.19a1.16,1.16,0,0,1-1.2,1.11H206.1a1.16,1.16,0,0,1-1.2-1.11v-5.22a1.15,1.15,0,0,1,1.2-1.1h20.54a1.15,1.15,0,0,1,1.2,1.1Zm0-12.88a1.15,1.15,0,0,1-1.2,1.1H206.1a1.15,1.15,0,0,1-1.2-1.1v-5.22a1.16,1.16,0,0,1,1.2-1.11h20.54a1.16,1.16,0,0,1,1.2,1.11Zm0-12.89a1.16,1.16,0,0,1-1.2,1.11H206.1a1.16,1.16,0,0,1-1.2-1.11v-5.22a1.15,1.15,0,0,1,1.2-1.1h20.54a1.15,1.15,0,0,1,1.2,1.1Zm0-12.88a1.15,1.15,0,0,1-1.2,1.1H206.1a1.15,1.15,0,0,1-1.2-1.1V115.5a1.16,1.16,0,0,1,1.2-1.11h20.54a1.16,1.16,0,0,1,1.2,1.11Zm0-12.89a1.16,1.16,0,0,1-1.2,1.11H206.1a1.16,1.16,0,0,1-1.2-1.11v-5.21a1.15,1.15,0,0,1,1.2-1.11h20.54a1.15,1.15,0,0,1,1.2,1.11Zm0-12.88a1.15,1.15,0,0,1-1.2,1.1H206.1a1.15,1.15,0,0,1-1.2-1.1V89.73a1.16,1.16,0,0,1,1.2-1.11h20.54a1.16,1.16,0,0,1,1.2,1.11Zm0-12.89a1.16,1.16,0,0,1-1.2,1.11H206.1a1.16,1.16,0,0,1-1.2-1.11V76.85a1.15,1.15,0,0,1,1.2-1.11h20.54a1.15,1.15,0,0,1,1.2,1.11Zm0-12.88a1.15,1.15,0,0,1-1.2,1.1H206.1a1.15,1.15,0,0,1-1.2-1.1V64a1.16,1.16,0,0,1,1.2-1.11h20.54a1.16,1.16,0,0,1,1.2,1.11Z"/>
                <path class="cls-11"
                      d="M161.13,26.68H84.83A2.71,2.71,0,0,0,82,29.27V201.44A2.71,2.71,0,0,0,84.83,204h76.3a2.71,2.71,0,0,0,2.82-2.59V29.27A2.71,2.71,0,0,0,161.13,26.68ZM154.34,161a1.16,1.16,0,0,1-1.2,1.11H92.83A1.16,1.16,0,0,1,91.62,161v-5.21a1.16,1.16,0,0,1,1.21-1.11h60.31a1.15,1.15,0,0,1,1.2,1.11Zm0-14.67a1.15,1.15,0,0,1-1.2,1.1H92.83a1.16,1.16,0,0,1-1.21-1.1v-5.22A1.16,1.16,0,0,1,92.83,140h60.31a1.16,1.16,0,0,1,1.2,1.11Zm0-14.68a1.16,1.16,0,0,1-1.2,1.11H92.83a1.16,1.16,0,0,1-1.21-1.11v-5.22a1.16,1.16,0,0,1,1.21-1.1h60.31a1.15,1.15,0,0,1,1.2,1.1Zm0-14.68a1.16,1.16,0,0,1-1.2,1.11H92.83a1.16,1.16,0,0,1-1.21-1.11v-5.21a1.16,1.16,0,0,1,1.21-1.11h60.31a1.15,1.15,0,0,1,1.2,1.11Zm0-14.67a1.15,1.15,0,0,1-1.2,1.1H92.83a1.16,1.16,0,0,1-1.21-1.1V97a1.16,1.16,0,0,1,1.21-1.11h60.31a1.16,1.16,0,0,1,1.2,1.11Zm0-14.68a1.16,1.16,0,0,1-1.2,1.11H92.83a1.16,1.16,0,0,1-1.21-1.11V82.35a1.16,1.16,0,0,1,1.21-1.1h60.31a1.15,1.15,0,0,1,1.2,1.1Zm0-14.68a1.16,1.16,0,0,1-1.2,1.11H92.83a1.16,1.16,0,0,1-1.21-1.11V67.68a1.16,1.16,0,0,1,1.21-1.11h60.31a1.15,1.15,0,0,1,1.2,1.11Zm0-14.67a1.15,1.15,0,0,1-1.2,1.1H92.83a1.16,1.16,0,0,1-1.21-1.1V53a1.16,1.16,0,0,1,1.21-1.11h60.31a1.16,1.16,0,0,1,1.2,1.11Zm0-14.68a1.16,1.16,0,0,1-1.2,1.11H92.83a1.16,1.16,0,0,1-1.21-1.11V38.32a1.16,1.16,0,0,1,1.21-1.1h60.31a1.15,1.15,0,0,1,1.2,1.1Z"/>
                <path class="cls-12"
                      d="M306.21,0H240.82a2.51,2.51,0,0,0-2.42,2.59V206.94a2.51,2.51,0,0,0,2.42,2.6h65.39a2.51,2.51,0,0,0,2.41-2.6V2.59A2.51,2.51,0,0,0,306.21,0Zm-5.82,134.28a1.06,1.06,0,0,1-1,1.1H247.67a1.06,1.06,0,0,1-1-1.1v-5.22a1.07,1.07,0,0,1,1-1.11h51.69a1.07,1.07,0,0,1,1,1.11Zm0-14.68a1.07,1.07,0,0,1-1,1.11H247.67a1.07,1.07,0,0,1-1-1.11v-5.22a1.06,1.06,0,0,1,1-1.1h51.69a1.06,1.06,0,0,1,1,1.1Zm0-14.68a1.07,1.07,0,0,1-1,1.11H247.67a1.07,1.07,0,0,1-1-1.11V99.71a1.07,1.07,0,0,1,1-1.11h51.69a1.07,1.07,0,0,1,1,1.11Zm0-14.67a1.06,1.06,0,0,1-1,1.1H247.67a1.06,1.06,0,0,1-1-1.1V85a1.07,1.07,0,0,1,1-1.11h51.69a1.07,1.07,0,0,1,1,1.11Zm0-14.68a1.07,1.07,0,0,1-1,1.11H247.67a1.07,1.07,0,0,1-1-1.11V70.35a1.06,1.06,0,0,1,1-1.1h51.69a1.06,1.06,0,0,1,1,1.1Zm0-14.68a1.07,1.07,0,0,1-1,1.11H247.67a1.07,1.07,0,0,1-1-1.11V55.68a1.07,1.07,0,0,1,1-1.11h51.69a1.07,1.07,0,0,1,1,1.11Zm0-14.67a1.06,1.06,0,0,1-1,1.1H247.67a1.06,1.06,0,0,1-1-1.1V41a1.07,1.07,0,0,1,1-1.11h51.69a1.07,1.07,0,0,1,1,1.11Zm0-14.68a1.07,1.07,0,0,1-1,1.11H247.67a1.07,1.07,0,0,1-1-1.11V26.32a1.06,1.06,0,0,1,1-1.1h51.69a1.06,1.06,0,0,1,1,1.1Zm0-14.68a1.07,1.07,0,0,1-1,1.11H247.67a1.07,1.07,0,0,1-1-1.11V11.65a1.07,1.07,0,0,1,1-1.11h51.69a1.07,1.07,0,0,1,1,1.11Z"/>
            </g>
            <path class="cls-13"
                  d="M183.16,83.07a36,36,0,1,0,36,36A36,36,0,0,0,183.16,83.07Zm1.52,8.36a27.65,27.65,0,0,1,21.65,12.5l-10,5.75a16.19,16.19,0,0,0-11.69-6.75Zm-3,0v11.5A16.19,16.19,0,0,0,170,109.68l-10-5.75A27.68,27.68,0,0,1,181.64,91.43Zm-26.15,27.63a27.59,27.59,0,0,1,3-12.5l10,5.75a16.23,16.23,0,0,0,0,13.5l-10,5.75A27.59,27.59,0,0,1,155.49,119.06Zm26.15,27.63A27.68,27.68,0,0,1,160,134.19l10-5.75a16.19,16.19,0,0,0,11.69,6.75Zm0-19.76a8,8,0,0,1-4.53-2.62,8.23,8.23,0,0,1-1.52-2.63,8,8,0,0,1,0-5.24,8.23,8.23,0,0,1,1.52-2.63,8,8,0,0,1,4.53-2.61,7.78,7.78,0,0,1,3,0,8,8,0,0,1,4.53,2.61,8,8,0,0,1,0,10.5,8,8,0,0,1-4.53,2.62,8.42,8.42,0,0,1-1.52.14A8.51,8.51,0,0,1,181.64,126.93Zm3,19.76v-11.5a16.19,16.19,0,0,0,11.69-6.75l10,5.75A27.65,27.65,0,0,1,184.68,146.69Zm23.17-15.13-10-5.75a16.23,16.23,0,0,0,0-13.5l10-5.75a27.71,27.71,0,0,1,0,25Z"/>
            <path class="cls-13" d="M152.32,151.4a46.16,46.16,0,0,0,4.35,3.65l5.59-6.66a36.17,36.17,0,0,1-4.35-3.66Z"/>
            <path class="cls-13" d="M165.24,160a45.84,45.84,0,0,0,5.34,1.94l3-8.18a35,35,0,0,1-5.34-1.94Z"/>
            <path class="cls-13"
                  d="M147.31,122.5,138.75,124a45.19,45.19,0,0,0,1,5.6l8.56-1.51A35.83,35.83,0,0,1,147.31,122.5Z"/>
            <path class="cls-13"
                  d="M153.49,98.65,146,94.3a45.28,45.28,0,0,0-2.85,4.92l7.53,4.35A37.49,37.49,0,0,1,153.49,98.65Z"/>
            <path class="cls-13"
                  d="M180.32,155v8.7c.94.06,1.89.09,2.84.09s1.9,0,2.84-.09V155c-.93.08-1.88.11-2.84.11S181.26,155,180.32,155Z"/>
            <path class="cls-13"
                  d="M148.29,110l-8.56-1.51a44.55,44.55,0,0,0-1,5.6l8.56,1.51A35.42,35.42,0,0,1,148.29,110Z"/>
            <path class="cls-13"
                  d="M219,115.63l8.57-1.51a44.55,44.55,0,0,0-1-5.6L218,110A35.42,35.42,0,0,1,219,115.63Z"/>
            <path class="cls-13"
                  d="M192.77,153.77l3,8.18a46.52,46.52,0,0,0,5.34-1.94l-3-8.18A34.66,34.66,0,0,1,192.77,153.77Z"/>
            <path class="cls-13"
                  d="M218,128.1l8.57,1.51a45.19,45.19,0,0,0,1-5.6L219,122.5A35.83,35.83,0,0,1,218,128.1Z"/>
            <path class="cls-13"
                  d="M212.83,139.47l7.54,4.35a44.28,44.28,0,0,0,2.84-4.92l-7.53-4.35A34.8,34.8,0,0,1,212.83,139.47Z"/>
            <path class="cls-13"
                  d="M204.06,148.39l5.59,6.66A46.16,46.16,0,0,0,214,151.4l-5.59-6.67A35.41,35.41,0,0,1,204.06,148.39Z"/>
            <path class="cls-13"
                  d="M150.64,134.55l-7.53,4.35a44.35,44.35,0,0,0,2.85,4.92l7.53-4.35A36.85,36.85,0,0,1,150.64,134.55Z"/>
            <path class="cls-13" d="M201.09,78.12a44.75,44.75,0,0,0-5.34-2l-3,8.18a35.73,35.73,0,0,1,5.34,1.94Z"/>
            <path class="cls-13"
                  d="M162.26,89.73l-5.59-6.66a44.79,44.79,0,0,0-4.35,3.66l5.59,6.66A37.12,37.12,0,0,1,162.26,89.73Z"/>
            <path class="cls-13" d="M214,86.73a44.79,44.79,0,0,0-4.35-3.66l-5.59,6.66a36.31,36.31,0,0,1,4.35,3.66Z"/>
            <path class="cls-13"
                  d="M215.68,103.57l7.53-4.35a45.2,45.2,0,0,0-2.84-4.92l-7.54,4.35A35.37,35.37,0,0,1,215.68,103.57Z"/>
            <path class="cls-13"
                  d="M173.55,84.35l-3-8.18a44.13,44.13,0,0,0-5.34,2l3,8.17A36.14,36.14,0,0,1,173.55,84.35Z"/>
            <path class="cls-13"
                  d="M186,83.16v-8.7c-.94,0-1.88-.08-2.84-.08s-1.9,0-2.84.08v8.7c.94-.07,1.89-.11,2.84-.11S185.07,83.09,186,83.16Z"/>
            <path class="cls-14"
                  d="M315,95.08c0-.78,0-1.56-.07-2.33l13.18-2.67a52.88,52.88,0,0,0-1.46-8.31l-13.3,2a38.88,38.88,0,0,0-1.59-4.39l11.47-7A52.22,52.22,0,0,0,319,65.07l-11.81,6.42a39.35,39.35,0,0,0-3-3.57l8.38-10.52A53.13,53.13,0,0,0,306.13,52l-8.9,10.07a40.34,40.34,0,0,0-4-2.33L297.46,47a51.91,51.91,0,0,0-7.92-2.89L284.62,56.6a38.62,38.62,0,0,0-4.59-.81l-.35-13.44c-1.39-.11-2.8-.16-4.21-.16s-2.83.05-4.22.16l-.35,13.44a38.62,38.62,0,0,0-4.59.81l-4.92-12.52A52.3,52.3,0,0,0,253.47,47l4.27,12.75a40.34,40.34,0,0,0-4,2.33L244.8,52a53.13,53.13,0,0,0-6.46,5.42l8.38,10.52a39.35,39.35,0,0,0-3,3.57l-11.81-6.42a52.22,52.22,0,0,0-4.23,7.29l11.47,7a38.88,38.88,0,0,0-1.59,4.39l-13.3-2a52.88,52.88,0,0,0-1.46,8.31L236,92.75c0,.77-.07,1.55-.07,2.33s0,1.56.07,2.33l-13.18,2.68a52.75,52.75,0,0,0,1.46,8.3l13.3-2a38.72,38.72,0,0,0,1.59,4.38l-11.47,7a52.92,52.92,0,0,0,4.23,7.3l11.81-6.42a39.35,39.35,0,0,0,3,3.57l-8.38,10.51a53.21,53.21,0,0,0,6.46,5.43l8.9-10.08a38.57,38.57,0,0,0,4,2.34l-4.27,12.75a52.27,52.27,0,0,0,7.92,2.88l4.92-12.51a40.74,40.74,0,0,0,4.59.8l.35,13.44c1.39.11,2.8.17,4.22.17s2.82-.06,4.21-.17l.35-13.44a40.74,40.74,0,0,0,4.59-.8l4.92,12.51a51.88,51.88,0,0,0,7.92-2.88l-4.27-12.75a38.57,38.57,0,0,0,4-2.34l8.9,10.08a53.21,53.21,0,0,0,6.46-5.43l-8.38-10.51a39.35,39.35,0,0,0,3-3.57L319,125.1a52.92,52.92,0,0,0,4.23-7.3l-11.47-7a38.72,38.72,0,0,0,1.59-4.38l13.3,2a52.75,52.75,0,0,0,1.46-8.3L315,97.41C315,96.64,315,95.86,315,95.08ZM275.47,109a13.92,13.92,0,1,1,13.92-13.92A13.92,13.92,0,0,1,275.47,109Z"/>
            <path class="cls-15"
                  d="M255.6,166.39l-2.67-1.56a1.87,1.87,0,0,1-.83-2.23,16.84,16.84,0,0,0,.56-2,1.89,1.89,0,0,1,1.87-1.51h3.08c0-.42.06-.85.07-1.27v-.73c0-.44,0-.88-.06-1.31l-3.1,0a1.88,1.88,0,0,1-1.83-1.52,18.52,18.52,0,0,0-.54-2.07,1.86,1.86,0,0,1,.85-2.22l2.69-1.54c-.18-.39-.38-.79-.59-1.17l-.36-.63c-.22-.37-.45-.73-.68-1.08L251.39,147a1.91,1.91,0,0,1-2.37-.41,17.8,17.8,0,0,0-1.5-1.51,1.88,1.88,0,0,1-.37-2.35l1.56-2.67c-.45-.31-.91-.61-1.4-.89s-1-.55-1.46-.79l-1.56,2.67a1.87,1.87,0,0,1-2.24.83,16.22,16.22,0,0,0-2-.56,1.9,1.9,0,0,1-1.52-1.87l0-3.08c-.42,0-.85-.06-1.27-.07h-.73c-.44,0-.88,0-1.32.05v3.1a1.88,1.88,0,0,1-1.52,1.83,16.62,16.62,0,0,0-2.07.55,1.88,1.88,0,0,1-2.22-.86l-1.54-2.69c-.4.18-.79.38-1.17.59l-.63.36q-.56.33-1.08.69l1.52,2.68a1.9,1.9,0,0,1-.4,2.37,16.33,16.33,0,0,0-1.51,1.49,1.88,1.88,0,0,1-2.35.37l-2.67-1.56c-.32.45-.61.92-.9,1.4h0c-.28.48-.54,1-.78,1.46l2.67,1.56a1.87,1.87,0,0,1,.83,2.24,16.36,16.36,0,0,0-.56,2.05,1.91,1.91,0,0,1-1.87,1.51l-3.08,0c0,.43-.06.85-.07,1.27v.73q0,.66.06,1.32l3.1,0a1.87,1.87,0,0,1,1.83,1.52,17.8,17.8,0,0,0,.54,2.06,1.88,1.88,0,0,1-.85,2.23l-2.69,1.53c.18.4.38.79.59,1.18l.36.63c.22.36.45.72.68,1.07l2.68-1.52a1.89,1.89,0,0,1,2.37.4,16.44,16.44,0,0,0,1.5,1.51,1.88,1.88,0,0,1,.37,2.35l-1.56,2.67c.45.32.91.62,1.4.9s1,.54,1.46.78l1.56-2.67a1.89,1.89,0,0,1,2.24-.83,15.07,15.07,0,0,0,2,.56,1.91,1.91,0,0,1,1.52,1.87l0,3.09c.42,0,.85.06,1.27.07H237c.44,0,.88,0,1.32-.06v-3.09a1.88,1.88,0,0,1,1.52-1.84,16.57,16.57,0,0,0,2.07-.54,1.9,1.9,0,0,1,2.23.85l1.53,2.7q.6-.28,1.17-.6l.63-.36c.37-.22.73-.44,1.08-.68L247,171.93a1.89,1.89,0,0,1,.4-2.37,15.26,15.26,0,0,0,1.51-1.5,1.88,1.88,0,0,1,2.35-.37l2.67,1.57c.32-.46.61-.92.9-1.4h0C255.1,167.37,255.36,166.89,255.6,166.39ZM241,150.18a1.4,1.4,0,1,1,1.81-.47A1.4,1.4,0,0,1,241,150.18Zm-3,7.73a1.4,1.4,0,1,1-.47-1.8A1.4,1.4,0,0,1,238,157.91Zm-11.54.59a1.4,1.4,0,1,1,1.81-.48A1.4,1.4,0,0,1,226.43,158.5Zm3.1-5.44a4.81,4.81,0,1,1,6.59-1.72A4.87,4.87,0,0,1,229.53,153.06Zm-.09,16.77a4.82,4.82,0,1,1,6.58-1.72A4.82,4.82,0,0,1,229.44,169.83ZM240.93,167a1.39,1.39,0,1,1,1.8-.47A1.39,1.39,0,0,1,240.93,167Zm3.12-5.47a4.82,4.82,0,0,1-1.73-6.59,4.88,4.88,0,0,1,6.59-1.73,4.82,4.82,0,0,1-4.86,8.32Z"/>
            <polygon class="cls-16" points="318.66 225.37 319.65 228.74 302.95 229.82 302.09 226.6 318.66 225.37"/>
            <polygon class="cls-16" points="313.14 206.61 314.2 210.22 297.71 210.22 296.74 206.61 313.14 206.61"/>
            <polygon class="cls-16" points="308.26 190 309.06 192.72 292.68 191.39 291.93 188.6 308.26 190"/>
            <polygon class="cls-16" points="303.44 173.61 304.26 176.4 288.02 173.99 287.26 171.13 303.44 173.61"/>
            <polygon class="cls-16" points="299.11 158.87 300.01 161.93 283.85 158.4 283.21 156 299.11 158.87"/>
            <polygon class="cls-16" points="295.05 145.06 295.98 148.25 280.06 144.21 279.46 141.99 295.05 145.06"/>
            <polygon class="cls-17"
                     points="290.44 120.62 325.45 235.84 321.74 235.84 319.65 228.74 318.66 225.37 314.2 210.22 313.14 206.61 309.06 192.72 308.26 190 304.26 176.4 303.44 173.61 300.01 161.93 299.11 158.87 295.98 148.25 295.05 145.06 292.04 134.82 291.46 132.84 287.86 120.62 290.44 120.62"/>
            <polygon class="cls-16"
                     points="291.46 132.84 292.04 134.82 276.5 130.9 276.5 130.9 275.85 128.48 291.46 132.84"/>
            <polygon class="cls-18"
                     points="297.71 210.22 302.09 226.6 302.95 229.82 304.56 235.84 300.85 235.84 271.17 120.62 273.75 120.62 275.85 128.48 276.5 130.9 276.5 130.9 279.46 141.99 280.06 144.21 283.21 156 283.85 158.4 287.26 171.13 288.02 173.99 291.93 188.6 292.68 191.39 296.74 206.61 297.71 210.22"/>
            <path class="cls-19"
                  d="M321.9,225.09c.37.56,1.1,1.95.75,2.94h0a1.46,1.46,0,0,1-.9.87c-1.84.73-3.15,1.16-3.81-.17a4.4,4.4,0,0,0-2.05-2.32c-1-.63-3.84-.21-4.13-.54a1.84,1.84,0,0,1-.42-1.4,2.47,2.47,0,0,1,.3-1c.63-1.22,1.48-2,2.14-2.09a3.61,3.61,0,0,1,1.51.34l.19.64.3-.07c.16.19.53.21.7.83s.91,1,1.25.64.06-.79.38-.89,1.1-.14,1.88-.2l1.13-.08A9.32,9.32,0,0,0,321.9,225.09Z"/>
            <path class="cls-20"
                  d="M317.94,228.74c.66,1.33,2,.9,3.81.17a1.46,1.46,0,0,0,.9-.87c-.1.66-.26,1.2-.82,1.45a7.12,7.12,0,0,1-3.63.33c-.82-.34-1.24-1.18-1.94-2.06a4,4,0,0,0-2.35-1.34c-.42,0-2.18.24-2.72-.09s0-1.26.14-1.85h0a1.84,1.84,0,0,0,.42,1.4c.29.33,3.11-.09,4.13.54A4.4,4.4,0,0,1,317.94,228.74Z"/>
            <path class="cls-20"
                  d="M304.09,210.39a2.37,2.37,0,0,1-2.4-.89c-.53-.48-1.95-2.78-2.57-3s-.6,0-1.3.14-.42-.37-.43-1a2.86,2.86,0,0,0,0,.3c.09.29.38.49,1,0s.91-.58,1.43-.13,2.26,3.41,3.14,3.94,1.9,0,3.09-.77c.75-.52.94-1,.9-1.49a2.56,2.56,0,0,1-.2,1.69A6.74,6.74,0,0,1,304.09,210.39Z"/>
            <path class="cls-19"
                  d="M298.38,205.9c-.58.54-.87.34-1,0a2.86,2.86,0,0,1,0-.3c-.05-.85.13-3.07,2.28-3l1,2.15.73-.34.28.61a1.39,1.39,0,0,1,1.46-.08c0-.55-.13-1-.14-1.29a.56.56,0,0,1,.09-.4,5.92,5.92,0,0,1,1.28-.77h0a1.69,1.69,0,0,1,.72-.22c.37.59.34,1.78.74,2s.6,1.21.87,2.15a4.52,4.52,0,0,1,.21.93h0c0,.51-.15,1-.9,1.49-1.19.81-2.2,1.31-3.09.77s-2.62-3.5-3.14-3.94S299,205.36,298.38,205.9Z"/>
            <polygon class="cls-21"
                     points="315.29 221.75 309.06 200.32 307.74 184.01 315.52 180.55 315.21 200.32 319.65 221.5 315.78 222.32 315.48 222.39 315.29 221.75"/>
            <path class="cls-22"
                  d="M315,175l.52,5.55a2,2,0,0,1-1.58,2.15l-6.2,1.31-9.05,1.91,5.71,16.65h0a5.92,5.92,0,0,0-1.28.77.56.56,0,0,0-.09.4l-1.6.76-.73.34-1-2.15-8.86-18.49a1.71,1.71,0,0,1,.77-2.36l13.82-6.65.11-1C307.05,175,309.88,175.74,315,175Z"/>
            <path class="cls-23" d="M310.63,148c1.28-.16,3.5,2.18,3.34,5.77h0A21,21,0,0,0,310.63,148Z"/>
            <path class="cls-24"
                  d="M309.21,151.24c3,4.95-.18,5.31-2.06,5.92a35,35,0,0,1-4.08.45l-2.17.15-.42-2.45-.85-4.88a25.9,25.9,0,0,1,4.82-.6C306.39,149.79,308.37,150.08,309.21,151.24Z"/>
            <path class="cls-19"
                  d="M309.21,151.24c-.84-1.16-2.82-1.45-4.76-1.41l.13-.42h0a6.12,6.12,0,0,0,5.18-1.62l.39-.35s.17.19.46.55a21,21,0,0,1,3.34,5.77,13.81,13.81,0,0,1,.75,3.12,117.36,117.36,0,0,1,1,18L315,175c-5.12.74-7.95,0-9.49-.85a3.67,3.67,0,0,1-1.76-1.78l-.13-2.94-.31-6.58-.24-5.17v-.07a35,35,0,0,0,4.08-.45C309,156.55,312.23,156.19,309.21,151.24Z"/>
            <path class="cls-25"
                  d="M320,222.7h0c-.78.06-1.68.15-1.88.2s-.15.49-.38.89-1.08,0-1.25-.64-.54-.64-.7-.83l3.87-.82Z"/>
            <path class="cls-25" d="M301.43,204.5l1.6-.76c0,.31.13.74.14,1.29a1.39,1.39,0,0,0-1.46.08Z"/>
            <path class="cls-26"
                  d="M299.63,150.43l.85,4.88-6.91-1.52L284.11,144c-.56-1.1-2.48-1.8-3.41-2-.48-3.37,4.61-2.59,5.1-2.32s.1,1.73.11,2.32l8.8,8.1Z"/>
            <path class="cls-27"
                  d="M303.31,162.85l.31,6.58s-5-7.55-5.38-8c-.62.21-1.25-.15-2.17-.59s-1.7-.31-1.7-1.2c0-.47.87-.33,1.38-.1a6.38,6.38,0,0,0-1.54-1.64c.24-1.49,3.44-2,4.77-1.24a7.42,7.42,0,0,0,.76,3C299.87,160.2,303.31,162.85,303.31,162.85Z"/>
            <path class="cls-26"
                  d="M308.34,144.67a5.4,5.4,0,0,0,1.11,2.78l.33.35a6.12,6.12,0,0,1-5.18,1.62h0l.43-1.26c.4-.17-.13-1.36-.45-1.83.16,0,.32,0,.48-.06a4.74,4.74,0,0,0,3-1.62Z"/>
            <path class="cls-26"
                  d="M305,146.26c-.16,0-.32.05-.48.06a4.08,4.08,0,0,1-1.39-.06,3,3,0,0,1-2.16-2.52c-.34-.49-1-.2-1-.93.06-.89,1.13-1.23,1.28-2.88a4.18,4.18,0,0,1,3.8-3.33c2.21,0,4,2.21,4,4.94a4.47,4.47,0,0,1-4,4.72Z"/>
            <path class="cls-28"
                  d="M297.39,205.65c0,.64-.27,1.14.43,1s.69-.35,1.3-.14,2,2.5,2.57,3a2.37,2.37,0,0,0,2.4.89,6.74,6.74,0,0,0,2.65-1.25,2.56,2.56,0,0,0,.2-1.69h0"/>
            <path class="cls-28"
                  d="M311.33,224.48c-.13.59-.68,1.52-.14,1.85s2.3,0,2.72.09a4,4,0,0,1,2.35,1.34c.7.88,1.12,1.72,1.94,2.06a7.12,7.12,0,0,0,3.63-.33c.56-.25.72-.79.82-1.45h0"/>
            <path d="M300.9,138.55c-.08.49-.21,1.21.34,1.41,1,.46,1.79-.42,2.31-.21s1,.24,1,.72.84,1.08.82,1.31a1,1,0,0,0,.15.79c.28.53.76.3,1.17.73s.23.73.47.81.66,0,.78.1.09.64.66.49.64-.64.72-1.14,1-.9,1.32-1.23,2.05-1.75.83-4.89a4.68,4.68,0,0,0-6-2.76,3,3,0,0,0-2.94-.29c-1.38.92-.87,2.11-1.39,2.55s-.69.25-1.15.09-.79-.1-.88.16a1,1,0,0,0,.23,1.2A1.27,1.27,0,0,0,300.9,138.55Z"/>
            <ellipse class="cls-26" cx="305.48" cy="141.34" rx="1.37" ry="0.94"
                     transform="translate(126.81 426.6) rotate(-82.77)"/>
            <ellipse class="cls-26" cx="305.47" cy="141.44" rx="0.61" ry="1.17"
                     transform="translate(-23.34 69.3) rotate(-12.47)"/>
            <ellipse class="cls-29" cx="305.47" cy="141.44" rx="0.36" ry="0.69"
                     transform="translate(-23.34 69.3) rotate(-12.47)"/>
            <path class="cls-23" d="M310.17,147.45a4.24,4.24,0,0,0-.72,0l.33.35Z"/>
        </g>
    </g>
</svg>
