<svg xmlns="http://www.w3.org/2000/svg" xmlns:xlink="http://www.w3.org/1999/xlink" viewBox="0 0 456.01 262.12">
    <defs>
        <style>
            .cls-1,.cls-2,.cls-21,.cls-22,.cls-3,.cls-4,.cls-5,.cls-6{fill:none;}.cls-1,.cls-17,.cls-2,.cls-21,.cls-22,.cls-3,.cls-4,.cls-5,.cls-6{stroke-miterlimit:10;}.cls-1,.cls-2,.cls-3,.cls-4,.cls-5,.cls-6{stroke-width:2px;}.cls-1{stroke:url(#未命名的渐变_26);}.cls-2{stroke:url(#未命名的渐变_26-2);}.cls-3{stroke:url(#未命名的渐变_26-3);}.cls-4{stroke:url(#未命名的渐变_26-4);}.cls-5{stroke:url(#未命名的渐变_26-5);}.cls-6{stroke:url(#未命名的渐变_26-6);}.cls-10,.cls-11,.cls-12,.cls-7,.cls-9{opacity:0.4;}.cls-7{fill:url(#未命名的渐变_26-7);}.cls-8{opacity:0.7;}.cls-9{fill:url(#未命名的渐变_26-8);}.cls-10{fill:url(#未命名的渐变_26-9);}.cls-11{fill:url(#未命名的渐变_26-10);}.cls-12{fill:url(#未命名的渐变_26-11);}.cls-13{fill:#f0dabc;}.cls-14{fill:#e55c5c;opacity:0.2;}.cls-15{fill:#ffbf76;}.cls-16{fill:#ffeed2;}.cls-17{stroke:#000;}.cls-17,.cls-22{stroke-width:0.21px;}.cls-18{fill:#ffb056;}.cls-19{fill:#e49056;}.cls-20{fill:#f5f5f5;}.cls-21{stroke:#4986d9;stroke-width:0.1px;}.cls-22{stroke:#ffb056;}.cls-23{fill:#ccc;}.cls-24{fill:#e8e8e8;}.cls-25{fill:#257fba;}.cls-26{fill:#398eed;}.cls-27{fill:#53bef5;}.cls-28{fill:#fff;}
        </style>
        <linearGradient id="未命名的渐变_26" x1="1" y1="91.35" x2="1" y2="181.12" gradientUnits="userSpaceOnUse">
            <stop offset="0" stop-color="#81cfff"/>
            <stop offset="1" stop-color="#5ecfff" stop-opacity="0"/>
        </linearGradient>
        <linearGradient id="未命名的渐变_26-2" x1="455.01" y1="72.11" x2="455.01" y2="161.88" xlink:href="#未命名的渐变_26"/>
        <linearGradient id="未命名的渐变_26-3" x1="40.9" y1="143.88" x2="40.9" y2="199.51" xlink:href="#未命名的渐变_26"/>
        <linearGradient id="未命名的渐变_26-4" x1="64.97" y1="95.36" x2="64.97" y2="123.17" xlink:href="#未命名的渐变_26"/>
        <linearGradient id="未命名的渐变_26-5" x1="397.23" y1="104.2" x2="397.23" y2="132.02" xlink:href="#未命名的渐变_26"/>
        <linearGradient id="未命名的渐变_26-6" x1="424.75" y1="133.49" x2="424.75" y2="189.13" xlink:href="#未命名的渐变_26"/>
        <linearGradient id="未命名的渐变_26-7" x1="232.75" y1="224.43" x2="232.75" y2="262.12" xlink:href="#未命名的渐变_26"/>
        <linearGradient id="未命名的渐变_26-8" x1="349.36" y1="26.68" x2="349.36" y2="204.03" xlink:href="#未命名的渐变_26"/>
        <linearGradient id="未命名的渐变_26-9" x1="201.45" y1="55.61" x2="201.45" y2="204.03" xlink:href="#未命名的渐变_26"/>
        <linearGradient id="未命名的渐变_26-10" x1="122.98" y1="26.68" x2="122.98" y2="204.03" xlink:href="#未命名的渐变_26"/>
        <linearGradient id="未命名的渐变_26-11" x1="273.51" y1="0" x2="273.51" y2="209.54" xlink:href="#未命名的渐变_26"/>
    </defs>
    <title>加载失败_1</title>
    <g id="图层_2" data-name="图层 2">
        <g id="图层_1-2" data-name="图层 1">
            <line class="cls-1" x1="1" y1="91.35" x2="1" y2="181.12"/>
            <line class="cls-2" x1="455.01" y1="72.11" x2="455.01" y2="161.88"/>
            <line class="cls-3" x1="40.9" y1="143.88" x2="40.9" y2="199.51"/>
            <line class="cls-4" x1="64.97" y1="95.36" x2="64.97" y2="123.17"/>
            <line class="cls-5" x1="397.23" y1="104.2" x2="397.23" y2="132.02"/>
            <line class="cls-6" x1="424.75" y1="133.49" x2="424.75" y2="189.13"/>
            <path class="cls-7" d="M412.28,262.12c-23-23-61-37.69-179.53-37.69S76.24,239.1,53.21,262.12Z"/>
            <g class="cls-8">
                <path class="cls-9"
                      d="M380.66,26.68H318.07a2.71,2.71,0,0,0-2.82,2.59V201.44a2.71,2.71,0,0,0,2.82,2.59h62.59a2.72,2.72,0,0,0,2.82-2.59V29.27A2.72,2.72,0,0,0,380.66,26.68ZM328.3,147a.9.9,0,0,1-.95.87h-3.6a.9.9,0,0,1-.95-.87V127.27a.91.91,0,0,1,.95-.87h3.6a.91.91,0,0,1,.95.87Zm0-30.23a.91.91,0,0,1-.95.87h-3.6a.91.91,0,0,1-.95-.87V97a.91.91,0,0,1,.95-.87h3.6a.91.91,0,0,1,.95.87Zm0-30.24a.91.91,0,0,1-.95.87h-3.6a.91.91,0,0,1-.95-.87V66.8a.91.91,0,0,1,.95-.87h3.6a.91.91,0,0,1,.95.87Zm0-30.24a.91.91,0,0,1-.95.87h-3.6a.91.91,0,0,1-.95-.87V36.56a.91.91,0,0,1,.95-.87h3.6a.91.91,0,0,1,.95.87ZM340,147a.9.9,0,0,1-.94.87h-3.61a.91.91,0,0,1-.95-.87V127.27a.92.92,0,0,1,.95-.87h3.61a.91.91,0,0,1,.94.87Zm0-30.23a.91.91,0,0,1-.94.87h-3.61a.92.92,0,0,1-.95-.87V97a.92.92,0,0,1,.95-.87h3.61A.91.91,0,0,1,340,97Zm0-30.24a.91.91,0,0,1-.94.87h-3.61a.92.92,0,0,1-.95-.87V66.8a.92.92,0,0,1,.95-.87h3.61a.91.91,0,0,1,.94.87Zm0-30.24a.91.91,0,0,1-.94.87h-3.61a.92.92,0,0,1-.95-.87V36.56a.92.92,0,0,1,.95-.87h3.61a.91.91,0,0,1,.94.87ZM351.7,147a.9.9,0,0,1-.94.87h-3.61a.9.9,0,0,1-.94-.87V127.27a.91.91,0,0,1,.94-.87h3.61a.91.91,0,0,1,.94.87Zm0-30.23a.91.91,0,0,1-.94.87h-3.61a.91.91,0,0,1-.94-.87V97a.91.91,0,0,1,.94-.87h3.61a.91.91,0,0,1,.94.87Zm0-30.24a.91.91,0,0,1-.94.87h-3.61a.91.91,0,0,1-.94-.87V66.8a.91.91,0,0,1,.94-.87h3.61a.91.91,0,0,1,.94.87Zm0-30.24a.91.91,0,0,1-.94.87h-3.61a.91.91,0,0,1-.94-.87V36.56a.91.91,0,0,1,.94-.87h3.61a.91.91,0,0,1,.94.87ZM363.4,147a.9.9,0,0,1-.94.87h-3.61a.9.9,0,0,1-.94-.87V127.27a.91.91,0,0,1,.94-.87h3.61a.91.91,0,0,1,.94.87Zm0-30.23a.91.91,0,0,1-.94.87h-3.61a.91.91,0,0,1-.94-.87V97a.91.91,0,0,1,.94-.87h3.61a.91.91,0,0,1,.94.87Zm0-30.24a.91.91,0,0,1-.94.87h-3.61a.91.91,0,0,1-.94-.87V66.8a.91.91,0,0,1,.94-.87h3.61a.91.91,0,0,1,.94.87Zm0-30.24a.91.91,0,0,1-.94.87h-3.61a.91.91,0,0,1-.94-.87V36.56a.91.91,0,0,1,.94-.87h3.61a.91.91,0,0,1,.94.87ZM375.11,147a.91.91,0,0,1-.95.87h-3.61a.9.9,0,0,1-.94-.87V127.27a.91.91,0,0,1,.94-.87h3.61a.92.92,0,0,1,.95.87Zm0-30.23a.92.92,0,0,1-.95.87h-3.61a.91.91,0,0,1-.94-.87V97a.91.91,0,0,1,.94-.87h3.61a.92.92,0,0,1,.95.87Zm0-30.24a.92.92,0,0,1-.95.87h-3.61a.91.91,0,0,1-.94-.87V66.8a.91.91,0,0,1,.94-.87h3.61a.92.92,0,0,1,.95.87Zm0-30.24a.92.92,0,0,1-.95.87h-3.61a.91.91,0,0,1-.94-.87V36.56a.91.91,0,0,1,.94-.87h3.61a.92.92,0,0,1,.95.87Z"/>
                <path class="cls-10"
                      d="M231.1,55.61H171.8A2.71,2.71,0,0,0,169,58.2V201.44A2.71,2.71,0,0,0,171.8,204h59.3a2.71,2.71,0,0,0,2.82-2.59V58.2A2.71,2.71,0,0,0,231.1,55.61ZM182.47,159.37a1.16,1.16,0,0,1-1.2,1.11h-5.4a1.16,1.16,0,0,1-1.2-1.11v-5.22a1.15,1.15,0,0,1,1.2-1.1h5.4a1.15,1.15,0,0,1,1.2,1.1Zm0-12.88a1.15,1.15,0,0,1-1.2,1.1h-5.4a1.15,1.15,0,0,1-1.2-1.1v-5.22a1.16,1.16,0,0,1,1.2-1.11h5.4a1.16,1.16,0,0,1,1.2,1.11Zm0-12.89a1.16,1.16,0,0,1-1.2,1.11h-5.4a1.16,1.16,0,0,1-1.2-1.11v-5.22a1.15,1.15,0,0,1,1.2-1.1h5.4a1.15,1.15,0,0,1,1.2,1.1Zm0-12.88a1.15,1.15,0,0,1-1.2,1.1h-5.4a1.15,1.15,0,0,1-1.2-1.1V115.5a1.16,1.16,0,0,1,1.2-1.11h5.4a1.16,1.16,0,0,1,1.2,1.11Zm0-12.89a1.16,1.16,0,0,1-1.2,1.11h-5.4a1.16,1.16,0,0,1-1.2-1.11v-5.21a1.15,1.15,0,0,1,1.2-1.11h5.4a1.15,1.15,0,0,1,1.2,1.11Zm0-12.88a1.15,1.15,0,0,1-1.2,1.1h-5.4a1.15,1.15,0,0,1-1.2-1.1V89.73a1.16,1.16,0,0,1,1.2-1.11h5.4a1.16,1.16,0,0,1,1.2,1.11Zm0-12.89a1.16,1.16,0,0,1-1.2,1.11h-5.4a1.16,1.16,0,0,1-1.2-1.11V76.85a1.15,1.15,0,0,1,1.2-1.11h5.4a1.15,1.15,0,0,1,1.2,1.11Zm0-12.88a1.15,1.15,0,0,1-1.2,1.1h-5.4a1.15,1.15,0,0,1-1.2-1.1V64a1.16,1.16,0,0,1,1.2-1.11h5.4a1.16,1.16,0,0,1,1.2,1.11Zm10.08,90.19a1.16,1.16,0,0,1-1.2,1.11H186a1.16,1.16,0,0,1-1.21-1.11v-5.22a1.16,1.16,0,0,1,1.21-1.1h5.4a1.15,1.15,0,0,1,1.2,1.1Zm0-12.88a1.15,1.15,0,0,1-1.2,1.1H186a1.16,1.16,0,0,1-1.21-1.1v-5.22a1.16,1.16,0,0,1,1.21-1.11h5.4a1.16,1.16,0,0,1,1.2,1.11Zm0-12.89a1.16,1.16,0,0,1-1.2,1.11H186a1.16,1.16,0,0,1-1.21-1.11v-5.22a1.16,1.16,0,0,1,1.21-1.1h5.4a1.15,1.15,0,0,1,1.2,1.1Zm0-12.88a1.15,1.15,0,0,1-1.2,1.1H186a1.16,1.16,0,0,1-1.21-1.1V115.5a1.16,1.16,0,0,1,1.21-1.11h5.4a1.16,1.16,0,0,1,1.2,1.11Zm0-12.89a1.16,1.16,0,0,1-1.2,1.11H186a1.16,1.16,0,0,1-1.21-1.11v-5.21a1.16,1.16,0,0,1,1.21-1.11h5.4a1.15,1.15,0,0,1,1.2,1.11Zm0-12.88a1.15,1.15,0,0,1-1.2,1.1H186a1.16,1.16,0,0,1-1.21-1.1V89.73A1.16,1.16,0,0,1,186,88.62h5.4a1.16,1.16,0,0,1,1.2,1.11Zm0-12.89a1.16,1.16,0,0,1-1.2,1.11H186a1.16,1.16,0,0,1-1.21-1.11V76.85A1.16,1.16,0,0,1,186,75.74h5.4a1.15,1.15,0,0,1,1.2,1.11Zm0-12.88a1.15,1.15,0,0,1-1.2,1.1H186a1.16,1.16,0,0,1-1.21-1.1V64A1.16,1.16,0,0,1,186,62.85h5.4a1.16,1.16,0,0,1,1.2,1.11Zm10.08,90.19a1.16,1.16,0,0,1-1.21,1.11H196a1.16,1.16,0,0,1-1.2-1.11v-5.22a1.15,1.15,0,0,1,1.2-1.1h5.4a1.16,1.16,0,0,1,1.21,1.1Zm0-12.88a1.16,1.16,0,0,1-1.21,1.1H196a1.15,1.15,0,0,1-1.2-1.1v-5.22a1.16,1.16,0,0,1,1.2-1.11h5.4a1.16,1.16,0,0,1,1.21,1.11Zm0-12.89a1.16,1.16,0,0,1-1.21,1.11H196a1.16,1.16,0,0,1-1.2-1.11v-5.22a1.15,1.15,0,0,1,1.2-1.1h5.4a1.16,1.16,0,0,1,1.21,1.1Zm0-12.88a1.16,1.16,0,0,1-1.21,1.1H196a1.15,1.15,0,0,1-1.2-1.1V115.5a1.16,1.16,0,0,1,1.2-1.11h5.4a1.16,1.16,0,0,1,1.21,1.11Zm0-12.89a1.16,1.16,0,0,1-1.21,1.11H196a1.16,1.16,0,0,1-1.2-1.11v-5.21a1.15,1.15,0,0,1,1.2-1.11h5.4a1.16,1.16,0,0,1,1.21,1.11Zm0-12.88a1.16,1.16,0,0,1-1.21,1.1H196a1.15,1.15,0,0,1-1.2-1.1V89.73a1.16,1.16,0,0,1,1.2-1.11h5.4a1.16,1.16,0,0,1,1.21,1.11Zm0-12.89a1.16,1.16,0,0,1-1.21,1.11H196a1.16,1.16,0,0,1-1.2-1.11V76.85a1.15,1.15,0,0,1,1.2-1.11h5.4a1.16,1.16,0,0,1,1.21,1.11Zm0-12.88a1.16,1.16,0,0,1-1.21,1.1H196a1.15,1.15,0,0,1-1.2-1.1V64a1.16,1.16,0,0,1,1.2-1.11h5.4A1.16,1.16,0,0,1,202.63,64Zm25.21,90.19a1.16,1.16,0,0,1-1.2,1.11H206.1a1.16,1.16,0,0,1-1.2-1.11v-5.22a1.15,1.15,0,0,1,1.2-1.1h20.54a1.15,1.15,0,0,1,1.2,1.1Zm0-12.88a1.15,1.15,0,0,1-1.2,1.1H206.1a1.15,1.15,0,0,1-1.2-1.1v-5.22a1.16,1.16,0,0,1,1.2-1.11h20.54a1.16,1.16,0,0,1,1.2,1.11Zm0-12.89a1.16,1.16,0,0,1-1.2,1.11H206.1a1.16,1.16,0,0,1-1.2-1.11v-5.22a1.15,1.15,0,0,1,1.2-1.1h20.54a1.15,1.15,0,0,1,1.2,1.1Zm0-12.88a1.15,1.15,0,0,1-1.2,1.1H206.1a1.15,1.15,0,0,1-1.2-1.1V115.5a1.16,1.16,0,0,1,1.2-1.11h20.54a1.16,1.16,0,0,1,1.2,1.11Zm0-12.89a1.16,1.16,0,0,1-1.2,1.11H206.1a1.16,1.16,0,0,1-1.2-1.11v-5.21a1.15,1.15,0,0,1,1.2-1.11h20.54a1.15,1.15,0,0,1,1.2,1.11Zm0-12.88a1.15,1.15,0,0,1-1.2,1.1H206.1a1.15,1.15,0,0,1-1.2-1.1V89.73a1.16,1.16,0,0,1,1.2-1.11h20.54a1.16,1.16,0,0,1,1.2,1.11Zm0-12.89a1.16,1.16,0,0,1-1.2,1.11H206.1a1.16,1.16,0,0,1-1.2-1.11V76.85a1.15,1.15,0,0,1,1.2-1.11h20.54a1.15,1.15,0,0,1,1.2,1.11Zm0-12.88a1.15,1.15,0,0,1-1.2,1.1H206.1a1.15,1.15,0,0,1-1.2-1.1V64a1.16,1.16,0,0,1,1.2-1.11h20.54a1.16,1.16,0,0,1,1.2,1.11Z"/>
                <path class="cls-11"
                      d="M161.13,26.68H84.83A2.71,2.71,0,0,0,82,29.27V201.44A2.71,2.71,0,0,0,84.83,204h76.3a2.71,2.71,0,0,0,2.82-2.59V29.27A2.71,2.71,0,0,0,161.13,26.68ZM154.34,161a1.16,1.16,0,0,1-1.2,1.11H92.83A1.16,1.16,0,0,1,91.62,161v-5.21a1.16,1.16,0,0,1,1.21-1.11h60.31a1.15,1.15,0,0,1,1.2,1.11Zm0-14.67a1.15,1.15,0,0,1-1.2,1.1H92.83a1.16,1.16,0,0,1-1.21-1.1v-5.22A1.16,1.16,0,0,1,92.83,140h60.31a1.16,1.16,0,0,1,1.2,1.11Zm0-14.68a1.16,1.16,0,0,1-1.2,1.11H92.83a1.16,1.16,0,0,1-1.21-1.11v-5.22a1.16,1.16,0,0,1,1.21-1.1h60.31a1.15,1.15,0,0,1,1.2,1.1Zm0-14.68a1.16,1.16,0,0,1-1.2,1.11H92.83a1.16,1.16,0,0,1-1.21-1.11v-5.21a1.16,1.16,0,0,1,1.21-1.11h60.31a1.15,1.15,0,0,1,1.2,1.11Zm0-14.67a1.15,1.15,0,0,1-1.2,1.1H92.83a1.16,1.16,0,0,1-1.21-1.1V97a1.16,1.16,0,0,1,1.21-1.11h60.31a1.16,1.16,0,0,1,1.2,1.11Zm0-14.68a1.16,1.16,0,0,1-1.2,1.11H92.83a1.16,1.16,0,0,1-1.21-1.11V82.35a1.16,1.16,0,0,1,1.21-1.1h60.31a1.15,1.15,0,0,1,1.2,1.1Zm0-14.68a1.16,1.16,0,0,1-1.2,1.11H92.83a1.16,1.16,0,0,1-1.21-1.11V67.68a1.16,1.16,0,0,1,1.21-1.11h60.31a1.15,1.15,0,0,1,1.2,1.11Zm0-14.67a1.15,1.15,0,0,1-1.2,1.1H92.83a1.16,1.16,0,0,1-1.21-1.1V53a1.16,1.16,0,0,1,1.21-1.11h60.31a1.16,1.16,0,0,1,1.2,1.11Zm0-14.68a1.16,1.16,0,0,1-1.2,1.11H92.83a1.16,1.16,0,0,1-1.21-1.11V38.32a1.16,1.16,0,0,1,1.21-1.1h60.31a1.15,1.15,0,0,1,1.2,1.1Z"/>
                <path class="cls-12"
                      d="M306.21,0H240.82a2.51,2.51,0,0,0-2.42,2.59V206.94a2.51,2.51,0,0,0,2.42,2.6h65.39a2.51,2.51,0,0,0,2.41-2.6V2.59A2.51,2.51,0,0,0,306.21,0Zm-5.82,134.28a1.06,1.06,0,0,1-1,1.1H247.67a1.06,1.06,0,0,1-1-1.1v-5.22a1.07,1.07,0,0,1,1-1.11h51.69a1.07,1.07,0,0,1,1,1.11Zm0-14.68a1.07,1.07,0,0,1-1,1.11H247.67a1.07,1.07,0,0,1-1-1.11v-5.22a1.06,1.06,0,0,1,1-1.1h51.69a1.06,1.06,0,0,1,1,1.1Zm0-14.68a1.07,1.07,0,0,1-1,1.11H247.67a1.07,1.07,0,0,1-1-1.11V99.71a1.07,1.07,0,0,1,1-1.11h51.69a1.07,1.07,0,0,1,1,1.11Zm0-14.67a1.06,1.06,0,0,1-1,1.1H247.67a1.06,1.06,0,0,1-1-1.1V85a1.07,1.07,0,0,1,1-1.11h51.69a1.07,1.07,0,0,1,1,1.11Zm0-14.68a1.07,1.07,0,0,1-1,1.11H247.67a1.07,1.07,0,0,1-1-1.11V70.35a1.06,1.06,0,0,1,1-1.1h51.69a1.06,1.06,0,0,1,1,1.1Zm0-14.68a1.07,1.07,0,0,1-1,1.11H247.67a1.07,1.07,0,0,1-1-1.11V55.68a1.07,1.07,0,0,1,1-1.11h51.69a1.07,1.07,0,0,1,1,1.11Zm0-14.67a1.06,1.06,0,0,1-1,1.1H247.67a1.06,1.06,0,0,1-1-1.1V41a1.07,1.07,0,0,1,1-1.11h51.69a1.07,1.07,0,0,1,1,1.11Zm0-14.68a1.07,1.07,0,0,1-1,1.11H247.67a1.07,1.07,0,0,1-1-1.11V26.32a1.06,1.06,0,0,1,1-1.1h51.69a1.06,1.06,0,0,1,1,1.1Zm0-14.68a1.07,1.07,0,0,1-1,1.11H247.67a1.07,1.07,0,0,1-1-1.11V11.65a1.07,1.07,0,0,1,1-1.11h51.69a1.07,1.07,0,0,1,1,1.11Z"/>
            </g>
            <path class="cls-13"
                  d="M242.46,224.89c0-.06,0-.14,0-.24-.06-.39-1.11-21.66-1.11-21.66l1.78-9.2c-1.87,0-6.4-1.73-6.4-1.73l-1.05,8.26a13.51,13.51,0,0,0-.06,3.36c.87,4.18,3.39,19.87,3.62,21.4h0a2.33,2.33,0,0,1,.05.46c-.06.28-.57.25-.61.43.11,0,.43.74.5.78a3.47,3.47,0,0,0,2.71-.08h0a2,2,0,0,0,.88-1.22C242.62,225.21,242.53,225.22,242.46,224.89Z"/>
            <path class="cls-14"
                  d="M236.5,193.59c-.21,1.54-.56,4.41-.64,5,.46.15,1.53-.15,1.47-.73C237.24,197,237.38,194.38,236.5,193.59Z"/>
            <path class="cls-15"
                  d="M228.89,172.19c-.61-2.39-1.16-4.53-1.16-4.57v-.05c0-.11,0-.23,0-.35a3,3,0,0,1,5.79-.78l1.67,5.81c-.21,0-.54-.1-.94-.15-1.44-.15-3.8-.13-5,1.44v0C229.12,173.11,229,172.64,228.89,172.19Z"/>
            <path class="cls-15"
                  d="M234.33,172.84l-.1-.74h0c.4.05.73.11.94.15C235.11,172.44,234.45,172.82,234.33,172.84Z"/>
            <path class="cls-15"
                  d="M230.34,173.56l-.22-.81h0a3.09,3.09,0,0,0-.88.81C229.3,173.75,230.26,173.58,230.34,173.56Z"/>
            <path class="cls-13"
                  d="M236.72,193.32a4,4,0,0,1-1.08-2.09l0-10.61a9.14,9.14,0,0,0-.17-1.73l-1.28-6.79a9.65,9.65,0,0,0-2.35,0,4.79,4.79,0,0,0-1.76.62l2.43,8.69,1.34,9.62a7.58,7.58,0,0,0,.32,1.41,51.11,51.11,0,0,1,1.65,5.67c-.07.53,1.46.24,1.37-.62S237.6,194.1,236.72,193.32Z"/>
            <path class="cls-16"
                  d="M229.26,163c2.14.89-.14,2.84-1.12,3.48-.1-.22-.21-.48-.31-.72a.18.18,0,0,0-.1-.09.74.74,0,0,0-.63,0c-.33.18-.48,1.62-1.79,2.06a4.6,4.6,0,0,1-2.61-.19c-.32.29-.62.59-1,.34s-.44-1.13-.61-1.47-1.36-1.28-1.62-1.7c-.7-1,1-4.17,2.91-4.67,1.24-.47,3.62,1.51,4.61,2A11,11,0,0,0,229.26,163Z"/>
            <path class="cls-17"
                  d="M218.89,159.61a5,5,0,0,0-1.16,3.28c.1,1.66,2.2,3,2.21,2.35a.44.44,0,0,1,.45-.59s-.08-.55.11-.7.39.06.39.06a3.84,3.84,0,0,1,.22-.81c1-1.2,1-1,1.58-.81.14,0,.21-.39.34-.41a13.47,13.47,0,0,1,1.51.91c-.17-.2-.85-.81-.72-1.36a.59.59,0,0,1,.16-.38.76.76,0,0,1,1.07.07.84.84,0,0,1,.26.83c.69.32,1.35.67,1.35.67l-.52-.54.67.2-.21-.29.41,0-.48-.29c-.22-.37.05-1-.39-1.83a3.4,3.4,0,0,0-2.65-2.07A5.84,5.84,0,0,0,218.89,159.61Z"/>
            <ellipse class="cls-14" cx="224.56" cy="161.76" rx="0.35" ry="0.47"
                     transform="translate(-52.16 157.71) rotate(-34.93)"/>
            <path class="cls-14"
                  d="M226.48,166.78a3.62,3.62,0,0,0,.16-2.42,2.06,2.06,0,0,1,.43,1.36A10.11,10.11,0,0,0,226.48,166.78Z"/>
            <path class="cls-14"
                  d="M229.16,166.66c.51-.47,2.44-1.8,0-3.71a1.88,1.88,0,0,1,1.41,2A2.47,2.47,0,0,1,229.16,166.66Z"/>
            <path class="cls-18"
                  d="M244.61,176.64c0,.38-1,1.32-1.33,1.6l-7,4.75s-.15.15-.2.13c-2.89-.69.37-3-1.56-4.65s-2.13-2-4.31-5.13a11.75,11.75,0,0,1-2.42-6.4c0-.42.1-.8.05-1.07.15,0,.16-.08.35-.17a2,2,0,0,0,.67-2.82c.34.07,2.16.21,3.21.33a4.65,4.65,0,0,1,2.19.65c3.37,1.6,8.13,10,8.72,10.51C244.59,176,244.83,174.35,244.61,176.64Z"/>
            <path class="cls-15"
                  d="M230.21,171c-.61-2.39-1.15-4.53-1.16-4.57v-.05a2.14,2.14,0,0,1,0-.36,3,3,0,0,1,5.78-.77c0,.11,1.67,5.81,1.67,5.81a7.22,7.22,0,0,0-.93-.15c-1.44-.16-3.81-.13-5,1.43l0,0C230.45,172,230.33,171.48,230.21,171Z"/>
            <path class="cls-19"
                  d="M235.65,171.68l-.09-.73h0a7.22,7.22,0,0,1,.93.15C236.44,171.29,235.77,171.67,235.65,171.68Z"/>
            <path class="cls-19"
                  d="M231.67,172.4l-.22-.8h0a3.17,3.17,0,0,0-.89.8C230.62,172.6,231.59,172.42,231.67,172.4Z"/>
            <path class="cls-20"
                  d="M234.48,231.09a16.84,16.84,0,0,0,2-.49,7.09,7.09,0,0,1,2.86-.26l1.05.13c1.33.15,2.71.2,3.56-.76a2.6,2.6,0,0,0,.72-1.24c.16.42.93,2.21-2.3,3.16a4.87,4.87,0,0,1-4-.33,2.62,2.62,0,0,0-1.42-.22c-1.4.2-2.85,1.39-4.6.62a4.52,4.52,0,0,1-1.35-1c-1.58-1.6-.67-2.42-.47-2.71a1.42,1.42,0,0,0,.05,1.07A3.37,3.37,0,0,0,234.48,231.09Z"/>
            <path class="cls-18"
                  d="M243.9,229.71c-.85,1-2.23.91-3.56.76.59-1.33,1.82-1.23,2.47-2.13a2.48,2.48,0,0,1,1.39-1.11h0c.11.32.53.63.42,1.24A2.6,2.6,0,0,1,243.9,229.71Z"/>
            <path class="cls-19"
                  d="M243.61,225.27a3,3,0,0,1,.56,1.82.35.35,0,0,0,0,.14h0a2.48,2.48,0,0,0-1.39,1.11c-.65.9-1.88.8-2.47,2.13l-1.05-.13a7.09,7.09,0,0,0-2.86.26,16.84,16.84,0,0,1-2,.49,2.26,2.26,0,0,1-1.83-2.09c.11-.43.63-.47.94-.93a15.68,15.68,0,0,0,5.28-1.79l.35.2a4.55,4.55,0,0,0,1.6.49h0a1.67,1.67,0,0,0,2-2.2.92.92,0,0,1,.23.09,1.41,1.41,0,0,1,.35.23A1.37,1.37,0,0,1,243.61,225.27Z"/>
            <path class="cls-18"
                  d="M232.65,229a2.26,2.26,0,0,0,1.83,2.09,3.37,3.37,0,0,1-4-2,1.42,1.42,0,0,1-.05-1.07c.34-.82,1.66-1.05,2.92-1.11.21,0,.39.6.23,1.16C233.28,228.53,232.76,228.57,232.65,229Z"/>
            <path class="cls-15"
                  d="M239,225.72a1,1,0,0,1,.26.76l-.35-.2a15.68,15.68,0,0,1-5.28,1.79c.16-.56,0-1.16-.23-1.16l.93,0c.48,0,.9,0,1.19,0a17.9,17.9,0,0,0,3.16-.95,1.16,1.16,0,0,0-.2-.24A.47.47,0,0,1,239,225.72Z"/>
            <path class="cls-19"
                  d="M238.64,225.9a17.9,17.9,0,0,1-3.16.95,28.56,28.56,0,0,0,2.84-1.37c.08,0,.12.18.12.18A1.16,1.16,0,0,1,238.64,225.9Z"/>
            <path class="cls-21"
                  d="M244.62,228.47c.16.42.93,2.21-2.3,3.16a4.87,4.87,0,0,1-4-.33,2.62,2.62,0,0,0-1.42-.22c-1.4.2-2.85,1.39-4.6.62a4.52,4.52,0,0,1-1.35-1c-1.58-1.6-.67-2.42-.47-2.71"/>
            <path class="cls-22"
                  d="M243.09,224.91a.11.11,0,0,0,0,0c.13-.65.35-.71.78-.39a.92.92,0,0,1,.14.13c.18.24,0,.47-.41.67l-.44.15"/>
            <path d="M233.71,228.65a.21.21,0,0,0,.41-.11.21.21,0,0,0-.41.11Z"/>
            <path d="M233.61,228.68a.3.3,0,0,0,.12.17.33.33,0,0,0,.46-.11.33.33,0,0,0-.06-.38.36.36,0,0,0-.36,0,.33.33,0,0,0-.13.13.31.31,0,0,0,0,.23.11.11,0,0,0,.13.07.1.1,0,0,0,.07-.13v0s0,0,0,0v0h0v0h0s0,0,0,0v0s0,0,0,0,0,0,0,0l0,0s0,0,0,0h0l0,0s0,0,0,0h.07s0,0,0,0h0s0,0,0,0h0l0,0s0,0,0,0h0s0,0,0,0h0s0,0,0,0h0v0h0v0a0,0,0,0,1,0,0h0s0,0,0,0h0l0,0h0l0,0h0s0,0,0,0h-.1s0,0,0,0h0s0,0,0,0h0v0a.09.09,0,0,0-.12-.07A.11.11,0,0,0,233.61,228.68Z"/>
            <path d="M234.88,228.41a.21.21,0,0,0,.41-.11.21.21,0,0,0-.41.11Z"/>
            <path d="M234.78,228.43a.32.32,0,0,0,.12.18.34.34,0,0,0,.17,0,.32.32,0,0,0,.29-.16.32.32,0,0,0-.06-.38.34.34,0,0,0-.35,0,.29.29,0,0,0-.14.13.29.29,0,0,0,0,.22.12.12,0,0,0,.13.08.1.1,0,0,0,.07-.13v0h0v0h0s0,0,0,0l0,0h0l0,0h0s0,0,0,0h0s0,0,0,0h.07s0,0,0,0h0s0,0,0,0h0l0,0h0s0,0,0,0h0v0h0v0h0v0a0,0,0,0,1,0,0h0v0h0l0,0h0s0,0,0,0l0,0H235l0,0h0v0a.09.09,0,0,0-.12-.07A.1.1,0,0,0,234.78,228.43Z"/>
            <path d="M236.14,228a.21.21,0,0,0,.4-.11.21.21,0,0,0-.4.11Z"/>
            <path d="M236,228.05a.3.3,0,0,0,.12.17.34.34,0,0,0,.17.05.35.35,0,0,0,.29-.16.32.32,0,0,0-.07-.38.34.34,0,0,0-.35,0,.35.35,0,0,0-.14.13.36.36,0,0,0,0,.23.1.1,0,0,0,.13.07.11.11,0,0,0,.07-.13v0s0,0,0,0,0,0,0,0h0v0h0s0,0,0,0v0h0l0,0h0l0,0s0,0,0,0h.12l0,0h0s0,0,0,0h0v0h0v0h0v0a0,0,0,0,0,0,0h0s0,0,0,0h0v0h0l0,0h0s0,0,0,0l0,0h0s0,0,0,0h-.1s0,0,0,0h0s0,0,0,0h0v0h0s0,0,0,0l0,0s0,0,0,0v0a.1.1,0,0,0-.13-.07A.11.11,0,0,0,236,228.05Z"/>
            <path d="M237.36,227.55a.21.21,0,0,0,.4-.11.21.21,0,0,0-.4.11Z"/>
            <path d="M237.26,227.58a.3.3,0,0,0,.12.17.35.35,0,0,0,.17.06.34.34,0,0,0,.29-.17.31.31,0,0,0-.07-.37.3.3,0,0,0-.35,0,.29.29,0,0,0-.14.13.33.33,0,0,0,0,.22.11.11,0,0,0,.13.07.09.09,0,0,0,.07-.12v0s0,0,0,0v0h0s0,0,0,0h0v0h0s0,0,0,0v0s0,0,0,0,0,0,0,0l0,0s0,0,0,0h.14l0,0h0v0h0v0a0,0,0,0,0,0,0h0v0h0s0,0,0,0h0s0,0,0,0h0s0,0,0,0h0s0,0,0,0h-.15s0,0,0,0,0,0,0,0v0a.11.11,0,0,0-.13-.08A.11.11,0,0,0,237.26,227.58Z"/>
            <path d="M238.54,227a.21.21,0,0,0,.4-.11.21.21,0,0,0-.4.11Z"/>
            <path d="M238.44,227a.3.3,0,0,0,.12.17.35.35,0,0,0,.16.06.34.34,0,0,0,.3-.17.31.31,0,0,0-.07-.37.3.3,0,0,0-.35,0,.25.25,0,0,0-.14.13.28.28,0,0,0,0,.22.1.1,0,0,0,.13.07.1.1,0,0,0,.07-.12v0s0,0,0,0a.08.08,0,0,1,0,0h0s0,0,0,0h0v0h0s0,0,0,0v0s0,0,0,0,0,0,0,0l0,0s0,0,0,0h.13l0,0h0v0h0s0,0,0,0v0a0,0,0,0,1,0,0h0v0h0s0,0,0,0,0,0,0,0h0s0,0,0,0h0s0,0,0,0h0s0,0,0,0h0s0,0,0,0h-.07s0,0,0,0h0s0,0,0,0,0,0,0,0v0a.12.12,0,0,0-.13-.08A.11.11,0,0,0,238.44,227Z"/>
            <path class="cls-23"
                  d="M233.83,226.85s0,0,0,0l0,0a.41.41,0,0,1,0,.09,1.55,1.55,0,0,1,.08.23,1.51,1.51,0,0,1,.09.47,1.85,1.85,0,0,1-.24.85c-.06.12.12.22.18.1a1.89,1.89,0,0,0,.25-1.16,2.16,2.16,0,0,0-.19-.61c-.06-.14-.26-.3-.4-.15s.06.24.15.14Z"/>
            <path class="cls-23"
                  d="M235.19,228.3a1.63,1.63,0,0,0-.25-.57,4.67,4.67,0,0,0-.36-.51,3.05,3.05,0,0,0-.44-.44.53.53,0,0,0-.24-.14.27.27,0,0,0-.24.07c-.11.08,0,.23.15.15s.15,0,.2.08l.17.15a3.9,3.9,0,0,1,.33.38,2.24,2.24,0,0,1,.48.88c0,.13.22.08.2,0Z"/>
            <path class="cls-23"
                  d="M234.49,226.75a2.8,2.8,0,0,1-.13.95,2.45,2.45,0,0,1-.17.45,3,3,0,0,1-.29.43c-.08.11.1.21.18.1a2.63,2.63,0,0,0,.3-.44,2.78,2.78,0,0,0,.18-.48,2.68,2.68,0,0,0,.13-1c0-.13-.22-.14-.2,0Z"/>
            <path class="cls-23"
                  d="M236.46,227.92c0-.2-.2-.31-.36-.43a3.78,3.78,0,0,1-.4-.4,1.71,1.71,0,0,0-.94-.46c-.13,0-.18.18,0,.2a1.42,1.42,0,0,1,.84.41c.12.12.23.26.36.37s.32.19.35.37.23.07.2-.06Z"/>
            <path class="cls-23"
                  d="M235.74,226.42a.87.87,0,0,0-.34.37,5.4,5.4,0,0,0-.23.49,3,3,0,0,0-.2,1.12c0,.13.19.13.21,0a2.86,2.86,0,0,1,.17-1c.06-.15.13-.29.2-.43a.71.71,0,0,1,.3-.36c.12-.06,0-.24-.11-.18Z"/>
            <path class="cls-23"
                  d="M237.65,227.42a1.71,1.71,0,0,0-.38-.38,2.69,2.69,0,0,0-.44-.31c-.16-.08-.33-.12-.48-.19a1,1,0,0,0-.46-.15.1.1,0,0,0,0,.21.8.8,0,0,1,.39.14c.14.06.3.1.44.17a2.55,2.55,0,0,1,.4.27,1.62,1.62,0,0,1,.35.34c.08.11.26,0,.18-.1Z"/>
            <path class="cls-23"
                  d="M236.9,226.13a.53.53,0,0,0-.29.33,2.11,2.11,0,0,0-.14.49c0,.16-.12.31-.16.47a1.31,1.31,0,0,0,0,.52c0,.13.22.14.2,0a1.63,1.63,0,0,1,0-.44c0-.15.12-.28.15-.42a1.55,1.55,0,0,0,0-.21c0-.08.05-.15.07-.22s.08-.27.19-.32a.11.11,0,0,0,.07-.13.09.09,0,0,0-.12-.07Z"/>
            <path class="cls-23"
                  d="M238.81,226.89a.44.44,0,0,1-.14-.13,1.22,1.22,0,0,0-.17-.15,2.27,2.27,0,0,0-.41-.21c-.32-.11-.65-.19-1-.28a.1.1,0,0,0-.06.2c.32.09.64.17.95.28a1,1,0,0,1,.38.19,3,3,0,0,0,.32.29.11.11,0,0,0,.1-.19Z"/>
            <path class="cls-23"
                  d="M237.9,225.82a5.54,5.54,0,0,1-.4,1.59c0,.05,0,.11.08.12s.1,0,.13-.07a5.77,5.77,0,0,0,.39-1.64c0-.14-.19-.14-.2,0Z"/>
            <path class="cls-24"
                  d="M238,227.78a1.11,1.11,0,0,0,.57-.58.71.71,0,0,0-.21-.71h0a.19.19,0,0,0,0-.08s0,0,0-.07a.41.41,0,0,0-.07-.11l0,0a1.09,1.09,0,0,0,0-.18.25.25,0,0,0-.12-.19,1.71,1.71,0,0,0-1.51-.24c-.27.07-.66.21-.57.57s.54.44.84.42h.1a1.3,1.3,0,0,0-.31.16,4.33,4.33,0,0,1-.47.38,1,1,0,0,1-.65.15c-.14,0-.14.2,0,.21a1.43,1.43,0,0,0,1.12-.47,2,2,0,0,1,1-.4,1.92,1.92,0,0,0-.43.32,1.56,1.56,0,0,0-.27.35,1.21,1.21,0,0,1-.24.35c-.1.09.05.24.15.15s.26-.46.45-.65l.35-.29a1.27,1.27,0,0,1,.31-.15.69.69,0,0,1-.13.11,3,3,0,0,0-.37.25c-.19.15-.41.47-.25.71S237.76,227.9,238,227.78Zm-1.08-1.4a1.09,1.09,0,0,1-.44-.06c-.11,0-.27-.14-.24-.28s.16-.16.26-.19a1.91,1.91,0,0,1,.89-.09,1.35,1.35,0,0,1,.44.15.47.47,0,0,1,.2.12s0,.1,0,.13v0l0,0h0a.2.2,0,0,0-.08.08,1.27,1.27,0,0,0-.55,0A3.63,3.63,0,0,1,236.91,226.38Zm.66,1.33c-.08,0-.19,0-.21-.11a.42.42,0,0,1,.12-.28.92.92,0,0,1,.26-.22,1,1,0,0,0,.47-.43h0a.47.47,0,0,1,.14.46.82.82,0,0,1-.46.47A.93.93,0,0,1,237.57,227.71Z"/>
            <path class="cls-16"
                  d="M244.52,225.37c0-.06,0-.14,0-.24-.06-.39-1.17-21.62-1.17-21.62l1.88-9.95a51.23,51.23,0,0,1-6.5-1l-1.21,9.17a7.46,7.46,0,0,0,.1,2.45c.87,4.18,3.39,19.87,3.62,21.4h0a2.4,2.4,0,0,1,.05.47c-.06.28-1.13.33-1.17.51.11,0,1,1.14,1,1.17.87.39,3.25-.45,3.25-.45.4-.27.22-.78.37-1.33A1.57,1.57,0,0,1,244.52,225.37Z"/>
            <path class="cls-20"
                  d="M236.48,231.89a15.4,15.4,0,0,0,1.92-.61,7.27,7.27,0,0,1,2.85-.43l1.05.06c1.33.07,2.72,0,3.51-1a2.68,2.68,0,0,0,.64-1.29c.19.41,1.07,2.16-2.1,3.3a4.92,4.92,0,0,1-4.06-.08,2.55,2.55,0,0,0-1.42-.14c-1.4.29-2.76,1.56-4.56.9a4.35,4.35,0,0,1-1.41-.89c-1.68-1.49-.82-2.36-.63-2.67a1.38,1.38,0,0,0,.12,1.07A3.35,3.35,0,0,0,236.48,231.89Z"/>
            <path class="cls-18"
                  d="M245.81,229.94c-.79,1-2.18,1-3.51,1,.51-1.36,1.74-1.34,2.33-2.27a2.55,2.55,0,0,1,1.32-1.2h0c.13.32.57.6.5,1.21A2.68,2.68,0,0,1,245.81,229.94Z"/>
            <path class="cls-19"
                  d="M245.25,225.52a3.08,3.08,0,0,1,.67,1.79.61.61,0,0,0,0,.13h0a2.55,2.55,0,0,0-1.32,1.2c-.59.93-1.82.91-2.33,2.27l-1.05-.06a7.27,7.27,0,0,0-2.85.43,15.4,15.4,0,0,1-1.92.61,2.24,2.24,0,0,1-1.94-2c.08-.43.59-.5.87-1a15.49,15.49,0,0,0,5.16-2.11l.37.18a4.52,4.52,0,0,0,1.63.39h0a1.66,1.66,0,0,0,1.89-2.32,1,1,0,0,1,.25.07,1.34,1.34,0,0,1,.36.22A1.29,1.29,0,0,1,245.25,225.52Z"/>
            <path class="cls-18"
                  d="M234.54,229.91a2.24,2.24,0,0,0,1.94,2,3.35,3.35,0,0,1-4.09-1.75,1.38,1.38,0,0,1-.12-1.07c.29-.83,1.59-1.14,2.84-1.29.22,0,.43.58.3,1.15C235.13,229.41,234.62,229.48,234.54,229.91Z"/>
            <path class="cls-15"
                  d="M240.63,226.25a1,1,0,0,1,.31.75l-.37-.18a15.49,15.49,0,0,1-5.16,2.11c.13-.57-.08-1.16-.3-1.15l.94-.08c.47,0,.89-.06,1.18-.1a19.34,19.34,0,0,0,3.1-1.14,1.89,1.89,0,0,0-.22-.23A.48.48,0,0,1,240.63,226.25Z"/>
            <path class="cls-19"
                  d="M240.33,226.46a19.34,19.34,0,0,1-3.1,1.14,29.4,29.4,0,0,0,2.75-1.54c.08,0,.13.17.13.17A1.89,1.89,0,0,1,240.33,226.46Z"/>
            <path class="cls-21"
                  d="M246.45,228.65c.19.41,1.07,2.16-2.1,3.3a4.92,4.92,0,0,1-4.06-.08,2.55,2.55,0,0,0-1.42-.14c-1.4.29-2.76,1.56-4.56.9a4.35,4.35,0,0,1-1.41-.89c-1.68-1.49-.82-2.36-.63-2.67"/>
            <path class="cls-22"
                  d="M244.71,225.19a.09.09,0,0,1,0-.05c.08-.66.3-.73.75-.43a.58.58,0,0,1,.14.12c.2.22.07.47-.36.69a3.73,3.73,0,0,1-.43.18"/>
            <path d="M235.57,229.5c.09.25.49.12.4-.13a.21.21,0,0,0-.4.13Z"/>
            <path d="M235.47,229.53a.34.34,0,0,0,.13.16.26.26,0,0,0,.17.05.34.34,0,0,0,.29-.17.35.35,0,0,0-.08-.38.33.33,0,0,0-.19-.06.25.25,0,0,0-.17,0,.31.31,0,0,0-.15.36.11.11,0,0,0,.13.07.12.12,0,0,0,.08-.13,0,0,0,0,1,0,0s0,0,0,0v0s0,0,0,0v0s0,0,0,0h0s0,0,0,0l0,0h0s0,0,0,0h.07s0,0,0,0h.06l0,0s0,0,0,0h0s0,0,0,0,0,0,0,0h0v0s0,0,0,0v0h0v0h0s0,0,0,0l0,0h0l0,0s0,0,0,0h-.13l0,0s0,0,0,0h0v0h0a.11.11,0,0,0-.13-.07A.12.12,0,0,0,235.47,229.53Z"/>
            <path d="M236.73,229.19a.21.21,0,0,0,.39-.14.21.21,0,0,0-.39.14Z"/>
            <path d="M236.63,229.21a.3.3,0,0,0,.12.17.37.37,0,0,0,.17.05.34.34,0,0,0,.29-.18.31.31,0,0,0-.08-.37.4.4,0,0,0-.18-.07.47.47,0,0,0-.17,0,.3.3,0,0,0-.15.36.11.11,0,0,0,.13.08.11.11,0,0,0,.07-.13v0h0v0h0v0s0,0,0,0h0s0,0,0,0l0,0H237s0,0,0,0,0,0,0,0l0,0v0h0v0h0s0,0,0,0v0h0s0,0,0,0h0v0s0,0,0,0l0,0s0,0,0,0h0l0,0s0,0,0,0h0s0,0,0,0h-.12s0,0,0,0l0,0s0,0,0,0v0h0s0,0,0,0h0a.11.11,0,0,0-.13-.07A.09.09,0,0,0,236.63,229.21Z"/>
            <path d="M238,228.72a.21.21,0,0,0,.39-.13.21.21,0,0,0-.39.13Z"/>
            <path d="M237.86,228.75a.3.3,0,0,0,.12.17.27.27,0,0,0,.17,0,.31.31,0,0,0,.29-.17.31.31,0,0,0-.08-.37.34.34,0,0,0-.18-.07.33.33,0,0,0-.17,0,.29.29,0,0,0-.15.36.1.1,0,0,0,.13.07.09.09,0,0,0,.07-.12.08.08,0,0,1,0,0h0v0h0v0s0,0,0,0h0v0h0l0,0h0l0,0h0s0,0,0,0h.12s0,0,0,0v0s0,0,0,0h0s0,0,0,0h0v0s0,0,0,0v0h0v0h0s0,0,0,0l0,0h0l0,0s0,0,0,0h0l0,0h0s0,0,0,0h-.07l0,0s0,0,0,0v0s0,0,0,0h0a.1.1,0,0,0-.13-.08A.11.11,0,0,0,237.86,228.75Z"/>
            <path d="M239.15,228.18a.21.21,0,0,0,.39-.13.21.21,0,0,0-.39.13Z"/>
            <path d="M239.05,228.21a.3.3,0,0,0,.12.17.27.27,0,0,0,.17,0,.31.31,0,0,0,.29-.17.31.31,0,0,0-.08-.37.29.29,0,0,0-.18-.07.33.33,0,0,0-.17,0,.3.3,0,0,0-.15.36.11.11,0,0,0,.13.07.09.09,0,0,0,.07-.12s0,0,0,0h0v0h0v0s0,0,0,0h0v0h0l0,0h0l0,0h0s0,0,0,0h0s0,0,0,0h0s0,0,0,0h0s0,0,0,0h0v0h0s0,0,0,0v0h0s0,0,0,0h0s0,0,0,0l0,0h0a0,0,0,0,1,0,0h-.12s0,0,0,0h0s0,0,0,0l0,0s0,0,0,0v0h0a.11.11,0,0,0-.13-.08A.11.11,0,0,0,239.05,228.21Z"/>
            <path d="M240.29,227.57a.21.21,0,0,0,.4-.13.21.21,0,0,0-.4.13Z"/>
            <path d="M240.19,227.6a.31.31,0,0,0,.13.17.25.25,0,0,0,.17,0,.3.3,0,0,0,.2-.54.29.29,0,0,0-.18-.07.33.33,0,0,0-.17,0,.31.31,0,0,0-.15.36.11.11,0,0,0,.13.07.09.09,0,0,0,.07-.12s0,0,0,0,0,0,0,0v0h0v0s0,0,0,0h0v0h0l0,0h0s0,0,0,0l0,0h.12s0,0,0,0v0h0s0,0,0,0,0,0,0,0h0v0s0,0,0,0v0h0s0,0,0,0v0h0s0,0,0,0v0s0,0,0,0h0a0,0,0,0,1,0,0s0,0,0,0h0l0,0h0s0,0,0,0h-.07s0,0,0,0h0s0,0,0,0,0,0,0,0v0h0a.1.1,0,0,0-.13-.08A.11.11,0,0,0,240.19,227.6Z"/>
            <path class="cls-23"
                  d="M235.58,227.7s0,0,0,0l0,0a.56.56,0,0,1,0,.08c0,.08.07.15.1.23a1.82,1.82,0,0,1,.11.46,1.72,1.72,0,0,1-.19.86c-.05.12.14.22.19.09a1.89,1.89,0,0,0,.18-1.17,2.57,2.57,0,0,0-.23-.6c-.07-.13-.28-.28-.41-.13s.08.24.16.14Z"/>
            <path class="cls-23"
                  d="M237,229.06a1.73,1.73,0,0,0-.28-.56,4.63,4.63,0,0,0-.4-.48,3,3,0,0,0-.46-.41.55.55,0,0,0-.25-.13.32.32,0,0,0-.24.09c-.1.09.06.22.16.14s.16,0,.21.07l.17.14a4,4,0,0,1,.36.35,2.18,2.18,0,0,1,.53.85c0,.14.23.07.2-.06Z"/>
            <path class="cls-23"
                  d="M236.23,227.55a2.44,2.44,0,0,1-.07,1,1.81,1.81,0,0,1-.14.45,2.91,2.91,0,0,1-.26.45c-.07.11.11.2.19.09a3.47,3.47,0,0,0,.27-.46,4,4,0,0,0,.15-.49,2.7,2.7,0,0,0,.07-1c0-.13-.23-.12-.21,0Z"/>
            <path class="cls-23"
                  d="M238.28,228.61c-.05-.2-.23-.3-.39-.41a3.89,3.89,0,0,1-.43-.38,1.71,1.71,0,0,0-1-.4c-.13,0-.18.19,0,.2a1.51,1.51,0,0,1,.86.36c.13.11.25.24.39.34s.33.18.37.35.23.07.2-.06Z"/>
            <path class="cls-23"
                  d="M237.46,227.16a.85.85,0,0,0-.32.38l-.2.51a3.25,3.25,0,0,0-.13,1.12c0,.13.2.12.21,0a2.91,2.91,0,0,1,.11-1l.17-.44a.7.7,0,0,1,.28-.37c.12-.07,0-.24-.12-.17Z"/>
            <path class="cls-23"
                  d="M239.43,228a2,2,0,0,0-.4-.36,2.73,2.73,0,0,0-.47-.27c-.15-.08-.33-.1-.48-.17a1,1,0,0,0-.47-.11c-.14,0-.12.21,0,.2a1,1,0,0,1,.4.11c.15.06.31.09.45.15a2.8,2.8,0,0,1,.41.25,1.47,1.47,0,0,1,.38.32c.08.1.25,0,.17-.12Z"/>
            <path class="cls-23"
                  d="M238.6,226.79a.53.53,0,0,0-.27.35,2.78,2.78,0,0,0-.11.5c0,.16-.1.31-.13.48a1.51,1.51,0,0,0,0,.52c0,.13.23.12.21,0a1.36,1.36,0,0,1,0-.45c0-.15.09-.28.12-.43a1.52,1.52,0,0,0,0-.21,1.89,1.89,0,0,1,.05-.23c0-.1.06-.27.17-.32s.09-.08.07-.13a.11.11,0,0,0-.13-.07Z"/>
            <path class="cls-23"
                  d="M240.56,227.44a.65.65,0,0,1-.16-.13l-.17-.14a1.72,1.72,0,0,0-.42-.18c-.33-.09-.66-.15-1-.22a.1.1,0,0,0,0,.2c.32.07.65.13,1,.22a1.36,1.36,0,0,1,.39.17,2.78,2.78,0,0,0,.34.26.1.1,0,1,0,.09-.18Z"/>
            <path class="cls-23"
                  d="M239.58,226.42a5.52,5.52,0,0,1-.3,1.61.11.11,0,0,0,.08.12.11.11,0,0,0,.13-.08,5.58,5.58,0,0,0,.29-1.67c0-.13-.2-.12-.2,0Z"/>
            <path class="cls-24"
                  d="M239.79,228.37a1.06,1.06,0,0,0,.53-.61.66.66,0,0,0-.25-.69h0s0-.05,0-.08,0,0,0-.07a.39.39,0,0,0-.08-.1l0,0a1.1,1.1,0,0,0,0-.18.23.23,0,0,0-.13-.19,1.86,1.86,0,0,0-.46-.19,1.91,1.91,0,0,0-1.06.05c-.27.08-.65.25-.53.6s.57.41.87.37h.09a1.11,1.11,0,0,0-.3.17,6,6,0,0,1-.45.42,1,1,0,0,1-.64.18c-.13,0-.12.21,0,.21a1.4,1.4,0,0,0,1.09-.53,2,2,0,0,1,1-.47,2.71,2.71,0,0,0-.4.35,1.37,1.37,0,0,0-.26.37,1.2,1.2,0,0,1-.22.36c-.09.1.07.24.16.14s.24-.47.42-.67a2.34,2.34,0,0,1,.32-.31,1,1,0,0,1,.31-.18.49.49,0,0,1-.13.12c-.12.1-.25.17-.36.27s-.38.5-.2.72S239.57,228.5,239.79,228.37ZM238.63,227a1.14,1.14,0,0,1-.45,0c-.11,0-.27-.12-.25-.27s.15-.17.24-.21a2.08,2.08,0,0,1,.89-.14,1.66,1.66,0,0,1,.45.12c.05,0,.17.06.2.11a.32.32,0,0,1,0,.14v0l0,0h0a.27.27,0,0,0-.07.08,1.23,1.23,0,0,0-.54,0A4.45,4.45,0,0,1,238.63,227Zm.74,1.28c-.08,0-.2,0-.22-.09a.41.41,0,0,1,.11-.29,1.09,1.09,0,0,1,.24-.24,1,1,0,0,0,.44-.45h0a.49.49,0,0,1,.16.45.85.85,0,0,1-.43.5A1,1,0,0,1,239.37,228.32Z"/>
            <path class="cls-25"
                  d="M236.69,192.06l1.75.62.9-6.69-.91-4.45-2.32,1.58,1.07,1.08a1.29,1.29,0,0,1,.35,1.09L236.45,192Z"/>
            <path class="cls-26"
                  d="M247,193.77a12.36,12.36,0,0,1-2.64.37c-1.9,0-4.64.17-5.93-1l-.08-.21c.16-1.66.23-7,.23-7a3.4,3.4,0,0,0-2.45-2.8l6.49-4.41a5.9,5.9,0,0,0,2-2.07c.32.36.71.8,1.11,1.28a7.76,7.76,0,0,1,1.5,7.21c-.09.29-.19.6-.32.91A75.57,75.57,0,0,1,247,193.77Z"/>
            <path class="cls-14"
                  d="M238.53,193.83c-.21,1.53-.56,4.4-.63,5,.42,0,1.1-.3,1-.88C238.85,197.07,239.42,194.62,238.53,193.83Z"/>
            <path class="cls-16"
                  d="M238.17,193.58a3.86,3.86,0,0,1-1.07-2.08l-.09-12a10.16,10.16,0,0,0-.17-1.74L235.56,171a9.65,9.65,0,0,0-2.35,0,4.58,4.58,0,0,0-1.76.62l2.42,8.69,1.47,11a7.58,7.58,0,0,0,.32,1.41,48.43,48.43,0,0,1,1.65,5.67c-.06.53,1.46.24,1.37-.62S239.06,194.37,238.17,193.58Z"/>
            <circle class="cls-27" cx="232.66" cy="89.89" r="53.72"/>
            <polygon class="cls-28"
                     points="258.62 69.59 252.96 63.93 232.66 84.23 212.36 63.93 206.7 69.59 227 89.89 206.7 110.19 212.36 115.84 232.66 95.54 252.96 115.84 258.62 110.19 238.32 89.89 258.62 69.59"/>
        </g>
    </g>
</svg>
