<svg xmlns="http://www.w3.org/2000/svg" xmlns:xlink="http://www.w3.org/1999/xlink" viewBox="0 0 456.01 262.12">
    <defs>
        <style>
            .cls-1,.cls-16,.cls-2,.cls-25,.cls-3,.cls-4,.cls-5,.cls-6{fill:none;stroke-miterlimit:10;}.cls-1,.cls-2,.cls-3,.cls-4,.cls-5,.cls-6{stroke-width:2px;}.cls-1{stroke:url(#未命名的渐变_26);}.cls-2{stroke:url(#未命名的渐变_26-2);}.cls-3{stroke:url(#未命名的渐变_26-3);}.cls-4{stroke:url(#未命名的渐变_26-4);}.cls-5{stroke:url(#未命名的渐变_26-5);}.cls-6{stroke:url(#未命名的渐变_26-6);}.cls-10,.cls-11,.cls-12,.cls-7,.cls-9{opacity:0.4;}.cls-7{fill:url(#未命名的渐变_26-7);}.cls-8{opacity:0.7;}.cls-9{fill:url(#未命名的渐变_26-8);}.cls-10{fill:url(#未命名的渐变_26-9);}.cls-11{fill:url(#未命名的渐变_26-10);}.cls-12{fill:url(#未命名的渐变_26-11);}.cls-13{fill:#40a8f5;}.cls-14{fill:#53b9f5;}.cls-15{fill:#8cd7ff;}.cls-16{stroke:#4986d9;stroke-width:0.11px;}.cls-17{fill:#ffeed2;}.cls-18{fill:#e55c5c;opacity:0.2;}.cls-19{fill:#e49056;}.cls-20{fill:#ebfcff;}.cls-21{fill:#ffb056;}.cls-22{fill:#398eed;}.cls-23{fill:#fae6d2;}.cls-24{fill:#257fba;}.cls-25{stroke:#e49056;stroke-width:0.22px;}
        </style>
        <linearGradient id="未命名的渐变_26" x1="1" y1="91.35" x2="1" y2="181.12" gradientUnits="userSpaceOnUse">
            <stop offset="0" stop-color="#81cfff"/>
            <stop offset="1" stop-color="#5ecfff" stop-opacity="0"/>
        </linearGradient>
        <linearGradient id="未命名的渐变_26-2" x1="455.01" y1="72.11" x2="455.01" y2="161.88" xlink:href="#未命名的渐变_26"/>
        <linearGradient id="未命名的渐变_26-3" x1="40.9" y1="143.88" x2="40.9" y2="199.51" xlink:href="#未命名的渐变_26"/>
        <linearGradient id="未命名的渐变_26-4" x1="64.97" y1="95.36" x2="64.97" y2="123.17" xlink:href="#未命名的渐变_26"/>
        <linearGradient id="未命名的渐变_26-5" x1="397.23" y1="104.2" x2="397.23" y2="132.02" xlink:href="#未命名的渐变_26"/>
        <linearGradient id="未命名的渐变_26-6" x1="424.75" y1="133.49" x2="424.75" y2="189.13" xlink:href="#未命名的渐变_26"/>
        <linearGradient id="未命名的渐变_26-7" x1="232.75" y1="224.43" x2="232.75" y2="262.12" xlink:href="#未命名的渐变_26"/>
        <linearGradient id="未命名的渐变_26-8" x1="349.36" y1="26.68" x2="349.36" y2="204.03" xlink:href="#未命名的渐变_26"/>
        <linearGradient id="未命名的渐变_26-9" x1="201.45" y1="55.61" x2="201.45" y2="204.03" xlink:href="#未命名的渐变_26"/>
        <linearGradient id="未命名的渐变_26-10" x1="122.98" y1="26.68" x2="122.98" y2="204.03" xlink:href="#未命名的渐变_26"/>
        <linearGradient id="未命名的渐变_26-11" x1="273.51" y1="0" x2="273.51" y2="209.54" xlink:href="#未命名的渐变_26"/>
    </defs>
    <title>暂无数据</title>
    <g id="图层_2" data-name="图层 2">
        <g id="图层_1-2" data-name="图层 1">
            <line class="cls-1" x1="1" y1="91.35" x2="1" y2="181.12"/>
            <line class="cls-2" x1="455.01" y1="72.11" x2="455.01" y2="161.88"/>
            <line class="cls-3" x1="40.9" y1="143.88" x2="40.9" y2="199.51"/>
            <line class="cls-4" x1="64.97" y1="95.36" x2="64.97" y2="123.17"/>
            <line class="cls-5" x1="397.23" y1="104.2" x2="397.23" y2="132.02"/>
            <line class="cls-6" x1="424.75" y1="133.49" x2="424.75" y2="189.13"/>
            <path class="cls-7" d="M412.28,262.12c-23-23-61-37.69-179.53-37.69S76.24,239.1,53.21,262.12Z"/>
            <g class="cls-8">
                <path class="cls-9"
                      d="M380.66,26.68H318.07a2.71,2.71,0,0,0-2.82,2.59V201.44a2.71,2.71,0,0,0,2.82,2.59h62.59a2.72,2.72,0,0,0,2.82-2.59V29.27A2.72,2.72,0,0,0,380.66,26.68ZM328.3,147a.9.9,0,0,1-.95.87h-3.6a.9.9,0,0,1-.95-.87V127.27a.91.91,0,0,1,.95-.87h3.6a.91.91,0,0,1,.95.87Zm0-30.23a.91.91,0,0,1-.95.87h-3.6a.91.91,0,0,1-.95-.87V97a.91.91,0,0,1,.95-.87h3.6a.91.91,0,0,1,.95.87Zm0-30.24a.91.91,0,0,1-.95.87h-3.6a.91.91,0,0,1-.95-.87V66.8a.91.91,0,0,1,.95-.87h3.6a.91.91,0,0,1,.95.87Zm0-30.24a.91.91,0,0,1-.95.87h-3.6a.91.91,0,0,1-.95-.87V36.56a.91.91,0,0,1,.95-.87h3.6a.91.91,0,0,1,.95.87ZM340,147a.9.9,0,0,1-.94.87h-3.61a.91.91,0,0,1-.95-.87V127.27a.92.92,0,0,1,.95-.87h3.61a.91.91,0,0,1,.94.87Zm0-30.23a.91.91,0,0,1-.94.87h-3.61a.92.92,0,0,1-.95-.87V97a.92.92,0,0,1,.95-.87h3.61A.91.91,0,0,1,340,97Zm0-30.24a.91.91,0,0,1-.94.87h-3.61a.92.92,0,0,1-.95-.87V66.8a.92.92,0,0,1,.95-.87h3.61a.91.91,0,0,1,.94.87Zm0-30.24a.91.91,0,0,1-.94.87h-3.61a.92.92,0,0,1-.95-.87V36.56a.92.92,0,0,1,.95-.87h3.61a.91.91,0,0,1,.94.87ZM351.7,147a.9.9,0,0,1-.94.87h-3.61a.9.9,0,0,1-.94-.87V127.27a.91.91,0,0,1,.94-.87h3.61a.91.91,0,0,1,.94.87Zm0-30.23a.91.91,0,0,1-.94.87h-3.61a.91.91,0,0,1-.94-.87V97a.91.91,0,0,1,.94-.87h3.61a.91.91,0,0,1,.94.87Zm0-30.24a.91.91,0,0,1-.94.87h-3.61a.91.91,0,0,1-.94-.87V66.8a.91.91,0,0,1,.94-.87h3.61a.91.91,0,0,1,.94.87Zm0-30.24a.91.91,0,0,1-.94.87h-3.61a.91.91,0,0,1-.94-.87V36.56a.91.91,0,0,1,.94-.87h3.61a.91.91,0,0,1,.94.87ZM363.4,147a.9.9,0,0,1-.94.87h-3.61a.9.9,0,0,1-.94-.87V127.27a.91.91,0,0,1,.94-.87h3.61a.91.91,0,0,1,.94.87Zm0-30.23a.91.91,0,0,1-.94.87h-3.61a.91.91,0,0,1-.94-.87V97a.91.91,0,0,1,.94-.87h3.61a.91.91,0,0,1,.94.87Zm0-30.24a.91.91,0,0,1-.94.87h-3.61a.91.91,0,0,1-.94-.87V66.8a.91.91,0,0,1,.94-.87h3.61a.91.91,0,0,1,.94.87Zm0-30.24a.91.91,0,0,1-.94.87h-3.61a.91.91,0,0,1-.94-.87V36.56a.91.91,0,0,1,.94-.87h3.61a.91.91,0,0,1,.94.87ZM375.11,147a.91.91,0,0,1-.95.87h-3.61a.9.9,0,0,1-.94-.87V127.27a.91.91,0,0,1,.94-.87h3.61a.92.92,0,0,1,.95.87Zm0-30.23a.92.92,0,0,1-.95.87h-3.61a.91.91,0,0,1-.94-.87V97a.91.91,0,0,1,.94-.87h3.61a.92.92,0,0,1,.95.87Zm0-30.24a.92.92,0,0,1-.95.87h-3.61a.91.91,0,0,1-.94-.87V66.8a.91.91,0,0,1,.94-.87h3.61a.92.92,0,0,1,.95.87Zm0-30.24a.92.92,0,0,1-.95.87h-3.61a.91.91,0,0,1-.94-.87V36.56a.91.91,0,0,1,.94-.87h3.61a.92.92,0,0,1,.95.87Z"/>
                <path class="cls-10"
                      d="M231.1,55.61H171.8A2.71,2.71,0,0,0,169,58.2V201.44A2.71,2.71,0,0,0,171.8,204h59.3a2.71,2.71,0,0,0,2.82-2.59V58.2A2.71,2.71,0,0,0,231.1,55.61ZM182.47,159.37a1.16,1.16,0,0,1-1.2,1.11h-5.4a1.16,1.16,0,0,1-1.2-1.11v-5.22a1.15,1.15,0,0,1,1.2-1.1h5.4a1.15,1.15,0,0,1,1.2,1.1Zm0-12.88a1.15,1.15,0,0,1-1.2,1.1h-5.4a1.15,1.15,0,0,1-1.2-1.1v-5.22a1.16,1.16,0,0,1,1.2-1.11h5.4a1.16,1.16,0,0,1,1.2,1.11Zm0-12.89a1.16,1.16,0,0,1-1.2,1.11h-5.4a1.16,1.16,0,0,1-1.2-1.11v-5.22a1.15,1.15,0,0,1,1.2-1.1h5.4a1.15,1.15,0,0,1,1.2,1.1Zm0-12.88a1.15,1.15,0,0,1-1.2,1.1h-5.4a1.15,1.15,0,0,1-1.2-1.1V115.5a1.16,1.16,0,0,1,1.2-1.11h5.4a1.16,1.16,0,0,1,1.2,1.11Zm0-12.89a1.16,1.16,0,0,1-1.2,1.11h-5.4a1.16,1.16,0,0,1-1.2-1.11v-5.21a1.15,1.15,0,0,1,1.2-1.11h5.4a1.15,1.15,0,0,1,1.2,1.11Zm0-12.88a1.15,1.15,0,0,1-1.2,1.1h-5.4a1.15,1.15,0,0,1-1.2-1.1V89.73a1.16,1.16,0,0,1,1.2-1.11h5.4a1.16,1.16,0,0,1,1.2,1.11Zm0-12.89a1.16,1.16,0,0,1-1.2,1.11h-5.4a1.16,1.16,0,0,1-1.2-1.11V76.85a1.15,1.15,0,0,1,1.2-1.11h5.4a1.15,1.15,0,0,1,1.2,1.11Zm0-12.88a1.15,1.15,0,0,1-1.2,1.1h-5.4a1.15,1.15,0,0,1-1.2-1.1V64a1.16,1.16,0,0,1,1.2-1.11h5.4a1.16,1.16,0,0,1,1.2,1.11Zm10.08,90.19a1.16,1.16,0,0,1-1.2,1.11H186a1.16,1.16,0,0,1-1.21-1.11v-5.22a1.16,1.16,0,0,1,1.21-1.1h5.4a1.15,1.15,0,0,1,1.2,1.1Zm0-12.88a1.15,1.15,0,0,1-1.2,1.1H186a1.16,1.16,0,0,1-1.21-1.1v-5.22a1.16,1.16,0,0,1,1.21-1.11h5.4a1.16,1.16,0,0,1,1.2,1.11Zm0-12.89a1.16,1.16,0,0,1-1.2,1.11H186a1.16,1.16,0,0,1-1.21-1.11v-5.22a1.16,1.16,0,0,1,1.21-1.1h5.4a1.15,1.15,0,0,1,1.2,1.1Zm0-12.88a1.15,1.15,0,0,1-1.2,1.1H186a1.16,1.16,0,0,1-1.21-1.1V115.5a1.16,1.16,0,0,1,1.21-1.11h5.4a1.16,1.16,0,0,1,1.2,1.11Zm0-12.89a1.16,1.16,0,0,1-1.2,1.11H186a1.16,1.16,0,0,1-1.21-1.11v-5.21a1.16,1.16,0,0,1,1.21-1.11h5.4a1.15,1.15,0,0,1,1.2,1.11Zm0-12.88a1.15,1.15,0,0,1-1.2,1.1H186a1.16,1.16,0,0,1-1.21-1.1V89.73A1.16,1.16,0,0,1,186,88.62h5.4a1.16,1.16,0,0,1,1.2,1.11Zm0-12.89a1.16,1.16,0,0,1-1.2,1.11H186a1.16,1.16,0,0,1-1.21-1.11V76.85A1.16,1.16,0,0,1,186,75.74h5.4a1.15,1.15,0,0,1,1.2,1.11Zm0-12.88a1.15,1.15,0,0,1-1.2,1.1H186a1.16,1.16,0,0,1-1.21-1.1V64A1.16,1.16,0,0,1,186,62.85h5.4a1.16,1.16,0,0,1,1.2,1.11Zm10.08,90.19a1.16,1.16,0,0,1-1.21,1.11H196a1.16,1.16,0,0,1-1.2-1.11v-5.22a1.15,1.15,0,0,1,1.2-1.1h5.4a1.16,1.16,0,0,1,1.21,1.1Zm0-12.88a1.16,1.16,0,0,1-1.21,1.1H196a1.15,1.15,0,0,1-1.2-1.1v-5.22a1.16,1.16,0,0,1,1.2-1.11h5.4a1.16,1.16,0,0,1,1.21,1.11Zm0-12.89a1.16,1.16,0,0,1-1.21,1.11H196a1.16,1.16,0,0,1-1.2-1.11v-5.22a1.15,1.15,0,0,1,1.2-1.1h5.4a1.16,1.16,0,0,1,1.21,1.1Zm0-12.88a1.16,1.16,0,0,1-1.21,1.1H196a1.15,1.15,0,0,1-1.2-1.1V115.5a1.16,1.16,0,0,1,1.2-1.11h5.4a1.16,1.16,0,0,1,1.21,1.11Zm0-12.89a1.16,1.16,0,0,1-1.21,1.11H196a1.16,1.16,0,0,1-1.2-1.11v-5.21a1.15,1.15,0,0,1,1.2-1.11h5.4a1.16,1.16,0,0,1,1.21,1.11Zm0-12.88a1.16,1.16,0,0,1-1.21,1.1H196a1.15,1.15,0,0,1-1.2-1.1V89.73a1.16,1.16,0,0,1,1.2-1.11h5.4a1.16,1.16,0,0,1,1.21,1.11Zm0-12.89a1.16,1.16,0,0,1-1.21,1.11H196a1.16,1.16,0,0,1-1.2-1.11V76.85a1.15,1.15,0,0,1,1.2-1.11h5.4a1.16,1.16,0,0,1,1.21,1.11Zm0-12.88a1.16,1.16,0,0,1-1.21,1.1H196a1.15,1.15,0,0,1-1.2-1.1V64a1.16,1.16,0,0,1,1.2-1.11h5.4A1.16,1.16,0,0,1,202.63,64Zm25.21,90.19a1.16,1.16,0,0,1-1.2,1.11H206.1a1.16,1.16,0,0,1-1.2-1.11v-5.22a1.15,1.15,0,0,1,1.2-1.1h20.54a1.15,1.15,0,0,1,1.2,1.1Zm0-12.88a1.15,1.15,0,0,1-1.2,1.1H206.1a1.15,1.15,0,0,1-1.2-1.1v-5.22a1.16,1.16,0,0,1,1.2-1.11h20.54a1.16,1.16,0,0,1,1.2,1.11Zm0-12.89a1.16,1.16,0,0,1-1.2,1.11H206.1a1.16,1.16,0,0,1-1.2-1.11v-5.22a1.15,1.15,0,0,1,1.2-1.1h20.54a1.15,1.15,0,0,1,1.2,1.1Zm0-12.88a1.15,1.15,0,0,1-1.2,1.1H206.1a1.15,1.15,0,0,1-1.2-1.1V115.5a1.16,1.16,0,0,1,1.2-1.11h20.54a1.16,1.16,0,0,1,1.2,1.11Zm0-12.89a1.16,1.16,0,0,1-1.2,1.11H206.1a1.16,1.16,0,0,1-1.2-1.11v-5.21a1.15,1.15,0,0,1,1.2-1.11h20.54a1.15,1.15,0,0,1,1.2,1.11Zm0-12.88a1.15,1.15,0,0,1-1.2,1.1H206.1a1.15,1.15,0,0,1-1.2-1.1V89.73a1.16,1.16,0,0,1,1.2-1.11h20.54a1.16,1.16,0,0,1,1.2,1.11Zm0-12.89a1.16,1.16,0,0,1-1.2,1.11H206.1a1.16,1.16,0,0,1-1.2-1.11V76.85a1.15,1.15,0,0,1,1.2-1.11h20.54a1.15,1.15,0,0,1,1.2,1.11Zm0-12.88a1.15,1.15,0,0,1-1.2,1.1H206.1a1.15,1.15,0,0,1-1.2-1.1V64a1.16,1.16,0,0,1,1.2-1.11h20.54a1.16,1.16,0,0,1,1.2,1.11Z"/>
                <path class="cls-11"
                      d="M161.13,26.68H84.83A2.71,2.71,0,0,0,82,29.27V201.44A2.71,2.71,0,0,0,84.83,204h76.3a2.71,2.71,0,0,0,2.82-2.59V29.27A2.71,2.71,0,0,0,161.13,26.68ZM154.34,161a1.16,1.16,0,0,1-1.2,1.11H92.83A1.16,1.16,0,0,1,91.62,161v-5.21a1.16,1.16,0,0,1,1.21-1.11h60.31a1.15,1.15,0,0,1,1.2,1.11Zm0-14.67a1.15,1.15,0,0,1-1.2,1.1H92.83a1.16,1.16,0,0,1-1.21-1.1v-5.22A1.16,1.16,0,0,1,92.83,140h60.31a1.16,1.16,0,0,1,1.2,1.11Zm0-14.68a1.16,1.16,0,0,1-1.2,1.11H92.83a1.16,1.16,0,0,1-1.21-1.11v-5.22a1.16,1.16,0,0,1,1.21-1.1h60.31a1.15,1.15,0,0,1,1.2,1.1Zm0-14.68a1.16,1.16,0,0,1-1.2,1.11H92.83a1.16,1.16,0,0,1-1.21-1.11v-5.21a1.16,1.16,0,0,1,1.21-1.11h60.31a1.15,1.15,0,0,1,1.2,1.11Zm0-14.67a1.15,1.15,0,0,1-1.2,1.1H92.83a1.16,1.16,0,0,1-1.21-1.1V97a1.16,1.16,0,0,1,1.21-1.11h60.31a1.16,1.16,0,0,1,1.2,1.11Zm0-14.68a1.16,1.16,0,0,1-1.2,1.11H92.83a1.16,1.16,0,0,1-1.21-1.11V82.35a1.16,1.16,0,0,1,1.21-1.1h60.31a1.15,1.15,0,0,1,1.2,1.1Zm0-14.68a1.16,1.16,0,0,1-1.2,1.11H92.83a1.16,1.16,0,0,1-1.21-1.11V67.68a1.16,1.16,0,0,1,1.21-1.11h60.31a1.15,1.15,0,0,1,1.2,1.11Zm0-14.67a1.15,1.15,0,0,1-1.2,1.1H92.83a1.16,1.16,0,0,1-1.21-1.1V53a1.16,1.16,0,0,1,1.21-1.11h60.31a1.16,1.16,0,0,1,1.2,1.11Zm0-14.68a1.16,1.16,0,0,1-1.2,1.11H92.83a1.16,1.16,0,0,1-1.21-1.11V38.32a1.16,1.16,0,0,1,1.21-1.1h60.31a1.15,1.15,0,0,1,1.2,1.1Z"/>
                <path class="cls-12"
                      d="M306.21,0H240.82a2.51,2.51,0,0,0-2.42,2.59V206.94a2.51,2.51,0,0,0,2.42,2.6h65.39a2.51,2.51,0,0,0,2.41-2.6V2.59A2.51,2.51,0,0,0,306.21,0Zm-5.82,134.28a1.06,1.06,0,0,1-1,1.1H247.67a1.06,1.06,0,0,1-1-1.1v-5.22a1.07,1.07,0,0,1,1-1.11h51.69a1.07,1.07,0,0,1,1,1.11Zm0-14.68a1.07,1.07,0,0,1-1,1.11H247.67a1.07,1.07,0,0,1-1-1.11v-5.22a1.06,1.06,0,0,1,1-1.1h51.69a1.06,1.06,0,0,1,1,1.1Zm0-14.68a1.07,1.07,0,0,1-1,1.11H247.67a1.07,1.07,0,0,1-1-1.11V99.71a1.07,1.07,0,0,1,1-1.11h51.69a1.07,1.07,0,0,1,1,1.11Zm0-14.67a1.06,1.06,0,0,1-1,1.1H247.67a1.06,1.06,0,0,1-1-1.1V85a1.07,1.07,0,0,1,1-1.11h51.69a1.07,1.07,0,0,1,1,1.11Zm0-14.68a1.07,1.07,0,0,1-1,1.11H247.67a1.07,1.07,0,0,1-1-1.11V70.35a1.06,1.06,0,0,1,1-1.1h51.69a1.06,1.06,0,0,1,1,1.1Zm0-14.68a1.07,1.07,0,0,1-1,1.11H247.67a1.07,1.07,0,0,1-1-1.11V55.68a1.07,1.07,0,0,1,1-1.11h51.69a1.07,1.07,0,0,1,1,1.11Zm0-14.67a1.06,1.06,0,0,1-1,1.1H247.67a1.06,1.06,0,0,1-1-1.1V41a1.07,1.07,0,0,1,1-1.11h51.69a1.07,1.07,0,0,1,1,1.11Zm0-14.68a1.07,1.07,0,0,1-1,1.11H247.67a1.07,1.07,0,0,1-1-1.11V26.32a1.06,1.06,0,0,1,1-1.1h51.69a1.06,1.06,0,0,1,1,1.1Zm0-14.68a1.07,1.07,0,0,1-1,1.11H247.67a1.07,1.07,0,0,1-1-1.11V11.65a1.07,1.07,0,0,1,1-1.11h51.69a1.07,1.07,0,0,1,1,1.11Z"/>
            </g>
            <path class="cls-13"
                  d="M295.06,98.88V177c-4.93-3.84-14.28-5.29-15.66-5.42V98.88a7.83,7.83,0,0,1,11.71-6.8,7.94,7.94,0,0,1,1.66,1.27A7.77,7.77,0,0,1,295.06,98.88Z"/>
            <path class="cls-14"
                  d="M279.4,171.6v22.27a7.84,7.84,0,0,1-15.67,0V115.29a7.85,7.85,0,0,0-2.29-5.54,7.53,7.53,0,0,0-1.11-.92c-1.44-1.29-19.11-10.25-34.35-17.38V73.66a7.85,7.85,0,0,1,9.89-7.56l.18.05c4.45-.54,52.62,23.75,55.06,25.93a7.83,7.83,0,0,0-11.71,6.8Z"/>
            <path class="cls-13"
                  d="M263.73,193.87a7.83,7.83,0,0,0,4.86,7.24c-1.81-.29-10.49-4.09-20.48-8.73h0V115.29a7.83,7.83,0,0,1,12.26-6.46,7.53,7.53,0,0,1,1.11.92,7.85,7.85,0,0,1,2.29,5.54Z"/>
            <path class="cls-15"
                  d="M226,91.45c15.24,7.13,32.91,16.09,34.35,17.38a7.83,7.83,0,0,0-12.26,6.46v94.83a7.85,7.85,0,0,1-7.83,7.83,7.61,7.61,0,0,1-2.25-.33h-.08a7.83,7.83,0,0,1-5.5-7.48V201.7c-9.92-2-25.82-9.21-37.84-15.63a7.68,7.68,0,0,0,.09-1.17V90.07a7.82,7.82,0,0,1,7.83-7.83,6.88,6.88,0,0,1,1.29.11l.19,0C205.93,82.38,215.37,86.47,226,91.45Zm15.09,98.41v-5.15a.37.37,0,0,0-.2-.33L203,166.1a.37.37,0,0,0-.53.33v5.15a.36.36,0,0,0,.21.33l37.85,18.28A.36.36,0,0,0,241.07,189.86Zm0-22.38v-5.15a.37.37,0,0,0-.2-.33L203,143.72a.37.37,0,0,0-.53.33v5.15a.36.36,0,0,0,.21.33l37.85,18.28A.37.37,0,0,0,241.07,167.48Zm0-22.39V140a.36.36,0,0,0-.2-.33L203,121.34a.37.37,0,0,0-.53.33v5.15a.36.36,0,0,0,.21.33l37.85,18.27A.36.36,0,0,0,241.07,145.09Zm0-22.38v-5.15a.37.37,0,0,0-.2-.33L203,99a.36.36,0,0,0-.53.32v5.15a.36.36,0,0,0,.21.33L240.55,123A.36.36,0,0,0,241.07,122.71Z"/>
            <path class="cls-13"
                  d="M241.07,184.71v5.15a.36.36,0,0,1-.52.33L202.7,171.91a.36.36,0,0,1-.21-.33v-5.15a.37.37,0,0,1,.53-.33l37.85,18.28A.37.37,0,0,1,241.07,184.71Z"/>
            <path class="cls-13"
                  d="M241.07,162.33v5.15a.37.37,0,0,1-.52.33L202.7,149.53a.36.36,0,0,1-.21-.33v-5.15a.37.37,0,0,1,.53-.33L240.87,162A.37.37,0,0,1,241.07,162.33Z"/>
            <path class="cls-13"
                  d="M241.07,140v5.14a.36.36,0,0,1-.52.33L202.7,127.15a.36.36,0,0,1-.21-.33v-5.15a.37.37,0,0,1,.53-.33l37.85,18.28A.36.36,0,0,1,241.07,140Z"/>
            <path class="cls-13"
                  d="M241.07,117.56v5.15a.36.36,0,0,1-.52.33L202.7,104.76a.36.36,0,0,1-.21-.33V99.28A.36.36,0,0,1,203,99l37.85,18.27A.37.37,0,0,1,241.07,117.56Z"/>
            <path class="cls-14"
                  d="M232.41,210.12a7.83,7.83,0,0,0,5.5,7.48c-4.9-.95-50.65-22.79-55.32-26.12l-.09-.06A7.8,7.8,0,0,1,179,184.9v-8.42c2.09,1.89,8.08,5.58,15.58,9.59,12,6.42,27.92,13.66,37.84,15.63Z"/>
            <path class="cls-16"
                  d="M218.37,121.59c.32,0,.42,0,.38.2s.19,1-.18,1.09a17.78,17.78,0,0,1-4.14-.24c-.74-.08-3.1-.51-3.57-.49s-2.58-.08-3.14-.05A20.86,20.86,0,0,1,205,122c-.57-.1-2.36-.85-1.68-2.35"/>
            <path class="cls-16"
                  d="M232.42,114.62h0c.32,0,1.28,1.42,1.25,1.87a2.56,2.56,0,0,1-.92,1.64c-.48.27-2.58.21-3.18.83a9.7,9.7,0,0,0-1.87,2.59,2.29,2.29,0,0,1-2,1.21c-1,0-2.36-.1-3.41,0s-1.76-.07-1.73-1.16h0"/>
            <ellipse class="cls-17" cx="237.51" cy="60.25" rx="1.08" ry="0.74"
                     transform="translate(174.08 296.94) rotate(-89.23)"/>
            <ellipse class="cls-18" cx="237.51" cy="60.25" rx="0.63" ry="0.43"
                     transform="translate(174.08 296.94) rotate(-89.23)"/>
            <path class="cls-19" d="M240,66.35l.33.44a2.85,2.85,0,0,0,.09-.44C240.24,66.25,240,66.35,240,66.35Z"/>
            <path class="cls-19"
                  d="M235.15,67.17a.62.62,0,0,0,.3.48c.08-.22.16-.42.23-.59C235.68,67.06,235.26,67,235.15,67.17Z"/>
            <path class="cls-20"
                  d="M203.32,119.6c-.68,1.5,1.11,2.25,1.68,2.35a20.86,20.86,0,0,0,2.72.15c.56,0,2.66.06,3.14.05s2.83.41,3.57.49a17.78,17.78,0,0,0,4.14.24c.37,0,.13-.92.18-1.09s-.06-.15-.38-.2a20.73,20.73,0,0,1-4.39-.17c-.65-.11-2.71-.4-3.45-.43s-4,.06-4.83.09a3.51,3.51,0,0,1-1.67-.49,1.7,1.7,0,0,1-.69-1Z"/>
            <path class="cls-21"
                  d="M205.65,118.21c-2,.18-2.42.81-2.31,1.38a1.7,1.7,0,0,0,.69,1,3.51,3.51,0,0,0,1.67.49c.8,0,4.1-.11,4.83-.09s2.8.32,3.45.43a20.73,20.73,0,0,0,4.39.17,9,9,0,0,0-.11-3.42c0-.39.06-1,.32-1.08s-.18-.55-.49-.94a1.49,1.49,0,0,1-.61.63,5.16,5.16,0,0,1-1.72.36,2.7,2.7,0,0,1-2.37-.81h0c-.22-.21-.38-.41-.52-.52a4.93,4.93,0,0,1-2,1.72C210.11,117.9,207.13,118,205.65,118.21Z"/>
            <path class="cls-22"
                  d="M215,92.8l-2.22,22.48.81.15,3.89.72.17,0,2.09-14.61.55-3.81,4.56.1,15.31.34a1.58,1.58,0,0,0,1.61-1.41l.38-3.25c-2.33.3-6.45-1-7.89-3.05l-17.82.94A1.52,1.52,0,0,0,215,92.8Z"/>
            <path class="cls-23" d="M213.54,115.43l-.15.89h0a2.7,2.7,0,0,0,2.37.81,5.16,5.16,0,0,0,1.72-.36l0-.63Z"/>
            <path class="cls-24"
                  d="M216.56,90.26a1,1,0,0,0-.77,1.23l0,.08h0a1.54,1.54,0,0,1,.57-.14l17.82-.94a2.6,2.6,0,0,1-.51-1.38Z"/>
            <polygon class="cls-24"
                     points="229.08 111.78 228.91 111.25 224.81 97.86 224.81 97.86 220.24 97.76 219.69 101.57 224.34 115.04 225.61 114.24 229.15 112.03 229.08 111.78"/>
            <path class="cls-21"
                  d="M221.62,119.06c-.3.18-1.18,1.26-1.13,1.79a4.27,4.27,0,0,0,0,.72h0a.41.41,0,0,0,.25.25,25.52,25.52,0,0,0,4.65.06,1.82,1.82,0,0,0,1.52-1.07,8.42,8.42,0,0,1,1.41-2.12c1.47-1.64,3.84-1,4.19-1.86a2.48,2.48,0,0,0-.13-2.22h0a.65.65,0,0,0-.25-.22,4.4,4.4,0,0,1-1.46-1.42,7.94,7.94,0,0,1-.48-1.73,3.32,3.32,0,0,0-1.32,0l.17.53c.34,0,.86.2.77.63a1.24,1.24,0,0,1-.36.78,2.64,2.64,0,0,0-.68.89c-.12.32-.16,1.15-.52,1.3s-.93.12-1-.24-.05-.59-.5-.67a6.64,6.64,0,0,0-1.05-.12h0c-.09.08.06.56.27.91a1,1,0,0,1,.05,1.14c-.23.37-1.4,2.18-2,2.3A16.34,16.34,0,0,0,221.62,119.06Z"/>
            <path class="cls-20"
                  d="M220.53,121.58c0,1.09.68,1.25,1.73,1.16s2.4,0,3.41,0a2.29,2.29,0,0,0,2-1.21,9.7,9.7,0,0,1,1.87-2.59c.6-.62,2.7-.56,3.18-.83a2.56,2.56,0,0,0,.92-1.64c0-.45-.93-1.87-1.25-1.87a2.48,2.48,0,0,1,.13,2.22c-.35.81-2.72.22-4.19,1.86a8.42,8.42,0,0,0-1.41,2.12,1.82,1.82,0,0,1-1.52,1.07,25.52,25.52,0,0,1-4.65-.06A.41.41,0,0,1,220.53,121.58Z"/>
            <path class="cls-23"
                  d="M225.61,114.24l.06.11h0a6.64,6.64,0,0,1,1.05.12c.45.08.38.31.5.67s.68.39,1,.24.4-1,.52-1.3a2.64,2.64,0,0,1,.68-.89,1.24,1.24,0,0,0,.36-.78c.09-.43-.43-.61-.77-.63l.07.25Z"/>
            <path class="cls-17"
                  d="M232.16,59.7c.32,1.48-.53,2.08-.34,2.87s.73.2,1.17.53a2.75,2.75,0,0,0,2.57,1.63,2.82,2.82,0,0,0,.57-.09,5.3,5.3,0,0,0,.67-.23l.4-.19a4.58,4.58,0,0,0,1.86-1.57h0a3.48,3.48,0,0,0,.35-.66,4.41,4.41,0,0,0,0-3c-.74-2.39-2.92-3.84-4.87-3.24A3.83,3.83,0,0,0,232.16,59.7Z"/>
            <path class="cls-21"
                  d="M234.78,75.13c-.13,1,.71,2.22,1.62,3.15l-1.9,2a1.52,1.52,0,0,1-.68.4l0,0s.37,7.15-.14,8.34a2.6,2.6,0,0,0,.51,1.38c1.44,2,5.56,3.35,7.89,3.05a3.18,3.18,0,0,0,.75-.17c.59-3.16.49-18.93.49-18.93v-.38a8.32,8.32,0,0,0-1.65-5.42l-.14-.18s-.65-1.31-1.16-2.11a2.85,2.85,0,0,1-.09.44,1.8,1.8,0,0,1-1.52,1.46,5.44,5.44,0,0,1-3.32-.6.62.62,0,0,1-.3-.48c-.35,1.31-.65,2.9-.65,2.9a22.06,22.06,0,0,0-1,5.65c0,.34.1,1,.13,1.37Z"/>
            <path class="cls-17"
                  d="M235.68,67.06c-.07.17-.15.37-.23.59a5.44,5.44,0,0,0,3.32.6,1.8,1.8,0,0,0,1.52-1.46l-.33-.44-.49-.66a13,13,0,0,1-.41-3,4.58,4.58,0,0,1-1.86,1.57l-.4.19a5.3,5.3,0,0,1-.67.23,3,3,0,0,1-.2,1.77C235.89,66.53,235.8,66.76,235.68,67.06Z"/>
            <path class="cls-23"
                  d="M219.65,89.54a.47.47,0,0,0-.15.4h0l.09,0c.41-.1,2.57-1.56,3.1-1.4a20.86,20.86,0,0,0,3.45-.12l4.9-6.64,2.1-3.72.53-.93c0-.37-.13-1-.13-1.37h0l-3,6.16L226,88.22s-2.83,0-3.12-.06A22.33,22.33,0,0,0,219.65,89.54Z"/>
            <polygon class="cls-13" points="226.45 89.96 215.76 90.5 216.54 89.84 225.62 89.41 226.45 89.96"/>
            <polygon class="cls-13" points="210.32 80.69 216.54 89.84 215.76 90.5 209.31 80.55 210.32 80.69"/>
            <polygon class="cls-14"
                     points="226.45 89.96 226.45 90.9 214.93 91.58 208.34 80.94 209.31 80.55 215.76 90.5 226.45 89.96"/>
            <path class="cls-17"
                  d="M231,81.74l-4.9,6.64a20.86,20.86,0,0,1-3.45.12c-.53-.16-2.69,1.3-3.1,1.4l-.09,0c-.35.21-.43,1.09.51.77a14,14,0,0,1,2.75-1c.62,0,2.54.18,3,.19a2.06,2.06,0,0,0,1.25-.25l5.72-6.24c.15-.12,3.66-5.17,3.66-5.17-.91-.93-1.75-2.15-1.62-3.15Z"/>
            <path d="M230.93,58a1.76,1.76,0,0,1,.4-.37c.09,0,.11-.06.2-.45a4.22,4.22,0,0,1,4.07-2.68h0a4,4,0,0,1,3.82,2.13s1.32,2.72.83,4a9.55,9.55,0,0,1-.7,1.46,3.49,3.49,0,0,0-.34.71c.21.28.36.31.36.31l.34,0-.3.16a.41.41,0,0,1-.23.06.79.79,0,0,1-.37-.1.92.92,0,0,1-.47-.67c-.07-.16-.32-.3-.55-.43s-.49-.28-.51-.47a1.39,1.39,0,0,1,0-.39c0-.46.13-1.24-.3-1.41a1.2,1.2,0,0,0-.41-.11h0a2.41,2.41,0,0,1,0,1.26l-.16.37-.05-.4a2.34,2.34,0,0,0-1.64-2,1.32,1.32,0,0,0-.74.16,1.36,1.36,0,0,1-.65.16,1.83,1.83,0,0,1-.44-.12.7.7,0,0,0-.55-.05,1.69,1.69,0,0,0-.45.19,1,1,0,0,1-.75.15.89.89,0,0,1-.61-.57A1,1,0,0,1,230.93,58Z"/>
            <line class="cls-25" x1="234.78" y1="75.13" x2="238.1" y2="70.52"/>
            <path class="cls-25" d="M240.89,75.52l-2.58,4.2a6.44,6.44,0,0,1-1.91-1.44"/>
        </g>
    </g>
</svg>
