<svg xmlns="http://www.w3.org/2000/svg" xmlns:xlink="http://www.w3.org/1999/xlink" viewBox="0 0 456.01 262.12">
    <defs>
        <style>
            .cls-1,.cls-2,.cls-20,.cls-22,.cls-23,.cls-3,.cls-4,.cls-5,.cls-6{fill:none;stroke-miterlimit:10;}.cls-1,.cls-2,.cls-3,.cls-4,.cls-5,.cls-6{stroke-width:2px;}.cls-1{stroke:url(#未命名的渐变_26);}.cls-2{stroke:url(#未命名的渐变_26-2);}.cls-3{stroke:url(#未命名的渐变_26-3);}.cls-4{stroke:url(#未命名的渐变_26-4);}.cls-5{stroke:url(#未命名的渐变_26-5);}.cls-6{stroke:url(#未命名的渐变_26-6);}.cls-10,.cls-11,.cls-12,.cls-7,.cls-9{opacity:0.4;}.cls-7{fill:url(#未命名的渐变_26-7);}.cls-8{opacity:0.7;}.cls-9{fill:url(#未命名的渐变_26-8);}.cls-10{fill:url(#未命名的渐变_26-9);}.cls-11{fill:url(#未命名的渐变_26-10);}.cls-12{fill:url(#未命名的渐变_26-11);}.cls-13{fill:#2c94ee;}.cls-14{fill:#8cd7ff;}.cls-15{fill:#40a8f5;}.cls-16{fill:#fff;}.cls-17{fill:#ffb056;}.cls-18{fill:#398eed;}.cls-19{fill:#ffeed2;}.cls-20{stroke:#000;stroke-width:0.23px;}.cls-21{fill:#ebfcff;}.cls-22{stroke:#e49056;stroke-width:0.26px;}.cls-23{stroke:#4986d9;stroke-width:0.13px;}
        </style>
        <linearGradient id="未命名的渐变_26" x1="1" y1="91.35" x2="1" y2="181.12" gradientUnits="userSpaceOnUse">
            <stop offset="0" stop-color="#81cfff"/>
            <stop offset="1" stop-color="#5ecfff" stop-opacity="0"/>
        </linearGradient>
        <linearGradient id="未命名的渐变_26-2" x1="455.01" y1="72.11" x2="455.01" y2="161.88" xlink:href="#未命名的渐变_26"/>
        <linearGradient id="未命名的渐变_26-3" x1="40.9" y1="143.88" x2="40.9" y2="199.51" xlink:href="#未命名的渐变_26"/>
        <linearGradient id="未命名的渐变_26-4" x1="64.97" y1="95.36" x2="64.97" y2="123.17" xlink:href="#未命名的渐变_26"/>
        <linearGradient id="未命名的渐变_26-5" x1="397.23" y1="104.2" x2="397.23" y2="132.02" xlink:href="#未命名的渐变_26"/>
        <linearGradient id="未命名的渐变_26-6" x1="424.75" y1="133.49" x2="424.75" y2="189.13" xlink:href="#未命名的渐变_26"/>
        <linearGradient id="未命名的渐变_26-7" x1="232.75" y1="224.43" x2="232.75" y2="262.12" xlink:href="#未命名的渐变_26"/>
        <linearGradient id="未命名的渐变_26-8" x1="349.36" y1="26.68" x2="349.36" y2="204.03" xlink:href="#未命名的渐变_26"/>
        <linearGradient id="未命名的渐变_26-9" x1="201.45" y1="55.61" x2="201.45" y2="204.03" xlink:href="#未命名的渐变_26"/>
        <linearGradient id="未命名的渐变_26-10" x1="122.98" y1="26.68" x2="122.98" y2="204.03" xlink:href="#未命名的渐变_26"/>
        <linearGradient id="未命名的渐变_26-11" x1="273.51" y1="0" x2="273.51" y2="209.54" xlink:href="#未命名的渐变_26"/>
    </defs>
    <title>无访问权限</title>
    <g id="图层_2" data-name="图层 2">
        <g id="图层_1-2" data-name="图层 1">
            <line class="cls-1" x1="1" y1="91.35" x2="1" y2="181.12"/>
            <line class="cls-2" x1="455.01" y1="72.11" x2="455.01" y2="161.88"/>
            <line class="cls-3" x1="40.9" y1="143.88" x2="40.9" y2="199.51"/>
            <line class="cls-4" x1="64.97" y1="95.36" x2="64.97" y2="123.17"/>
            <line class="cls-5" x1="397.23" y1="104.2" x2="397.23" y2="132.02"/>
            <line class="cls-6" x1="424.75" y1="133.49" x2="424.75" y2="189.13"/>
            <path class="cls-7" d="M412.28,262.12c-23-23-61-37.69-179.53-37.69S76.24,239.1,53.21,262.12Z"/>
            <g class="cls-8">
                <path class="cls-9"
                      d="M380.66,26.68H318.07a2.71,2.71,0,0,0-2.82,2.59V201.44a2.71,2.71,0,0,0,2.82,2.59h62.59a2.72,2.72,0,0,0,2.82-2.59V29.27A2.72,2.72,0,0,0,380.66,26.68ZM328.3,147a.9.9,0,0,1-.95.87h-3.6a.9.9,0,0,1-.95-.87V127.27a.91.91,0,0,1,.95-.87h3.6a.91.91,0,0,1,.95.87Zm0-30.23a.91.91,0,0,1-.95.87h-3.6a.91.91,0,0,1-.95-.87V97a.91.91,0,0,1,.95-.87h3.6a.91.91,0,0,1,.95.87Zm0-30.24a.91.91,0,0,1-.95.87h-3.6a.91.91,0,0,1-.95-.87V66.8a.91.91,0,0,1,.95-.87h3.6a.91.91,0,0,1,.95.87Zm0-30.24a.91.91,0,0,1-.95.87h-3.6a.91.91,0,0,1-.95-.87V36.56a.91.91,0,0,1,.95-.87h3.6a.91.91,0,0,1,.95.87ZM340,147a.9.9,0,0,1-.94.87h-3.61a.91.91,0,0,1-.95-.87V127.27a.92.92,0,0,1,.95-.87h3.61a.91.91,0,0,1,.94.87Zm0-30.23a.91.91,0,0,1-.94.87h-3.61a.92.92,0,0,1-.95-.87V97a.92.92,0,0,1,.95-.87h3.61A.91.91,0,0,1,340,97Zm0-30.24a.91.91,0,0,1-.94.87h-3.61a.92.92,0,0,1-.95-.87V66.8a.92.92,0,0,1,.95-.87h3.61a.91.91,0,0,1,.94.87Zm0-30.24a.91.91,0,0,1-.94.87h-3.61a.92.92,0,0,1-.95-.87V36.56a.92.92,0,0,1,.95-.87h3.61a.91.91,0,0,1,.94.87ZM351.7,147a.9.9,0,0,1-.94.87h-3.61a.9.9,0,0,1-.94-.87V127.27a.91.91,0,0,1,.94-.87h3.61a.91.91,0,0,1,.94.87Zm0-30.23a.91.91,0,0,1-.94.87h-3.61a.91.91,0,0,1-.94-.87V97a.91.91,0,0,1,.94-.87h3.61a.91.91,0,0,1,.94.87Zm0-30.24a.91.91,0,0,1-.94.87h-3.61a.91.91,0,0,1-.94-.87V66.8a.91.91,0,0,1,.94-.87h3.61a.91.91,0,0,1,.94.87Zm0-30.24a.91.91,0,0,1-.94.87h-3.61a.91.91,0,0,1-.94-.87V36.56a.91.91,0,0,1,.94-.87h3.61a.91.91,0,0,1,.94.87ZM363.4,147a.9.9,0,0,1-.94.87h-3.61a.9.9,0,0,1-.94-.87V127.27a.91.91,0,0,1,.94-.87h3.61a.91.91,0,0,1,.94.87Zm0-30.23a.91.91,0,0,1-.94.87h-3.61a.91.91,0,0,1-.94-.87V97a.91.91,0,0,1,.94-.87h3.61a.91.91,0,0,1,.94.87Zm0-30.24a.91.91,0,0,1-.94.87h-3.61a.91.91,0,0,1-.94-.87V66.8a.91.91,0,0,1,.94-.87h3.61a.91.91,0,0,1,.94.87Zm0-30.24a.91.91,0,0,1-.94.87h-3.61a.91.91,0,0,1-.94-.87V36.56a.91.91,0,0,1,.94-.87h3.61a.91.91,0,0,1,.94.87ZM375.11,147a.91.91,0,0,1-.95.87h-3.61a.9.9,0,0,1-.94-.87V127.27a.91.91,0,0,1,.94-.87h3.61a.92.92,0,0,1,.95.87Zm0-30.23a.92.92,0,0,1-.95.87h-3.61a.91.91,0,0,1-.94-.87V97a.91.91,0,0,1,.94-.87h3.61a.92.92,0,0,1,.95.87Zm0-30.24a.92.92,0,0,1-.95.87h-3.61a.91.91,0,0,1-.94-.87V66.8a.91.91,0,0,1,.94-.87h3.61a.92.92,0,0,1,.95.87Zm0-30.24a.92.92,0,0,1-.95.87h-3.61a.91.91,0,0,1-.94-.87V36.56a.91.91,0,0,1,.94-.87h3.61a.92.92,0,0,1,.95.87Z"/>
                <path class="cls-10"
                      d="M231.1,55.61H171.8A2.71,2.71,0,0,0,169,58.2V201.44A2.71,2.71,0,0,0,171.8,204h59.3a2.71,2.71,0,0,0,2.82-2.59V58.2A2.71,2.71,0,0,0,231.1,55.61ZM182.47,159.37a1.16,1.16,0,0,1-1.2,1.11h-5.4a1.16,1.16,0,0,1-1.2-1.11v-5.22a1.15,1.15,0,0,1,1.2-1.1h5.4a1.15,1.15,0,0,1,1.2,1.1Zm0-12.88a1.15,1.15,0,0,1-1.2,1.1h-5.4a1.15,1.15,0,0,1-1.2-1.1v-5.22a1.16,1.16,0,0,1,1.2-1.11h5.4a1.16,1.16,0,0,1,1.2,1.11Zm0-12.89a1.16,1.16,0,0,1-1.2,1.11h-5.4a1.16,1.16,0,0,1-1.2-1.11v-5.22a1.15,1.15,0,0,1,1.2-1.1h5.4a1.15,1.15,0,0,1,1.2,1.1Zm0-12.88a1.15,1.15,0,0,1-1.2,1.1h-5.4a1.15,1.15,0,0,1-1.2-1.1V115.5a1.16,1.16,0,0,1,1.2-1.11h5.4a1.16,1.16,0,0,1,1.2,1.11Zm0-12.89a1.16,1.16,0,0,1-1.2,1.11h-5.4a1.16,1.16,0,0,1-1.2-1.11v-5.21a1.15,1.15,0,0,1,1.2-1.11h5.4a1.15,1.15,0,0,1,1.2,1.11Zm0-12.88a1.15,1.15,0,0,1-1.2,1.1h-5.4a1.15,1.15,0,0,1-1.2-1.1V89.73a1.16,1.16,0,0,1,1.2-1.11h5.4a1.16,1.16,0,0,1,1.2,1.11Zm0-12.89a1.16,1.16,0,0,1-1.2,1.11h-5.4a1.16,1.16,0,0,1-1.2-1.11V76.85a1.15,1.15,0,0,1,1.2-1.11h5.4a1.15,1.15,0,0,1,1.2,1.11Zm0-12.88a1.15,1.15,0,0,1-1.2,1.1h-5.4a1.15,1.15,0,0,1-1.2-1.1V64a1.16,1.16,0,0,1,1.2-1.11h5.4a1.16,1.16,0,0,1,1.2,1.11Zm10.08,90.19a1.16,1.16,0,0,1-1.2,1.11H186a1.16,1.16,0,0,1-1.21-1.11v-5.22a1.16,1.16,0,0,1,1.21-1.1h5.4a1.15,1.15,0,0,1,1.2,1.1Zm0-12.88a1.15,1.15,0,0,1-1.2,1.1H186a1.16,1.16,0,0,1-1.21-1.1v-5.22a1.16,1.16,0,0,1,1.21-1.11h5.4a1.16,1.16,0,0,1,1.2,1.11Zm0-12.89a1.16,1.16,0,0,1-1.2,1.11H186a1.16,1.16,0,0,1-1.21-1.11v-5.22a1.16,1.16,0,0,1,1.21-1.1h5.4a1.15,1.15,0,0,1,1.2,1.1Zm0-12.88a1.15,1.15,0,0,1-1.2,1.1H186a1.16,1.16,0,0,1-1.21-1.1V115.5a1.16,1.16,0,0,1,1.21-1.11h5.4a1.16,1.16,0,0,1,1.2,1.11Zm0-12.89a1.16,1.16,0,0,1-1.2,1.11H186a1.16,1.16,0,0,1-1.21-1.11v-5.21a1.16,1.16,0,0,1,1.21-1.11h5.4a1.15,1.15,0,0,1,1.2,1.11Zm0-12.88a1.15,1.15,0,0,1-1.2,1.1H186a1.16,1.16,0,0,1-1.21-1.1V89.73A1.16,1.16,0,0,1,186,88.62h5.4a1.16,1.16,0,0,1,1.2,1.11Zm0-12.89a1.16,1.16,0,0,1-1.2,1.11H186a1.16,1.16,0,0,1-1.21-1.11V76.85A1.16,1.16,0,0,1,186,75.74h5.4a1.15,1.15,0,0,1,1.2,1.11Zm0-12.88a1.15,1.15,0,0,1-1.2,1.1H186a1.16,1.16,0,0,1-1.21-1.1V64A1.16,1.16,0,0,1,186,62.85h5.4a1.16,1.16,0,0,1,1.2,1.11Zm10.08,90.19a1.16,1.16,0,0,1-1.21,1.11H196a1.16,1.16,0,0,1-1.2-1.11v-5.22a1.15,1.15,0,0,1,1.2-1.1h5.4a1.16,1.16,0,0,1,1.21,1.1Zm0-12.88a1.16,1.16,0,0,1-1.21,1.1H196a1.15,1.15,0,0,1-1.2-1.1v-5.22a1.16,1.16,0,0,1,1.2-1.11h5.4a1.16,1.16,0,0,1,1.21,1.11Zm0-12.89a1.16,1.16,0,0,1-1.21,1.11H196a1.16,1.16,0,0,1-1.2-1.11v-5.22a1.15,1.15,0,0,1,1.2-1.1h5.4a1.16,1.16,0,0,1,1.21,1.1Zm0-12.88a1.16,1.16,0,0,1-1.21,1.1H196a1.15,1.15,0,0,1-1.2-1.1V115.5a1.16,1.16,0,0,1,1.2-1.11h5.4a1.16,1.16,0,0,1,1.21,1.11Zm0-12.89a1.16,1.16,0,0,1-1.21,1.11H196a1.16,1.16,0,0,1-1.2-1.11v-5.21a1.15,1.15,0,0,1,1.2-1.11h5.4a1.16,1.16,0,0,1,1.21,1.11Zm0-12.88a1.16,1.16,0,0,1-1.21,1.1H196a1.15,1.15,0,0,1-1.2-1.1V89.73a1.16,1.16,0,0,1,1.2-1.11h5.4a1.16,1.16,0,0,1,1.21,1.11Zm0-12.89a1.16,1.16,0,0,1-1.21,1.11H196a1.16,1.16,0,0,1-1.2-1.11V76.85a1.15,1.15,0,0,1,1.2-1.11h5.4a1.16,1.16,0,0,1,1.21,1.11Zm0-12.88a1.16,1.16,0,0,1-1.21,1.1H196a1.15,1.15,0,0,1-1.2-1.1V64a1.16,1.16,0,0,1,1.2-1.11h5.4A1.16,1.16,0,0,1,202.63,64Zm25.21,90.19a1.16,1.16,0,0,1-1.2,1.11H206.1a1.16,1.16,0,0,1-1.2-1.11v-5.22a1.15,1.15,0,0,1,1.2-1.1h20.54a1.15,1.15,0,0,1,1.2,1.1Zm0-12.88a1.15,1.15,0,0,1-1.2,1.1H206.1a1.15,1.15,0,0,1-1.2-1.1v-5.22a1.16,1.16,0,0,1,1.2-1.11h20.54a1.16,1.16,0,0,1,1.2,1.11Zm0-12.89a1.16,1.16,0,0,1-1.2,1.11H206.1a1.16,1.16,0,0,1-1.2-1.11v-5.22a1.15,1.15,0,0,1,1.2-1.1h20.54a1.15,1.15,0,0,1,1.2,1.1Zm0-12.88a1.15,1.15,0,0,1-1.2,1.1H206.1a1.15,1.15,0,0,1-1.2-1.1V115.5a1.16,1.16,0,0,1,1.2-1.11h20.54a1.16,1.16,0,0,1,1.2,1.11Zm0-12.89a1.16,1.16,0,0,1-1.2,1.11H206.1a1.16,1.16,0,0,1-1.2-1.11v-5.21a1.15,1.15,0,0,1,1.2-1.11h20.54a1.15,1.15,0,0,1,1.2,1.11Zm0-12.88a1.15,1.15,0,0,1-1.2,1.1H206.1a1.15,1.15,0,0,1-1.2-1.1V89.73a1.16,1.16,0,0,1,1.2-1.11h20.54a1.16,1.16,0,0,1,1.2,1.11Zm0-12.89a1.16,1.16,0,0,1-1.2,1.11H206.1a1.16,1.16,0,0,1-1.2-1.11V76.85a1.15,1.15,0,0,1,1.2-1.11h20.54a1.15,1.15,0,0,1,1.2,1.11Zm0-12.88a1.15,1.15,0,0,1-1.2,1.1H206.1a1.15,1.15,0,0,1-1.2-1.1V64a1.16,1.16,0,0,1,1.2-1.11h20.54a1.16,1.16,0,0,1,1.2,1.11Z"/>
                <path class="cls-11"
                      d="M161.13,26.68H84.83A2.71,2.71,0,0,0,82,29.27V201.44A2.71,2.71,0,0,0,84.83,204h76.3a2.71,2.71,0,0,0,2.82-2.59V29.27A2.71,2.71,0,0,0,161.13,26.68ZM154.34,161a1.16,1.16,0,0,1-1.2,1.11H92.83A1.16,1.16,0,0,1,91.62,161v-5.21a1.16,1.16,0,0,1,1.21-1.11h60.31a1.15,1.15,0,0,1,1.2,1.11Zm0-14.67a1.15,1.15,0,0,1-1.2,1.1H92.83a1.16,1.16,0,0,1-1.21-1.1v-5.22A1.16,1.16,0,0,1,92.83,140h60.31a1.16,1.16,0,0,1,1.2,1.11Zm0-14.68a1.16,1.16,0,0,1-1.2,1.11H92.83a1.16,1.16,0,0,1-1.21-1.11v-5.22a1.16,1.16,0,0,1,1.21-1.1h60.31a1.15,1.15,0,0,1,1.2,1.1Zm0-14.68a1.16,1.16,0,0,1-1.2,1.11H92.83a1.16,1.16,0,0,1-1.21-1.11v-5.21a1.16,1.16,0,0,1,1.21-1.11h60.31a1.15,1.15,0,0,1,1.2,1.11Zm0-14.67a1.15,1.15,0,0,1-1.2,1.1H92.83a1.16,1.16,0,0,1-1.21-1.1V97a1.16,1.16,0,0,1,1.21-1.11h60.31a1.16,1.16,0,0,1,1.2,1.11Zm0-14.68a1.16,1.16,0,0,1-1.2,1.11H92.83a1.16,1.16,0,0,1-1.21-1.11V82.35a1.16,1.16,0,0,1,1.21-1.1h60.31a1.15,1.15,0,0,1,1.2,1.1Zm0-14.68a1.16,1.16,0,0,1-1.2,1.11H92.83a1.16,1.16,0,0,1-1.21-1.11V67.68a1.16,1.16,0,0,1,1.21-1.11h60.31a1.15,1.15,0,0,1,1.2,1.11Zm0-14.67a1.15,1.15,0,0,1-1.2,1.1H92.83a1.16,1.16,0,0,1-1.21-1.1V53a1.16,1.16,0,0,1,1.21-1.11h60.31a1.16,1.16,0,0,1,1.2,1.11Zm0-14.68a1.16,1.16,0,0,1-1.2,1.11H92.83a1.16,1.16,0,0,1-1.21-1.11V38.32a1.16,1.16,0,0,1,1.21-1.1h60.31a1.15,1.15,0,0,1,1.2,1.1Z"/>
                <path class="cls-12"
                      d="M306.21,0H240.82a2.51,2.51,0,0,0-2.42,2.59V206.94a2.51,2.51,0,0,0,2.42,2.6h65.39a2.51,2.51,0,0,0,2.41-2.6V2.59A2.51,2.51,0,0,0,306.21,0Zm-5.82,134.28a1.06,1.06,0,0,1-1,1.1H247.67a1.06,1.06,0,0,1-1-1.1v-5.22a1.07,1.07,0,0,1,1-1.11h51.69a1.07,1.07,0,0,1,1,1.11Zm0-14.68a1.07,1.07,0,0,1-1,1.11H247.67a1.07,1.07,0,0,1-1-1.11v-5.22a1.06,1.06,0,0,1,1-1.1h51.69a1.06,1.06,0,0,1,1,1.1Zm0-14.68a1.07,1.07,0,0,1-1,1.11H247.67a1.07,1.07,0,0,1-1-1.11V99.71a1.07,1.07,0,0,1,1-1.11h51.69a1.07,1.07,0,0,1,1,1.11Zm0-14.67a1.06,1.06,0,0,1-1,1.1H247.67a1.06,1.06,0,0,1-1-1.1V85a1.07,1.07,0,0,1,1-1.11h51.69a1.07,1.07,0,0,1,1,1.11Zm0-14.68a1.07,1.07,0,0,1-1,1.11H247.67a1.07,1.07,0,0,1-1-1.11V70.35a1.06,1.06,0,0,1,1-1.1h51.69a1.06,1.06,0,0,1,1,1.1Zm0-14.68a1.07,1.07,0,0,1-1,1.11H247.67a1.07,1.07,0,0,1-1-1.11V55.68a1.07,1.07,0,0,1,1-1.11h51.69a1.07,1.07,0,0,1,1,1.11Zm0-14.67a1.06,1.06,0,0,1-1,1.1H247.67a1.06,1.06,0,0,1-1-1.1V41a1.07,1.07,0,0,1,1-1.11h51.69a1.07,1.07,0,0,1,1,1.11Zm0-14.68a1.07,1.07,0,0,1-1,1.11H247.67a1.07,1.07,0,0,1-1-1.11V26.32a1.06,1.06,0,0,1,1-1.1h51.69a1.06,1.06,0,0,1,1,1.1Zm0-14.68a1.07,1.07,0,0,1-1,1.11H247.67a1.07,1.07,0,0,1-1-1.11V11.65a1.07,1.07,0,0,1,1-1.11h51.69a1.07,1.07,0,0,1,1,1.11Z"/>
            </g>
            <path class="cls-13"
                  d="M315.5,74.68a5.32,5.32,0,0,0-3.58-1.38H162.32a6.41,6.41,0,0,0-5.55,3.21h0a3.34,3.34,0,0,1,2.16-.78H310.77a3.42,3.42,0,0,1,3.4,3.4V185.35a3.36,3.36,0,0,1-1.32,2.68,6.93,6.93,0,0,0,4.41-6.46V78.63A5.29,5.29,0,0,0,315.5,74.68Z"/>
            <polygon class="cls-14"
                     points="293.51 81.67 292.41 81.67 292.41 83.34 294.61 83.34 294.61 82.32 294.61 81.67 293.51 81.67"/>
            <polygon class="cls-14"
                     points="295.72 80.65 295.72 82.32 294.61 82.32 294.61 81.67 293.51 81.67 293.51 80.65 295.72 80.65"/>
            <path class="cls-14"
                  d="M307.05,78.94A3.06,3.06,0,1,1,304,82,3.06,3.06,0,0,1,307.05,78.94Zm.71,3.06,1-1-.71-.71-1,1-1-1-.71.71,1,1-1,1,.71.71,1-1,1,1,.71-.71Z"/>
            <path class="cls-14"
                  d="M294.13,78.94A3.06,3.06,0,1,1,291.08,82,3.06,3.06,0,0,1,294.13,78.94Zm1.59,3.38V80.65h-2.21v1h-1.1v1.67h2.2v-1Z"/>
            <path class="cls-14"
                  d="M281.22,78.94A3.06,3.06,0,1,1,278.16,82,3.05,3.05,0,0,1,281.22,78.94Zm1.51,3.56v-1h-3v1Z"/>
            <path class="cls-15"
                  d="M314.17,79.14v8.29H155.53V79.14a3.41,3.41,0,0,1,3.4-3.4H310.77a3.42,3.42,0,0,1,3.4,3.4ZM310.11,82a3.06,3.06,0,1,0-3.06,3A3.06,3.06,0,0,0,310.11,82Zm-12.92,0a3.06,3.06,0,1,0-3.06,3A3.06,3.06,0,0,0,297.19,82Zm-12.92,0a3.06,3.06,0,1,0-3,3A3.05,3.05,0,0,0,284.27,82Z"/>
            <path class="cls-14"
                  d="M238.61,136.26a3.76,3.76,0,0,1-2.33,3.47V146a.37.37,0,0,1-.37.36h-2.12a.36.36,0,0,1-.36-.36v-6.26a3.76,3.76,0,1,1,5.18-3.47Z"/>
            <path class="cls-14"
                  d="M314.17,87.43v97.92a3.42,3.42,0,0,1-3.4,3.4H158.93a3.4,3.4,0,0,1-3.4-3.4V87.43Zm-59,63.87V128a3.55,3.55,0,0,0-3.55-3.55h-1.8v-4.68a14.93,14.93,0,1,0-29.86,0v4.68h-1.8a3.55,3.55,0,0,0-3.55,3.55V151.3a3.56,3.56,0,0,0,3.55,3.56h33.46A3.56,3.56,0,0,0,255.13,151.3Z"/>
            <polygon class="cls-15"
                     points="308.8 80.96 307.76 82 308.8 83.03 308.09 83.74 307.05 82.7 306.02 83.74 305.31 83.03 306.34 82 305.31 80.96 306.02 80.25 307.05 81.29 308.09 80.25 308.8 80.96"/>
            <rect class="cls-15" x="279.71" y="81.5" width="3.02" height="1"/>
            <path class="cls-16"
                  d="M251.58,124.4h-1.8v-4.68a14.93,14.93,0,1,0-29.86,0v4.68h-1.8a3.55,3.55,0,0,0-3.55,3.55V151.3a3.56,3.56,0,0,0,3.55,3.56h33.46a3.56,3.56,0,0,0,3.55-3.56V128A3.55,3.55,0,0,0,251.58,124.4Zm-15.3,15.33V146a.37.37,0,0,1-.37.36h-2.12a.36.36,0,0,1-.36-.36v-6.26a3.76,3.76,0,1,1,2.85,0ZM224.9,124.4v-4.68a9.95,9.95,0,0,1,19.9,0v4.68Z"/>
            <path class="cls-14" d="M244.8,119.72v4.68H224.9v-4.68a9.95,9.95,0,0,1,19.9,0Z"/>
            <path class="cls-15"
                  d="M295.87,80.5h-2.51v1h-1.1v2h2.5v-1h1.11Zm-1.41,2.69h-1.9V81.81h1.9Zm1.11-1h-.81v-.65h-1.1v-.73h1.91Z"/>
            <path d="M203.58,147.25c.06.14.44-.84.44-.84l.09.84.6-.58.26.7.35-.84s.08.15.35.72c.11-.26.8-.22,1.61-.72a3.06,3.06,0,0,0,1-2.59c-.1-.58-.66-1.12-.34-1.48a.67.67,0,0,1,.92-.15c.23.14.49-.17,1.44-.49l.25-.07c1.16-.34,1.06-1.15,1.24-2.29s-1.16-2.56-2.24-3.51a7,7,0,0,0-5.42-1.06c-1.58.49-3.16.9-3.77,4.44a7.67,7.67,0,0,0,1.52,6.37,3.92,3.92,0,0,0,1.18.88A1,1,0,0,1,203.58,147.25Z"/>
            <path class="cls-17"
                  d="M206.25,232.22c-.33-.73-.59-1.63.55-1.13l.1,0,0-5.25a4.21,4.21,0,0,0-.93.73,31.18,31.18,0,0,0-2.71,2.81c0-.21.05-.39.06-.48,0-.33-.46-.71-.89-.18s-2.71.62-4.06.38a2.8,2.8,0,0,1-.48-.12c-1.18-.39-.84.49-.45,1.18s.44,1.67.57,3.61,2.26,2.4,3.85,2.57c1.4.16,2.37-1.3,4.56-3.27A3.14,3.14,0,0,0,206.25,232.22Z"/>
            <path class="cls-17"
                  d="M206.47,233.11a24.12,24.12,0,0,1,0,2.76c-.06,1.95,2,2.59,3.59,2.92s2.77-1.47,5.85-3.56,5.51-6,4.48-7c-.94-.63-3.41-.22-5.32,1.25a31.79,31.79,0,0,0-3,2.54h0c0-.21.09-.38.11-.47.06-.33-.39-.75-.88-.26s-3.24.34-4.44-.12l-.1,0c-1.14-.5-.88.4-.55,1.13A3.14,3.14,0,0,1,206.47,233.11Z"/>
            <path class="cls-18"
                  d="M197.24,182.41l1.23,23.46-.05,23.27c1.35.24,3.67.09,4.06-.38l1.12-21.62,1.08-17a.71.71,0,0,1,.77-.68.8.8,0,0,1,.47.22.72.72,0,0,1,.2.47l1,18.93L207,225.88l0,5.25c1.2.46,4,.59,4.44.12l1.79-23.48.34-23C209.7,185.44,199.19,182.68,197.24,182.41Z"/>
            <path class="cls-17"
                  d="M188.66,150.58l-.34,7.12,7.18.81s.13,18.8-1.51,23c.89.42,15.71,3.89,19.48,3.27a3.78,3.78,0,0,0,1.09-.3c-.29-1.68,1.18-22.4,1.18-22.4s3.08,2.26,4.81,3.58a4.68,4.68,0,0,0,.79-1.43h0a28.57,28.57,0,0,0,1.07-5.74L216.55,153a3.32,3.32,0,0,0-1.75-.88,39.71,39.71,0,0,1-5.66-1.29c-.81,1-6,1.61-7.16-.22Z"/>
            <path class="cls-19"
                  d="M221.35,164.27l2,1.71a1,1,0,0,0,1.46-.22l8.65-13.51s2.82-2.35,2.8-3.82c0-1-1.52-2.37-1.78-2.42s.17-1.35.2-2.8-.49-1.7-1-1.7,0,.48,0,2-1.77,6.11-2.28,7L224,160l-1.58-1.5A28.57,28.57,0,0,1,221.35,164.27Z"/>
            <path class="cls-19"
                  d="M208.26,143.94a3.06,3.06,0,0,1-1,2.59c-.81.5-1.5.46-1.61.72-.27-.57-.35-.72-.35-.72l-.35.84-.26-.7-.6.58-.09-.84s-.38,1-.44.84a1,1,0,0,0-.54-.67c.13,1.4.49,3.77-.49,3.92l-.57.08c1.14,1.83,6.35,1.24,7.16.22a2.47,2.47,0,0,1-1.23-.71c-.63-1.08-.82-3,0-3.46a6.31,6.31,0,0,0,1.85-2.33,4.7,4.7,0,0,0,.2-1.41c0-.53.15-.54.29-1.06h0c-.95.32-1.21.63-1.44.49a.67.67,0,0,0-.92.15C207.6,142.82,208.16,143.36,208.26,143.94Z"/>
            <path class="cls-20"
                  d="M203,146.58a3.92,3.92,0,0,1-1.18-.88,7.67,7.67,0,0,1-1.52-6.37c.61-3.54,2.19-4,3.77-4.44a7,7,0,0,1,5.42,1.06c1.08,1,2.38,2.4,2.24,3.51s-.08,1.95-1.24,2.29l-.25.07c-.95.32-1.21.63-1.44.49a.67.67,0,0,0-.92.15c-.32.36.24.9.34,1.48a3.06,3.06,0,0,1-1,2.59c-.81.5-1.5.46-1.61.72-.27-.57-.35-.72-.35-.72l-.35.84-.26-.7-.6.58-.09-.84s-.38,1-.44.84A1,1,0,0,0,203,146.58Z"/>
            <path class="cls-21"
                  d="M201.91,236.38c-1.21-.13-2.74-.42-3.45-1.42-.05.94,0,.9,1.1,1.43s2.77,1.15,3.81.39a33.66,33.66,0,0,0,3.14-3.06h0c0-.22,0-.42,0-.6C204.28,235.08,203.31,236.54,201.91,236.38Z"/>
            <path class="cls-21"
                  d="M208.69,239a5.08,5.08,0,0,0,3,.08c1.05-.24,3-2.7,4.28-3.43a15.2,15.2,0,0,0,4.39-4.7c1.09-1.81.54-2.25.19-2.48.44,1.36-1.84,4.8-4.67,6.73-3.08,2.09-4.29,3.88-5.85,3.56-1.23-.26-2.78-.71-3.36-1.85C206.42,238.45,207.7,238.67,208.69,239Z"/>
            <path class="cls-22" d="M206.9,231.13l-.1,0c-1.14-.5-.88.4-.55,1.13a3.14,3.14,0,0,1,.22.89"/>
            <path class="cls-22" d="M212.64,233.14c-.72.2-.64-.59-.53-1.16"/>
            <path class="cls-22" d="M203.94,230.52c-.69.27-.69-.52-.63-1.1"/>
            <path class="cls-23"
                  d="M220.58,228.5h0c.35.23.9.67-.19,2.48a15.2,15.2,0,0,1-4.39,4.7c-1.31.73-3.23,3.19-4.28,3.43a5.08,5.08,0,0,1-3-.08c-1-.36-2.27-.58-2-2.09"/>
            <path class="cls-23"
                  d="M198.46,235h0c-.05.94,0,.9,1.1,1.43s2.77,1.15,3.81.39a33.66,33.66,0,0,0,3.14-3.06h0"/>
            <path class="cls-19"
                  d="M202.57,136.72c.21.61.72,2.29-.44,2.73s-2.64,1.42-2.7,1.85-.2,1.06-.67,1.27l-1.31-1.46c.69-1.08,3.37-4.75,3.73-4.77S202.36,136.12,202.57,136.72Z"/>
            <path class="cls-19" d="M197.45,141.11l1.31,1.46-7.79,8h-2.31l-4.32.11a2.25,2.25,0,0,0-.74.12Z"/>
            <path class="cls-19"
                  d="M188.66,150.58l-.23,4.95-4.31-.43a2.21,2.21,0,0,1-1.42-.71,2.17,2.17,0,0,1-.58-1.47,2.22,2.22,0,0,1,1.48-2.11,2.25,2.25,0,0,1,.74-.12Z"/>
        </g>
    </g>
</svg>
