<svg width="1052" height="652" viewBox="0 0 1052 652" fill="none"
     xmlns="http://www.w3.org/2000/svg">
    <path
            d="M909.026 641.482H254.027H209.272V338.044C209.272 316.552 226.717 299.128 248.235 299.128C269.754 299.128 287.198 281.705 287.198 260.212V227.344C287.198 187.699 319.376 155.56 359.069 155.56H683.672C717.986 155.56 745.803 183.343 745.803 217.615C745.803 251.887 773.62 279.67 807.933 279.67H827.414C872.487 279.67 909.026 316.165 909.026 361.183V641.482Z"
            fill="#F3F6FF"/>
    <path
            d="M809.512 139.783C812.42 139.783 814.778 137.429 814.778 134.524C814.778 131.62 812.42 129.265 809.512 129.265C806.604 129.265 804.247 131.62 804.247 134.524C804.247 137.429 806.604 139.783 809.512 139.783Z"
            fill="#54B7FF"/>
    <path
            d="M841.63 165.552C848.609 165.552 854.267 159.901 854.267 152.93C854.267 145.96 848.609 140.309 841.63 140.309C834.651 140.309 828.994 145.96 828.994 152.93C828.994 159.901 834.651 165.552 841.63 165.552Z"
            stroke="#54B7FF" stroke-width="1.053"/>
    <path
            d="M319.062 107.54C328.382 109.316 337.377 103.208 339.151 93.8978C340.925 84.5874 334.807 75.5999 325.486 73.8237C316.166 72.0475 307.171 78.1553 305.397 87.4657C303.623 96.7761 309.741 105.764 319.062 107.54Z"
            fill="#54B7FF"/>
    <path
            d="M294.367 140.737C310.392 143.791 325.857 133.289 328.907 117.281C331.958 101.274 321.439 85.821 305.413 82.7671C289.387 79.7132 273.923 90.2145 270.872 106.222C267.822 122.23 278.341 137.683 294.367 140.737Z"
            stroke="#7268F5" stroke-width="1.053"/>
    <path fill-rule="evenodd" clip-rule="evenodd"
          d="M316.007 651.438C313.858 651.438 312.182 649.581 312.405 647.447L338.901 393.717L349.371 394.84L319.603 648.243C319.389 650.065 317.843 651.438 316.007 651.438Z"
          fill="#627AC1"/>
    <path fill-rule="evenodd" clip-rule="evenodd"
          d="M433.809 651.438C435.957 651.438 437.634 649.581 437.411 647.447L410.915 393.717L400.444 394.84L430.212 648.243C430.427 650.065 431.973 651.438 433.809 651.438Z"
          fill="#627AC1"/>
    <path fill-rule="evenodd" clip-rule="evenodd"
          d="M602.437 651.438C600.289 651.438 598.612 649.581 598.835 647.447L625.331 393.717L635.802 394.84L606.034 648.243C605.819 650.065 604.273 651.438 602.437 651.438Z"
          fill="#627AC1"/>
    <path fill-rule="evenodd" clip-rule="evenodd"
          d="M720.24 651.438C722.388 651.438 724.064 649.581 723.841 647.447L697.345 393.717L686.875 394.84L716.642 648.243C716.857 650.065 718.403 651.438 720.24 651.438Z"
          fill="#627AC1"/>
    <path d="M419.399 382.744H323.572V398.521H419.399V382.744Z" fill="#A3BAFF"/>
    <path d="M716.36 382.744H419.399V398.521H716.36V382.744Z" fill="#CCD9FF"/>
    <path
            d="M487.278 2H373.548C369.477 2 366.177 5.30011 366.177 9.371V82.9785C366.177 87.0494 369.477 90.3495 373.548 90.3495H487.278C491.349 90.3495 494.649 87.0494 494.649 82.9785V9.371C494.649 5.30011 491.349 2 487.278 2Z"
            fill="white" stroke="#E5E5E5" stroke-width="2.106"/>
    <path
            d="M387.238 32.5017C390.728 32.5017 393.556 29.6763 393.556 26.1911C393.556 22.7058 390.728 19.8804 387.238 19.8804C383.749 19.8804 380.92 22.7058 380.92 26.1911C380.92 29.6763 383.749 32.5017 387.238 32.5017Z"
            fill="#A3B7FF"/>
    <path d="M393.556 61.9514H380.92V79.8317H393.556V61.9514Z" fill="#5FFFD8"/>
    <path d="M393.556 49.3301H380.92V67.2103H393.556V49.3301Z" fill="#1BE3B3"/>
    <path d="M415.67 64.0549H403.034V80.8834H415.67V64.0549Z" fill="#5FFFD8"/>
    <path d="M415.67 56.6926H403.034V71.4175H415.67V56.6926Z" fill="#1BE3B3"/>
    <path d="M437.785 53.5371H425.148V80.8834H437.785V53.5371Z" fill="#5FFFD8"/>
    <path d="M437.785 44.0713H425.148V61.9515H437.785V44.0713Z" fill="#1BE3B3"/>
    <path d="M459.899 53.5371H447.262V80.8834H459.899V53.5371Z" fill="#5FFFD8"/>
    <path d="M459.899 29.3462H447.262V56.6925H459.899V29.3462Z" fill="#1BE3B3"/>
    <path d="M482.013 53.5371H469.376V80.8834H482.013V53.5371Z" fill="#5FFFD8"/>
    <path d="M482.013 37.7605H469.376V65.1068H482.013V37.7605Z" fill="#1BE3B3"/>
    <path
            d="M453.408 200.823C453.408 196.155 457.196 192.372 461.868 192.372H656.464C661.136 192.372 664.924 196.155 664.924 200.823V336.029C664.924 340.696 661.136 344.479 656.464 344.479H461.868C457.196 344.479 453.408 340.696 453.408 336.029V200.823Z"
            fill="#706AC7"/>
    <path
            d="M460.176 205.893C460.176 201.226 463.964 197.442 468.637 197.442H649.695C654.368 197.442 658.156 201.226 658.156 205.893V330.959C658.156 335.627 654.368 339.41 649.695 339.41H468.637C463.964 339.41 460.176 335.627 460.176 330.959V205.893Z"
            fill="#282F48"/>
    <path d="M580.318 344.479H538.015V374.057H580.318V344.479Z" fill="#2C2770"/>
    <path
            d="M488.942 378.282C488.942 375.949 490.836 374.057 493.172 374.057H626.005C628.341 374.057 630.235 375.949 630.235 378.282C630.235 380.616 628.341 382.507 626.005 382.507H493.172C490.836 382.507 488.942 380.616 488.942 378.282Z"
            fill="#706AC7"/>
    <path fill-rule="evenodd" clip-rule="evenodd"
          d="M461.281 203.262C460.574 204.676 460.175 206.272 460.175 207.96V328.892C460.175 334.7 464.89 339.41 470.706 339.41H647.624C653.44 339.41 658.155 334.7 658.155 328.892V313.635C656.039 304.339 638.271 277.722 601.469 294.622C564.665 311.523 516.862 288.707 506.286 248.145C498.271 217.406 473.681 205.726 461.281 203.262Z"
          fill="#2F3B67"/>
    <mask id="mask0" mask-type="alpha" maskUnits="userSpaceOnUse" x="591" y="249" width="34"
          height="34">
        <path
                d="M608.094 282.802C617.395 282.802 624.936 275.27 624.936 265.979C624.936 256.688 617.395 249.156 608.094 249.156C598.791 249.156 591.25 256.688 591.25 265.979C591.25 275.27 598.791 282.802 608.094 282.802ZM608.094 277.034C614.207 277.034 619.162 272.085 619.162 265.979C619.162 259.874 614.207 254.924 608.094 254.924C601.981 254.924 597.025 259.874 597.025 265.979C597.025 272.085 601.981 277.034 608.094 277.034Z"
                fill="white"/>
    </mask>
    <g mask="url(#mask0)">
        <path
                d="M608.094 282.802C617.396 282.802 624.937 275.27 624.937 265.979C624.937 256.688 617.396 249.156 608.094 249.156C598.792 249.156 591.251 256.688 591.251 265.979C591.251 275.27 598.792 282.802 608.094 282.802Z"
                fill="#324178"/>
    </g>
    <mask id="mask1" mask-type="alpha" maskUnits="userSpaceOnUse" x="591" y="249" width="34"
          height="34">
        <path
                d="M608.094 282.802C617.395 282.802 624.936 275.27 624.936 265.979C624.936 256.688 617.395 249.156 608.094 249.156C598.791 249.156 591.25 256.688 591.25 265.979C591.25 275.27 598.791 282.802 608.094 282.802ZM608.094 277.034C614.207 277.034 619.162 272.085 619.162 265.979C619.162 259.874 614.207 254.924 608.094 254.924C601.981 254.924 597.025 259.874 597.025 265.979C597.025 272.085 601.981 277.034 608.094 277.034Z"
                fill="white"/>
    </mask>
    <g mask="url(#mask1)">
        <path
                d="M624.936 265.979C624.936 262.652 623.949 259.399 622.098 256.633C620.247 253.866 617.617 251.71 614.54 250.437C611.462 249.164 608.075 248.831 604.808 249.48C601.541 250.129 598.54 251.731 596.184 254.084L608.094 265.979H624.936Z"
                fill="white"/>
    </g>
    <mask id="mask2" mask-type="alpha" maskUnits="userSpaceOnUse" x="543" y="249" width="35"
          height="34">
        <path
                d="M560.225 282.802C569.527 282.802 577.068 275.27 577.068 265.979C577.068 256.688 569.527 249.156 560.225 249.156C550.923 249.156 543.382 256.688 543.382 265.979C543.382 275.27 550.923 282.802 560.225 282.802ZM560.225 277.034C566.338 277.034 571.294 272.085 571.294 265.979C571.294 259.874 566.338 254.924 560.225 254.924C554.112 254.924 549.157 259.874 549.157 265.979C549.157 272.085 554.112 277.034 560.225 277.034Z"
                fill="white"/>
    </mask>
    <g mask="url(#mask2)">
        <path
                d="M560.225 282.802C569.527 282.802 577.068 275.27 577.068 265.979C577.068 256.688 569.527 249.156 560.225 249.156C550.923 249.156 543.382 256.688 543.382 265.979C543.382 275.27 550.923 282.802 560.225 282.802Z"
                fill="#324178"/>
    </g>
    <mask id="mask3" mask-type="alpha" maskUnits="userSpaceOnUse" x="543" y="249" width="35"
          height="34">
        <path
                d="M560.225 282.802C569.527 282.802 577.068 275.27 577.068 265.979C577.068 256.688 569.527 249.156 560.225 249.156C550.923 249.156 543.382 256.688 543.382 265.979C543.382 275.27 550.923 282.802 560.225 282.802ZM560.225 277.034C566.338 277.034 571.294 272.085 571.294 265.979C571.294 259.874 566.338 254.924 560.225 254.924C554.112 254.924 549.157 259.874 549.157 265.979C549.157 272.085 554.112 277.034 560.225 277.034Z"
                fill="white"/>
    </mask>
    <g mask="url(#mask3)">
        <path
                d="M577.068 265.979C577.068 263.213 576.385 260.489 575.079 258.049C573.774 255.609 571.886 253.529 569.582 251.992C567.279 250.455 564.632 249.509 561.876 249.237C559.119 248.966 556.338 249.378 553.779 250.437C551.22 251.496 548.962 253.168 547.205 255.307C545.448 257.445 544.246 259.984 543.706 262.697C543.165 265.411 543.303 268.215 544.107 270.863C544.911 273.51 546.356 275.918 548.315 277.875L560.225 265.979H577.068Z"
                fill="white"/>
    </g>
    <mask id="mask4" mask-type="alpha" maskUnits="userSpaceOnUse" x="493" y="249" width="35"
          height="34">
        <path
                d="M510.582 282.802C519.885 282.802 527.425 275.27 527.425 265.979C527.425 256.688 519.885 249.156 510.582 249.156C501.28 249.156 493.739 256.688 493.739 265.979C493.739 275.27 501.28 282.802 510.582 282.802ZM510.582 277.034C516.695 277.034 521.651 272.085 521.651 265.979C521.651 259.874 516.695 254.924 510.582 254.924C504.47 254.924 499.514 259.874 499.514 265.979C499.514 272.085 504.47 277.034 510.582 277.034Z"
                fill="white"/>
    </mask>
    <g mask="url(#mask4)">
        <path
                d="M510.582 282.802C519.884 282.802 527.425 275.27 527.425 265.979C527.425 256.688 519.884 249.156 510.582 249.156C501.28 249.156 493.739 256.688 493.739 265.979C493.739 275.27 501.28 282.802 510.582 282.802Z"
                fill="#324178"/>
    </g>
    <mask id="mask5" mask-type="alpha" maskUnits="userSpaceOnUse" x="493" y="249" width="35"
          height="34">
        <path
                d="M510.582 282.802C519.885 282.802 527.425 275.27 527.425 265.979C527.425 256.688 519.885 249.156 510.582 249.156C501.28 249.156 493.739 256.688 493.739 265.979C493.739 275.27 501.28 282.802 510.582 282.802ZM510.582 277.034C516.695 277.034 521.651 272.085 521.651 265.979C521.651 259.874 516.695 254.924 510.582 254.924C504.47 254.924 499.514 259.874 499.514 265.979C499.514 272.085 504.47 277.034 510.582 277.034Z"
                fill="white"/>
    </mask>
    <g mask="url(#mask5)">
        <path
                d="M527.425 265.979C527.425 262.652 526.438 259.399 524.587 256.633C522.736 253.866 520.106 251.71 517.028 250.437C513.95 249.164 510.564 248.831 507.296 249.48C504.029 250.129 501.028 251.731 498.672 254.084C496.317 256.436 494.713 259.434 494.063 262.697C493.413 265.961 493.747 269.343 495.021 272.417C496.296 275.491 498.455 278.118 501.225 279.967C503.995 281.815 507.251 282.802 510.582 282.802V265.979H527.425Z"
                fill="white"/>
    </g>
    <path
            d="M490.193 311.467C490.193 310.306 491.135 309.364 492.298 309.364H532.307C533.47 309.364 534.413 310.306 534.413 311.467C534.413 312.628 533.47 313.571 532.307 313.571H492.298C491.135 313.571 490.193 312.628 490.193 311.467Z"
            fill="white"/>
    <path
            d="M490.193 322.706C490.193 321.544 491.135 320.602 492.298 320.602H521.778C522.941 320.602 523.884 321.544 523.884 322.706C523.884 323.867 522.941 324.809 521.778 324.809H492.298C491.135 324.809 490.193 323.867 490.193 322.706Z"
            fill="white"/>
    <path
            d="M605.434 230.01C605.434 228.849 606.376 227.907 607.54 227.907H622.837C623.999 227.907 624.942 228.849 624.942 230.01C624.942 231.172 623.999 232.113 622.837 232.113H607.54C606.376 232.113 605.434 231.172 605.434 230.01Z"
            fill="white"/>
    <path
            d="M594.798 321.76C597.736 321.76 600.117 319.381 600.117 316.447C600.117 313.513 597.736 311.135 594.798 311.135C591.86 311.135 589.479 313.513 589.479 316.447C589.479 319.381 591.86 321.76 594.798 321.76Z"
            fill="white"/>
    <path
            d="M614.299 321.76C617.237 321.76 619.618 319.381 619.618 316.447C619.618 313.513 617.237 311.135 614.299 311.135C611.362 311.135 608.981 313.513 608.981 316.447C608.981 319.381 611.362 321.76 614.299 321.76Z"
            fill="white"/>
    <path
            d="M522.998 222.594H498.166C495.721 222.594 493.739 224.576 493.739 227.021C493.739 229.466 495.721 231.448 498.166 231.448H522.998C525.443 231.448 527.425 229.466 527.425 227.021C527.425 224.576 525.443 222.594 522.998 222.594Z"
            fill="white"/>
    <path fill-rule="evenodd" clip-rule="evenodd"
          d="M619.618 209.313H499.057C489.755 209.313 482.214 216.845 482.214 226.136V281.031C482.214 290.322 489.755 297.854 499.057 297.854H619.618C628.92 297.854 636.461 290.322 636.461 281.031V226.136C636.461 216.845 628.92 209.313 619.618 209.313ZM499.057 208.428C489.266 208.428 481.328 216.356 481.328 226.136V281.031C481.328 290.811 489.266 298.74 499.057 298.74H619.618C629.41 298.74 637.348 290.811 637.348 281.031V226.136C637.348 216.356 629.41 208.428 619.618 208.428H499.057Z"
          fill="white"/>
    <path d="M481.608 329.104H403.034L413.968 382.744H492.543L481.608 329.104Z" fill="#BE7430"/>
    <path d="M403.404 329.104H480.96L470.06 382.744H392.503L403.404 329.104Z" fill="#FF9330"/>
    <path
            d="M407.977 337.512C408.237 336.289 409.317 335.414 410.567 335.414H469.886C471.571 335.414 472.827 336.966 472.476 338.614L464.432 376.439C464.172 377.663 463.093 378.537 461.843 378.537H402.523C400.839 378.537 399.583 376.985 399.934 375.337L407.977 337.512Z"
            fill="#FFB36C"/>
    <path
            d="M470.429 351.191L464.68 377.776C464.584 378.22 464.186 378.537 463.724 378.537H392.775C392.68 378.537 392.589 378.524 392.503 378.499V378.462C402.695 378.718 425.032 376.271 431.283 368.661C435.428 363.615 440.391 364.24 445.219 364.37C449.495 364.485 453.358 364.589 455.606 361.069C457.694 357.8 460.339 357.548 462.878 357.305C465.94 357.012 468.847 356.735 470.429 351.191Z"
            fill="#F2A864"/>
    <path fill-rule="evenodd" clip-rule="evenodd"
          d="M407.799 326.419C408.124 327.047 408.299 327.802 408.299 328.578H407.096C407.096 327.474 406.457 326.579 405.669 326.579C404.88 326.579 404.241 327.474 404.241 328.578C404.241 329.681 404.88 330.576 405.669 330.576C405.816 330.576 405.958 330.545 406.091 330.487L406.448 332.093C405.919 332.323 405.351 332.314 404.825 332.066C404.3 331.818 403.844 331.345 403.522 330.713C403.2 330.082 403.029 329.324 403.034 328.549C403.038 327.773 403.218 327.02 403.546 326.395C403.875 325.771 404.337 325.307 404.865 325.071C405.393 324.835 405.961 324.838 406.488 325.08C407.015 325.322 407.473 325.791 407.799 326.419Z"
          fill="#C4C4C4"/>
    <path fill-rule="evenodd" clip-rule="evenodd"
          d="M468.875 326.419C469.201 327.047 469.376 327.802 469.376 328.578H468.173C468.173 327.474 467.534 326.579 466.745 326.579C465.957 326.579 465.318 327.474 465.318 328.578C465.318 329.681 465.957 330.576 466.745 330.576C466.892 330.576 467.035 330.545 467.168 330.487L467.525 332.093C466.996 332.323 466.428 332.314 465.902 332.066C465.377 331.818 464.921 331.345 464.599 330.713C464.278 330.082 464.107 329.324 464.111 328.549C464.116 327.773 464.295 327.02 464.624 326.395C464.952 325.771 465.414 325.307 465.942 325.071C466.47 324.835 467.038 324.838 467.565 325.08C468.092 325.322 468.55 325.791 468.875 326.419Z"
          fill="#C4C4C4"/>
    <path fill-rule="evenodd" clip-rule="evenodd"
          d="M448.868 326.419C449.193 327.047 449.368 327.802 449.368 328.578H448.164C448.164 327.474 447.526 326.579 446.738 326.579C445.949 326.579 445.311 327.474 445.311 328.578C445.311 329.681 445.949 330.576 446.738 330.576C446.885 330.576 447.026 330.545 447.16 330.487L447.517 332.093C446.988 332.323 446.42 332.314 445.895 332.066C445.369 331.818 444.913 331.345 444.591 330.713C444.269 330.082 444.099 329.324 444.103 328.549C444.107 327.773 444.287 327.02 444.615 326.395C444.944 325.771 445.406 325.307 445.934 325.071C446.462 324.835 447.03 324.838 447.557 325.08C448.084 325.322 448.542 325.791 448.868 326.419Z"
          fill="#C4C4C4"/>
    <path fill-rule="evenodd" clip-rule="evenodd"
          d="M428.86 326.419C429.185 327.047 429.36 327.802 429.36 328.578H428.157C428.157 327.474 427.518 326.579 426.73 326.579C425.941 326.579 425.303 327.474 425.303 328.578C425.303 329.681 425.941 330.576 426.73 330.576C426.877 330.576 427.019 330.545 427.152 330.487L427.509 332.093C426.98 332.323 426.412 332.314 425.886 332.066C425.361 331.818 424.905 331.345 424.583 330.713C424.261 330.082 424.091 329.324 424.095 328.549C424.099 327.773 424.279 327.02 424.607 326.395C424.936 325.771 425.398 325.307 425.926 325.071C426.454 324.835 427.022 324.838 427.549 325.08C428.076 325.322 428.534 325.791 428.86 326.419Z"
          fill="#C4C4C4"/>
    <path
            d="M412.929 343.52C413.143 342.475 414.06 341.725 415.123 341.725H418.696C420.113 341.725 421.174 343.03 420.889 344.423L420.518 346.24C420.304 347.285 419.387 348.036 418.324 348.036H414.751C413.334 348.036 412.273 346.731 412.558 345.338L412.929 343.52Z"
            fill="#FFDAB8"/>
    <path
            d="M428.725 343.52C428.939 342.475 429.855 341.725 430.919 341.725H434.492C435.909 341.725 436.97 343.03 436.685 344.423L436.313 346.24C436.1 347.285 435.183 348.036 434.12 348.036H430.547C429.13 348.036 428.069 346.731 428.354 345.338L428.725 343.52Z"
            fill="#FFDAB8"/>
    <path
            d="M443.468 343.52C443.682 342.475 444.598 341.725 445.661 341.725H449.235C450.652 341.725 451.713 343.03 451.428 344.423L451.056 346.24C450.843 347.285 449.926 348.036 448.863 348.036H445.29C443.872 348.036 442.811 346.731 443.096 345.338L443.468 343.52Z"
            fill="#FFDAB8"/>
    <path
            d="M459.264 343.52C459.477 342.475 460.394 341.725 461.457 341.725H465.03C466.448 341.725 467.508 343.03 467.223 344.423L466.852 346.24C466.638 347.285 465.722 348.036 464.659 348.036H461.085C459.668 348.036 458.607 346.731 458.892 345.338L459.264 343.52Z"
            fill="#FFDAB8"/>
    <path
            d="M409.77 355.09C409.984 354.045 410.9 353.294 411.964 353.294H415.537C416.954 353.294 418.015 354.599 417.73 355.992L417.359 357.81C417.145 358.855 416.228 359.605 415.165 359.605H411.592C410.175 359.605 409.114 358.3 409.399 356.907L409.77 355.09Z"
            fill="#FFDAB8"/>
    <path
            d="M425.566 355.09C425.78 354.045 426.696 353.294 427.759 353.294H431.333C432.75 353.294 433.811 354.599 433.526 355.992L433.154 357.81C432.941 358.855 432.024 359.605 430.961 359.605H427.388C425.97 359.605 424.91 358.3 425.194 356.907L425.566 355.09Z"
            fill="#FFDAB8"/>
    <path
            d="M440.309 355.09C440.522 354.045 441.439 353.294 442.502 353.294H446.075C447.493 353.294 448.554 354.599 448.269 355.992L447.897 357.81C447.683 358.855 446.767 359.605 445.703 359.605H442.13C440.713 359.605 439.652 358.3 439.937 356.907L440.309 355.09Z"
            fill="#FFDAB8"/>
    <path
            d="M456.105 355.09C456.318 354.045 457.235 353.294 458.298 353.294H461.871C463.289 353.294 464.349 354.599 464.064 355.992L463.693 357.81C463.479 358.855 462.563 359.605 461.5 359.605H457.926C456.509 359.605 455.448 358.3 455.733 356.907L456.105 355.09Z"
            fill="#FFDAB8"/>
    <path
            d="M406.611 366.659C406.825 365.614 407.741 364.864 408.804 364.864H412.378C413.795 364.864 414.856 366.169 414.571 367.562L414.199 369.38C413.986 370.425 413.069 371.175 412.006 371.175H408.433C407.015 371.175 405.955 369.87 406.239 368.477L406.611 366.659Z"
            fill="#FFDAB8"/>
    <path
            d="M422.407 366.659C422.62 365.614 423.537 364.864 424.6 364.864H428.173C429.591 364.864 430.652 366.169 430.367 367.562L429.995 369.38C429.781 370.425 428.865 371.175 427.802 371.175H424.229C422.811 371.175 421.75 369.87 422.035 368.477L422.407 366.659Z"
            fill="#FFDAB8"/>
    <path
            d="M437.15 366.659C437.363 365.614 438.28 364.864 439.343 364.864H442.916C444.334 364.864 445.394 366.169 445.11 367.562L444.738 369.38C444.524 370.425 443.608 371.175 442.545 371.175H438.971C437.554 371.175 436.493 369.87 436.778 368.477L437.15 366.659Z"
            fill="#FFDAB8"/>
    <path
            d="M452.945 366.659C453.159 365.614 454.076 364.864 455.139 364.864H458.712C460.13 364.864 461.19 366.169 460.905 367.562L460.534 369.38C460.32 370.425 459.404 371.175 458.34 371.175H454.767C453.35 371.175 452.289 369.87 452.574 368.477L452.945 366.659Z"
            fill="#FFDAB8"/>
    <path
            d="M322.344 639.673L309.917 629.034C303.305 623.375 304.57 606.09 304.57 606.09L286.798 605.129V624.32L283.915 634.396L320.903 641.592L322.344 639.673Z"
            fill="#FFAE64"/>
    <path
            d="M316.14 651.188H328.015C329.56 651.188 330.988 650.368 331.767 649.036C332.943 647.023 332.322 644.436 330.381 643.145C328.032 641.584 324.606 639.264 320.423 636.315C312.256 630.557 308.894 626.719 308.894 626.719C308.894 626.719 304.09 629.598 296.885 629.598C289.68 629.598 285.837 624.32 285.837 624.32C282.745 632.04 282.634 640.632 285.526 648.429L285.837 649.268L299.767 650.229L302.169 648.309L308.522 650.122C311 650.829 313.563 651.188 316.14 651.188Z"
            fill="#2C2770"/>
    <path
            d="M193.609 639.673L206.036 629.034C212.647 623.375 211.382 606.09 211.382 606.09L229.155 605.129V624.32L232.037 634.396L195.05 641.592L193.609 639.673Z"
            fill="#FFAE64"/>
    <path
            d="M199.813 651.188H187.938C186.393 651.188 184.964 650.368 184.186 649.036C183.01 647.023 183.63 644.436 185.573 643.145C187.92 641.584 191.347 639.264 195.53 636.315C203.696 630.557 207.059 626.719 207.059 626.719C207.059 626.719 211.862 629.598 219.068 629.598C226.273 629.598 230.116 624.32 230.116 624.32C233.208 632.04 233.319 640.632 230.427 648.429L230.116 649.268L216.186 650.229L213.784 648.309L207.431 650.122C204.953 650.829 202.389 651.188 199.813 651.188Z"
            fill="#2C2770"/>
    <path
            d="M234.813 339.669L238.762 320.144L318.981 317.745L323.936 355.358C325.433 366.723 325.917 378.198 325.381 389.649L314.658 618.564H286.317L280.553 389.231L238.762 618.564H208.5L232.037 398.347L231.822 396.055C230.054 377.215 231.061 358.217 234.813 339.669Z"
            fill="#2C2770"/>
    <mask id="mask6" mask-type="alpha" maskUnits="userSpaceOnUse" x="207" y="317" width="118"
          height="302">
        <path
                d="M233.852 339.669L237.802 320.144L318.021 317.745L322.976 355.358C324.473 366.723 324.956 378.198 324.42 389.649L313.698 618.564H285.357L279.592 389.231L237.802 618.564H207.539L231.077 398.347L230.861 396.055C229.093 377.215 230.101 358.217 233.852 339.669Z"
                fill="white"/>
    </mask>
    <g mask="url(#mask6)">
        <path
                d="M243.566 318.225C241.004 331.019 235.88 367.737 235.88 412.26C235.88 412.26 219.869 568.987 211.863 619.523"
                stroke="white" stroke-width="1.053"/>
        <path
                d="M281.034 389.711C283.916 396.908 289.776 420.896 290.16 459.278C290.545 497.661 290.32 581.461 290.16 618.564"
                stroke="white" stroke-width="1.053"/>
    </g>
    <path
            d="M378.719 192.924L355.485 204.712L358.039 230.283L382.401 219.544C395.64 213.707 404.953 201.493 407.064 187.194L415.407 130.703L422.123 123.064L427.336 116.313C429.122 114 429.782 111.012 429.137 108.164C428.669 106.097 427.271 104.362 425.35 103.464L415.653 98.9286L422.041 83.5395C422.662 82.045 421.801 80.3499 420.227 79.9672C419.08 79.6881 417.887 80.2039 417.305 81.2303L407.51 98.5094L404.769 98.0523C403.406 97.8248 402.051 98.5103 401.429 99.7439L398.25 106.04C397.369 107.784 397.124 109.78 397.555 111.685L400.057 122.731L378.719 192.924Z"
            fill="#FF9330"/>
    <path
            d="M422.313 102.109L416.552 113.152C415.98 114.249 414.656 114.715 413.522 114.22C412.445 113.749 411.881 112.555 412.202 111.425L413.157 108.062"
            stroke="black" stroke-width="1.053"/>
    <path
            d="M427.57 104.689L420.619 115.143C419.964 116.127 418.658 116.437 417.63 115.852C416.586 115.257 416.194 113.946 416.742 112.876L417.017 112.338"
            stroke="black" stroke-width="1.053"/>
    <path
            d="M428.461 112.699L422.809 120.618C422.093 121.622 420.732 121.922 419.658 121.311C418.622 120.721 418.175 119.461 418.609 118.35L419.654 115.67"
            stroke="black" stroke-width="1.053"/>
    <path
            d="M409.459 99.3599L419.27 103.524C420.097 103.875 420.509 104.806 420.213 105.653C419.574 107.484 417.779 108.652 415.843 108.496L406.869 107.771C408.608 108.894 410.978 115.099 411.22 121.53"
            stroke="black" stroke-width="1.053"/>
    <path
            d="M237.552 215.097L259.298 209.397H315.578C322.361 209.397 329.111 208.462 335.637 206.618L368.551 197.322L374.315 226.814L325.801 256.206L321.44 274.167L325.256 301.206C326.799 312.132 318.162 321.833 307.118 321.578L242.002 320.078C237.235 319.969 233.51 315.932 233.786 311.178L235.913 274.651L228.227 289.406L200.427 283.419L210.341 242.761C213.636 229.248 224.083 218.627 237.552 215.097Z"
            fill="#54B7FF"/>
    <path fill-rule="evenodd" clip-rule="evenodd"
          d="M259.298 209.397L237.552 215.097C224.083 218.627 213.636 229.248 210.341 242.761L200.427 283.419L228.227 289.406L235.913 274.651L201.395 486.704C200.883 489.851 203.27 492.726 206.461 492.806L231.97 493.441L264.031 374.856V216.563H291.937L298.255 374.856L316.099 495.535L342.187 496.185C345.397 496.265 347.931 493.482 347.546 490.298L321.44 274.167L325.801 256.206L374.315 226.814L368.551 197.322L335.637 206.618C329.111 208.462 322.361 209.397 315.578 209.397H259.298Z"
          fill="#FFE071"/>
    <path d="M301.941 166.078L288.251 163.974" stroke="black" stroke-width="1.053"/>
    <path
            d="M259.448 204.591C261.426 199.656 261.097 183.615 260.684 176.211C269.752 177.857 287.516 183.985 286.032 195.337C284.549 206.688 288.711 209.527 290.979 209.527C293.451 214.873 295.058 226.184 281.704 228.651C268.351 231.119 257.181 219.396 253.266 213.228C254.502 212.405 257.47 209.527 259.448 204.591Z"
            fill="#FF9330"/>
    <mask id="mask7" mask-type="alpha" maskUnits="userSpaceOnUse" x="253" y="176" width="40"
          height="53">
        <path
                d="M259.779 204.582C261.745 199.708 261.417 183.866 261.008 176.555C270.018 178.179 287.669 184.232 286.195 195.443C284.72 206.654 288.857 209.457 291.109 209.457C293.567 214.737 295.163 225.908 281.895 228.345C268.625 230.782 257.527 219.206 253.636 213.113C254.865 212.3 257.813 209.457 259.779 204.582Z"
                fill="white"/>
    </mask>
    <g mask="url(#mask7)">
        <path
                d="M287.883 205.331C267.879 203.159 261.428 186.328 260.703 178.184L287.883 193.386C296.218 198.273 307.887 207.503 287.883 205.331Z"
                fill="#D76767"/>
    </g>
    <path
            d="M261.228 177.896C260.825 184.659 269.081 196.955 284.185 196.34C293.003 195.982 295.23 185.913 297.476 174.822C299.078 166.915 302.106 158.489 301.101 152.688L287.81 148.386C289.622 150.845 289.027 150.301 282.986 150.301C277.008 150.301 274.671 146.887 272.455 145.042C271.248 152.42 261.925 144.696 261.925 148.386C261.925 151.336 264.031 170.66 264.031 172.914C261.925 172.914 263.018 166.078 261.228 164.985C259.214 163.755 255.187 162.895 255.187 169.289C255.187 175.682 259.214 177.691 261.228 177.896Z"
            fill="#FF9330"/>
    <path
            d="M261.925 172.914C261.925 172.914 262.978 164.5 259.819 164.5C253.159 164.5 255.607 172.388 255.607 172.388C249.464 160.819 251.394 139.257 269.296 133.998C296.315 126.061 308.786 151.132 300.888 152.404C284.565 155.034 272.455 147.145 270.349 148.723C268.243 150.301 266.137 165.026 265.084 170.285C264.241 174.492 262.802 174.141 261.925 172.914Z"
            fill="#2C2770"/>
    <path
            d="M279.641 180.967L286.366 184.325C285.886 185.284 284.348 186.532 282.043 185.764C279.737 184.996 279.481 182.565 279.641 180.967Z"
            fill="white"/>
    <path
            d="M294.051 160.815H298.858C299.653 160.815 300.297 161.46 300.297 162.255C300.297 163.05 299.653 163.694 298.858 163.694H294.051C293.256 163.694 292.611 163.05 292.611 162.255C292.611 161.46 293.256 160.815 294.051 160.815Z"
            fill="#2C2770"/>
    <path
            d="M274.837 160.815H279.644C280.439 160.815 281.083 161.46 281.083 162.255C281.083 163.05 280.439 163.694 279.644 163.694H274.837C274.042 163.694 273.397 163.05 273.397 162.255C273.397 161.46 274.042 160.815 274.837 160.815Z"
            fill="#2C2770"/>
    <path
            d="M277.72 169.544C276.924 169.544 276.279 168.899 276.279 168.104C276.279 167.309 276.924 166.665 277.72 166.665C278.515 166.665 279.161 167.309 279.161 168.104C279.161 168.899 278.515 169.544 277.72 169.544Z"
            fill="black"/>
    <path d="M288.768 162.735V180.006H284.445" stroke="black" stroke-width="1.053"/>
    <path
            d="M293.867 169.544C293.071 169.544 292.426 168.899 292.426 168.104C292.426 167.309 293.071 166.665 293.867 166.665C294.663 166.665 295.308 167.309 295.308 168.104C295.308 168.899 294.663 169.544 293.867 169.544Z"
            fill="black"/>
    <path fill-rule="evenodd" clip-rule="evenodd"
          d="M286.145 167.655C286.145 171.141 283.317 173.966 279.827 173.966C276.338 173.966 273.508 171.141 273.508 167.655C273.508 166.782 273.685 166.147 273.971 165.677C274.254 165.21 274.667 164.866 275.21 164.613C276.33 164.089 277.928 163.974 279.827 163.974C281.726 163.974 283.325 164.089 284.443 164.613C284.987 164.866 285.401 165.21 285.684 165.677C285.968 166.147 286.145 166.782 286.145 167.655Z"
          stroke="black" stroke-width="1.053"/>
    <path d="M289.767 165.677C288.587 164.58 287.226 164.58 285.684 165.677" stroke="black"
          stroke-width="1.053"/>
    <path fill-rule="evenodd" clip-rule="evenodd"
          d="M301.941 167.655C301.941 171.141 299.112 173.966 295.623 173.966C292.134 173.966 289.304 171.141 289.304 167.655C289.304 166.782 289.481 166.147 289.766 165.677C290.05 165.21 290.463 164.866 291.006 164.613C292.125 164.089 293.724 163.974 295.623 163.974C297.522 163.974 299.121 164.089 300.239 164.613C300.782 164.866 301.196 165.21 301.48 165.677C301.764 166.147 301.941 166.782 301.941 167.655Z"
          stroke="black" stroke-width="1.053"/>
    <path d="M273.508 166.078L259.819 163.974" stroke="black" stroke-width="1.053"/>
    <path
            d="M367.471 266.481L313.731 273.985C312.968 274.091 312.325 274.604 312.052 275.324L297.379 314.084C296.815 315.573 298.049 317.125 299.629 316.912L352.76 309.783C353.497 309.684 354.128 309.204 354.419 308.52L370.742 270.079C371.137 269.148 370.814 268.069 369.971 267.507L368.931 266.815C368.501 266.529 367.982 266.41 367.471 266.481Z"
            fill="#2C2770"/>
    <path
            d="M368.604 268.71L317.691 275.829C315.785 276.095 314.177 277.379 313.496 279.177L301.357 311.24C299.947 314.964 303.033 318.842 306.984 318.312L353.041 312.132C354.906 311.882 356.496 310.656 357.211 308.918L371.965 273.034C372.891 270.78 371.02 268.373 368.604 268.71Z"
            fill="#6B8CFF"/>
    <path
            d="M339.734 297.607C342.056 295.858 342.661 292.746 341.087 290.658C339.513 288.57 336.355 288.295 334.034 290.044C331.713 291.794 331.107 294.905 332.681 296.993C334.256 299.082 337.413 299.357 339.734 297.607Z"
            fill="#2C2770"/>
    <path
            d="M283.391 298.021L226.648 289.136L200.848 283.351L198.171 297.062C196.272 306.786 203.71 315.83 213.629 315.858L279.17 316.046L285.646 319.763C285.838 319.872 286.038 319.967 286.244 320.046L295.107 323.421C295.211 323.46 295.317 323.491 295.425 323.514L310.126 326.643C310.892 326.806 311.681 326.506 312.142 325.875C312.976 324.734 312.382 323.113 311.008 322.78L300.918 320.334H316.606C317.206 320.334 317.758 320.005 318.042 319.478C318.598 318.451 317.925 317.191 316.761 317.078L304.181 315.872L322.734 314.236C323.45 314.172 324.074 313.72 324.355 313.06C324.883 311.822 324.023 310.435 322.679 310.356L305.92 309.362L321.532 306.904C322.598 306.735 323.425 305.883 323.561 304.814C323.741 303.394 322.655 302.127 321.222 302.086L300.918 301.511L302.448 300.553L305.608 292.139L296.113 293.724C295.644 293.803 295.181 293.92 294.732 294.077L283.391 298.021Z"
            fill="#FF9330"/>
    <path
            d="M724.215 119.799H566.257C562.186 119.799 558.886 123.099 558.886 127.17V206.037C558.886 210.108 562.186 213.408 566.257 213.408H724.215C728.286 213.408 731.586 210.108 731.586 206.037V127.17C731.586 123.099 728.286 119.799 724.215 119.799Z"
            fill="white" stroke="#E5E5E5" stroke-width="2.106"/>
    <path d="M608.379 161.87H635.759C634.758 146.66 623.044 134.509 608.379 133.472V161.87Z"
          fill="#1BE3B3"/>
    <path d="M633.09 187.113C637.616 182.343 640.541 176.115 641.024 169.233H614.697L633.09 187.113Z"
          fill="#FFAE64"/>
    <path
            d="M603.926 166.04V133.472C588.179 134.555 575.734 147.774 575.734 163.934C575.734 180.801 589.292 194.476 606.015 194.476C613.313 194.476 620.002 191.865 625.228 187.526L603.926 166.04Z"
            fill="#FF8282"/>
    <path d="M702.101 174.492H655.766V182.906H702.101V174.492Z" fill="#A3B7FF"/>
    <path d="M689.464 159.767H654.714V168.181H689.464V159.767Z" fill="#A3B7FF"/>
    <path d="M721.056 143.99H655.766V152.404H721.056V143.99Z" fill="#A3B7FF"/>
    <path d="M856.9 524.735H841.104V635.172H856.9V524.735Z" fill="#CCD9FF"/>
    <path d="M830.573 498.44H868.483L864.271 535.253H834.786L830.573 498.44Z" fill="#A3BAFF"/>
    <mask id="mask8" mask-type="alpha" maskUnits="userSpaceOnUse" x="830" y="498" width="39"
          height="38">
        <path d="M830.573 498.44H868.483L864.271 535.253H834.786L830.573 498.44Z" fill="white"/>
    </mask>
    <g mask="url(#mask8)">
        <path d="M874.802 499.492L822.149 496.863L827.414 507.906L870.589 517.373L874.802 499.492Z"
              fill="black"/>
    </g>
    <path d="M897.969 479.508H798.982V503.699H897.969V479.508Z" fill="#CCD9FF"/>
    <path d="M906.393 632.016H790.557V641.482H906.393V632.016Z" fill="#CCD9FF"/>
    <path d="M906.393 638.327H790.557V641.482H906.393V638.327Z" fill="#2C2770"/>
    <path
            d="M621.18 605.706L637.237 602.537C645.778 600.851 653.179 585.174 653.179 585.174L669.132 593.059L659.692 609.775L657.247 619.965L621.491 608.084L621.18 605.706Z"
            fill="#FFAE64"/>
    <path
            d="M624.078 608.186L656.753 616.933C657.997 620.625 656.859 624.703 653.882 627.221L648.258 631.976L635.652 625.977L636.467 622.581L628.977 621.413C625.886 620.932 622.906 619.899 620.181 618.363L610.535 612.93C609.215 612.186 608.39 610.798 608.368 609.284C608.334 606.948 610.193 605.02 612.531 604.968L628.979 604.591L624.302 605.132C623.351 605.242 622.722 606.176 622.979 607.099C623.127 607.63 623.545 608.043 624.078 608.186Z"
            fill="#2C2770"/>
    <path
            d="M901.669 411.982L900.032 406.935H854.224L846.23 429.353L765.917 453.277C742.196 458.293 721.389 472.395 707.958 492.557L642.034 591.523L664.674 604.144L764.714 497.914L854.533 486.325C867.614 484.637 879.711 478.49 888.779 468.923C903.181 453.728 908.125 431.889 901.669 411.982Z"
            fill="#2C2770"/>
    <path
            d="M893.714 406.935V430.527C893.714 454.91 875.548 475.483 851.327 478.53L755.763 490.552L662.042 603.092"
            stroke="white" stroke-width="1.053"/>
    <path
            d="M744.722 627.888L754.036 614.446C758.992 607.295 753.373 590.897 753.373 590.897L770.32 585.461L775.2 604.023L780.548 613.037L746.604 629.378L744.722 627.888Z"
            fill="#FFAE64"/>
    <path
            d="M748.531 627.652L778.08 611.204C781.548 612.99 783.574 616.708 783.192 620.585L782.472 627.91L769.242 632.371L767.459 629.366L761.269 633.738C758.714 635.543 755.856 636.873 752.83 637.666L742.118 640.476C740.652 640.86 739.093 640.438 738.022 639.367C736.368 637.714 736.358 635.038 738 633.373L749.542 621.664L746.563 625.304C745.956 626.045 746.157 627.154 746.984 627.637C747.461 627.914 748.049 627.921 748.531 627.652Z"
            fill="#2C2770"/>
    <path
            d="M739.08 440.618L820.526 407.987H855.804L845.8 436.385L763.135 454.265L776.298 596.782H750.498L718.791 481.45C716.497 473.104 717.453 464.2 721.468 456.53C725.251 449.299 731.498 443.656 739.08 440.618Z"
            fill="#2C2770"/>
    <path d="M765.767 455.317L753.657 462.154L769.453 598.359" stroke="white" stroke-width="1.053"/>
    <path d="M850.538 419.031L854.224 407.987H841.587L765.767 455.317L850.538 419.031Z" fill="black"
          stroke="black" stroke-width="1.053"/>
    <path
            d="M943.937 346.555L921.943 336.144L904.457 352.576L924.918 363.656C937.67 370.561 953.088 370.465 965.752 363.401L1010.97 338.181L1020.47 338.781H1028.44C1031.17 338.781 1033.77 337.567 1035.51 335.471C1036.77 333.95 1037.26 331.933 1036.83 330.006L1034.65 320.281L1049.7 316.232C1051.16 315.839 1051.93 314.24 1051.31 312.862C1050.86 311.859 1049.8 311.273 1048.71 311.429L1030.32 314.044L1029.17 311.904C1028.51 310.686 1027.14 310.035 1025.77 310.296L1019.65 311.467C1017.73 311.836 1015.99 312.861 1014.74 314.366L1008.12 322.334L943.937 346.555Z"
            fill="#FFAE64"/>
    <path
            d="M1036.1 326.998L1024.63 329.037C1023.49 329.239 1022.39 328.529 1022.11 327.412C1021.84 326.35 1022.4 325.255 1023.42 324.849L1026.46 323.64"
            stroke="black" stroke-width="1.053"/>
    <path
            d="M1037.19 332.339L1025.47 333.166C1024.37 333.243 1023.4 332.458 1023.24 331.368C1023.09 330.26 1023.84 329.225 1024.94 329.021L1025.5 328.917"
            stroke="black" stroke-width="1.053"/>
    <path
            d="M1031.76 337.553L1022.67 337.895C1021.52 337.939 1020.52 337.107 1020.36 335.969C1020.2 334.868 1020.88 333.822 1021.95 333.51L1024.53 332.755"
            stroke="black" stroke-width="1.053"/>
    <path
            d="M1030.8 315.963L1033.31 325.561C1033.52 326.37 1033.07 327.203 1032.27 327.467C1030.55 328.038 1028.66 327.38 1027.67 325.866L1023.09 318.841C1023.25 320.761 1020 326.039 1015.38 329.877"
            stroke="black" stroke-width="1.053"/>
    <path
            d="M771.586 297.811L794.912 304.775L796.816 328.642L774.176 323.197C760.066 319.804 748.694 309.435 744.057 295.74L727.501 246.834L720.056 240.941L714.139 235.614C712.112 233.789 711.008 231.159 711.127 228.441C711.214 226.469 712.211 224.647 713.828 223.506L721.993 217.745L713.558 204.693C712.739 203.425 713.248 201.729 714.632 201.118C715.641 200.672 716.824 200.948 717.53 201.792L729.41 216.014L731.704 215.195C733.011 214.729 734.47 215.164 735.304 216.267L739.054 221.222C740.234 222.782 740.833 224.702 740.747 226.654L740.292 236.987L771.586 297.811Z"
            fill="#FFAE64"/>
    <path
            d="M716.396 221.762L723.531 230.934C724.238 231.844 725.533 232.053 726.494 231.411C727.407 230.802 727.727 229.614 727.244 228.63L725.806 225.706"
            stroke="black" stroke-width="1.053"/>
    <path
            d="M711.99 224.996L720.122 233.431C720.887 234.225 722.139 234.293 722.988 233.587C723.85 232.868 723.991 231.602 723.31 230.712L722.967 230.264"
            stroke="black" stroke-width="1.053"/>
    <path
            d="M712.504 232.487L719.017 238.813C719.843 239.615 721.145 239.664 722.03 238.927C722.885 238.214 723.087 236.985 722.504 236.039L721.096 233.755"
            stroke="black" stroke-width="1.053"/>
    <path
            d="M727.76 217.116L719.43 222.556C718.729 223.014 718.504 223.936 718.917 224.663C719.808 226.236 721.655 227.011 723.408 226.547L731.54 224.399C730.128 225.715 728.98 231.797 729.826 237.733"
            stroke="black" stroke-width="1.053"/>
    <path
            d="M899.247 311.13L879.427 304.094C873.536 304.094 858.218 303.798 844.079 302.613C829.941 301.428 804.314 302.613 783.695 299.651L779.277 326.313C788.113 330.757 801.368 335.201 819.041 338.164C819.041 351.467 821.988 358.553 821.988 364.825L826.406 384.082L815.699 409.039H902.991L893.954 381.693L899.255 351.467L917.719 363.344L935.393 341.125L908.552 316.702C905.855 314.247 902.691 312.353 899.247 311.13Z"
            fill="#6B8CFF"/>
    <mask id="mask9" mask-type="alpha" maskUnits="userSpaceOnUse" x="779" y="299" width="157"
          height="111">
        <path
                d="M899.247 311.13L879.427 304.094C873.536 304.094 858.218 303.798 844.079 302.613C829.94 301.428 804.314 302.613 783.695 299.651L779.277 326.313C788.113 330.757 801.368 335.201 819.041 338.164C813.15 355.939 817.078 358.901 821.988 364.825L826.406 384.082L815.699 409.039H902.991L893.954 381.693L899.255 351.467L917.719 363.344L935.393 341.125L908.552 316.702C905.855 314.247 902.691 312.353 899.247 311.13Z"
                fill="white"/>
    </mask>
    <g mask="url(#mask9)">
        <path
                d="M810.113 286.217C817.342 315.003 738.802 333.235 744.101 367.779C749.402 402.322 883.354 483.884 931.056 458.935C978.758 433.987 976.831 390.328 886.245 392.247C795.659 394.167 774.458 354.345 796.141 333.235C817.824 312.125 881.426 376.894 883.354 350.027C885.281 323.16 803.85 315.003 836.615 295.333C863.466 279.213 874.199 329.397 903.591 335.634C927.105 340.624 940.051 331.956 943.584 326.998C965.909 337.712 999.863 362.117 957.076 374.016C914.288 385.914 841.273 370.657 810.113 361.542"
                stroke="#A3B7FF" stroke-width="7.371"/>
    </g>
    <path
            d="M833.91 410.461L840.452 301.757L773.376 295.447L742.743 236.021L724.257 246.539L740.317 297.781C744.794 312.067 756.232 323.124 770.706 327.16L813.516 339.096L820.91 382.219L814.413 410.423L833.91 410.461Z"
            fill="#FF6767"/>
    <path
            d="M884.817 440.067L888.514 305.439L899.161 308.7C905.714 310.708 911.739 314.135 916.806 318.734L945.027 344.355L1002.6 321.741L1008.93 341.199L968.178 366.442C952.072 376.418 931.665 376.384 915.592 366.356L902.246 358.028L898.021 382.745L909.112 445.325L884.817 440.067Z"
            fill="#FF6767"/>
    <path d="M832.001 301.231L825.135 323.319L838.867 322.267" stroke="black" stroke-width="1.053"/>
    <path d="M895.908 307.542L902.774 324.371L887.986 322.267" stroke="black" stroke-width="1.053"/>
    <path
            d="M834.133 243.2C835.319 233.751 844.511 232.373 848.959 232.866C851.43 231.389 856.373 225.484 866.751 226.96C877.13 228.437 888.992 234.342 886.026 247.628C886.026 247.628 888.514 273.213 869.538 273.213C869.538 279.144 854.712 309.266 854.712 291.24C854.712 273.213 857.251 286.792 845.205 273.213C837.811 270.584 832.65 255.01 834.133 243.2Z"
            fill="#2C2770"/>
    <path
            d="M846.262 234.444C836.636 234.444 828.832 226.674 828.832 217.089C828.832 207.505 836.636 199.735 846.262 199.735C855.887 199.735 863.691 207.505 863.691 217.089C863.691 226.674 855.887 234.444 846.262 234.444Z"
            fill="#2C2770"/>
    <path
            d="M841.546 253.534V257.963C839.569 257.471 835.615 257.372 835.615 260.915C835.615 265.344 838.581 268.297 841.546 266.821C841.931 271.422 844.417 280.505 851.809 284.292C851.544 287.761 850.77 292.742 848.959 296.346C846.587 301.071 842.04 303.235 840.063 303.727C843.028 307.172 851.332 314.062 860.821 314.062C870.31 314.062 877.625 307.172 880.095 303.727C878.612 303.235 874.758 301.366 871.199 297.823C868.398 295.033 867.863 288.402 868.004 283.546C874.165 279.419 876.044 271.142 877.13 266.821C879.107 267.313 883.06 267.116 883.06 262.391C883.06 257.667 878.612 257.471 877.13 257.963V253.534C874.164 254.026 866.455 253.829 859.338 249.105C852.221 244.381 850.442 242.216 850.442 241.723C850.442 244.184 849.352 248.714 847.476 250.581C844.511 253.534 842.535 253.042 841.546 253.534Z"
            fill="#FFAE64"/>
    <path
            d="M853.961 273.743L860.708 277.102C860.225 278.061 858.684 279.308 856.371 278.54C854.058 277.774 853.801 275.342 853.961 273.743Z"
            fill="white"/>
    <path
            d="M868.411 253.593H873.241C874.036 253.593 874.681 254.237 874.681 255.032C874.681 255.827 874.036 256.471 873.241 256.471H868.411C867.616 256.471 866.971 255.827 866.971 255.032C866.971 254.237 867.616 253.593 868.411 253.593Z"
            fill="#2C2770"/>
    <path
            d="M849.137 253.593H853.968C854.763 253.593 855.407 254.237 855.407 255.032C855.407 255.827 854.763 256.471 853.968 256.471H849.137C848.342 256.471 847.698 255.827 847.698 255.032C847.698 254.237 848.342 253.593 849.137 253.593Z"
            fill="#2C2770"/>
    <path
            d="M852.034 261.269C851.236 261.269 850.589 260.624 850.589 259.829C850.589 259.035 851.236 258.39 852.034 258.39C852.833 258.39 853.48 259.035 853.48 259.829C853.48 260.624 852.833 261.269 852.034 261.269Z"
            fill="black"/>
    <path d="M863.116 255.512V272.784H858.78" stroke="black" stroke-width="1.053"/>
    <path
            d="M870.345 261.269C869.546 261.269 868.899 260.624 868.899 259.829C868.899 259.035 869.546 258.39 870.345 258.39C871.143 258.39 871.79 259.035 871.79 259.829C871.79 260.624 871.143 261.269 870.345 261.269Z"
            fill="black"/>
    <path d="M839.025 260.789C838.543 261.909 838.446 264.244 841.916 264.628" stroke="black"
          stroke-width="1.053"/>
    <path d="M880.219 260.789C880.701 261.909 880.797 264.244 877.328 264.628" stroke="black"
          stroke-width="1.053"/>
    <mask id="mask10" mask-type="alpha" maskUnits="userSpaceOnUse" x="835" y="241" width="49"
          height="74">
        <path
                d="M841.546 253.534V257.963C839.569 257.471 835.615 257.372 835.615 260.915C835.615 265.344 838.581 268.297 841.546 266.821C841.931 271.422 844.417 280.505 851.809 284.292C851.544 287.761 850.77 292.742 848.959 296.346C846.587 301.071 842.04 303.235 840.063 303.728C843.028 307.172 851.332 314.062 860.821 314.062C870.31 314.062 877.625 307.172 880.095 303.728C878.612 303.235 874.758 301.366 871.199 297.823C868.398 295.033 867.863 288.402 868.004 283.546C874.165 279.419 876.044 271.142 877.13 266.821C879.107 267.313 883.06 267.116 883.06 262.391C883.06 257.667 878.612 257.471 877.13 257.963V253.534C874.164 254.026 866.455 253.829 859.338 249.105C852.221 244.381 850.442 242.216 850.442 241.723C850.442 244.184 849.352 248.714 847.476 250.581C844.511 253.534 842.535 253.042 841.546 253.534Z"
                fill="white"/>
    </mask>
    <g mask="url(#mask10)">
        <path
                d="M869.38 282.859C868.095 283.658 863.983 285.738 859.743 285.738C855.719 285.738 851.954 284.441 850.758 283.898L850.588 283.818C850.638 283.843 850.694 283.87 850.758 283.898L869.863 292.934L869.38 282.859Z"
                fill="#FF8282"/>
    </g>
    <path
            d="M211.002 351.121C218.795 341.921 238.471 345.3 245.605 348.881C226.761 383.129 210.138 358.943 204.364 394.166C201.893 409.241 183.472 394.904 184.889 421.359C186.118 444.313 170.367 446.303 168.529 458.675C166.692 471.046 161.718 481.552 151.015 485.153C135.374 490.414 123.357 471.394 135.169 462.449C146.981 453.506 123.973 440.259 142.083 429.681C160.195 419.103 140.781 394.609 163.6 388.277C186.419 381.943 178.027 368.444 185.4 361.34C192.774 354.235 201.26 362.622 211.002 351.121Z"
            fill="#6B8CFF"/>
    <path
            d="M129.734 279.587C133.699 266.522 152.104 268.017 160.002 273.802C148.945 283.794 132.324 283.411 142.046 322.78C146.207 339.629 123.104 332.605 136.359 359.627C147.859 383.075 129.537 392.058 133.149 405.8C136.76 419.544 139.205 432.535 129.734 441.035C115.893 453.458 99.5566 437.731 107.795 423.155C116.033 408.579 89.1912 405.94 103.219 386.868C117.247 367.797 87.0038 354.68 107.795 337.961C128.586 321.241 106.57 312.889 111.035 302.2C115.499 291.512 124.777 295.919 129.734 279.587Z"
            fill="#1BE3B3"/>
    <path
            d="M29.6166 351.997C22.49 344.585 5.89418 348.5 0 351.922C17.8609 380.054 30.7637 358.604 37.5336 388.257C40.4312 400.947 55.383 387.779 55.5636 410.355C55.7203 429.943 69.2517 430.802 71.4672 441.227C73.6826 451.652 78.4739 460.325 87.7874 462.82C101.398 466.468 110.644 449.654 100.105 442.673C89.5659 435.691 108.485 423.206 92.4912 415.167C76.4967 407.129 91.7613 385.27 71.9759 381.091C52.1907 376.911 58.6363 364.986 51.9776 359.334C45.319 353.681 38.5248 361.263 29.6166 351.997Z"
            fill="#54B7FF"/>
    <path
            d="M121.354 501.296C119.515 459.863 111.884 345.785 135.255 289.694C137.293 284.804 141.573 274.328 152.63 274.328"
            stroke="#4F4F4F" stroke-width="1.053"/>
    <path d="M99.6992 512.335C98.6375 472.751 81.7297 386.336 22.5924 357.345" stroke="#4F4F4F"
          stroke-width="1.053"/>
    <path d="M139.647 512.669C143.381 469.708 167.393 376.868 233.568 349.198" stroke="#4F4F4F"
          stroke-width="1.053"/>
    <path
            d="M86.8145 493.624H149.998L166.29 615.667C168.815 634.584 154.082 651.391 134.975 651.391H101.837C82.7306 651.391 67.9972 634.584 70.5224 615.667L86.8145 493.624Z"
            fill="#A3BAFF"/>
    <path d="M158.422 493.624H77.337V505.194H158.422V493.624Z" fill="#CCD9FF"/>
</svg>
